solid OpenSCAD_Model
  facet normal -1 0 0
    outer loop
      vertex -7.5 -7.5 0
      vertex -7.5 7.5 30
      vertex -7.5 7.5 0
    endloop
  endfacet
  facet normal -1 -0 0
    outer loop
      vertex -7.5 7.5 30
      vertex -7.5 -7.5 0
      vertex -7.5 -7.5 30
    endloop
  endfacet
  facet normal 0 0 1
    outer loop
      vertex 7.5 7.5 30
      vertex 4.2 0 30
      vertex 7.5 -7.5 30
    endloop
  endfacet
  facet normal 0 0 1
    outer loop
      vertex 7.5 7.5 30
      vertex 4.17827 0.414629 30
      vertex 4.2 0 30
    endloop
  endfacet
  facet normal 0 0 1
    outer loop
      vertex 7.5 7.5 30
      vertex 4.17699 0.439019 30
      vertex 4.17827 0.414629 30
    endloop
  endfacet
  facet normal 0 0 1
    outer loop
      vertex 7.5 7.5 30
      vertex 4.17317 0.463142 30
      vertex 4.17699 0.439019 30
    endloop
  endfacet
  facet normal 0 0 1
    outer loop
      vertex 7.5 7.5 30
      vertex 4.10822 0.873228 30
      vertex 4.17317 0.463142 30
    endloop
  endfacet
  facet normal 0 0 1
    outer loop
      vertex 7.5 7.5 30
      vertex 4.00076 1.27428 30
      vertex 4.10822 0.873228 30
    endloop
  endfacet
  facet normal 0 0 1
    outer loop
      vertex 7.5 7.5 30
      vertex 3.99444 1.29787 30
      vertex 4.00076 1.27428 30
    endloop
  endfacet
  facet normal 0 0 1
    outer loop
      vertex 7.5 7.5 30
      vertex 3.98568 1.32067 30
      vertex 3.99444 1.29787 30
    endloop
  endfacet
  facet normal 0 0 1
    outer loop
      vertex 7.5 7.5 30
      vertex 3.83689 1.70829 30
      vertex 3.98568 1.32067 30
    endloop
  endfacet
  facet normal 0 0 1
    outer loop
      vertex 7.5 7.5 30
      vertex 3.64839 2.07824 30
      vertex 3.83689 1.70829 30
    endloop
  endfacet
  facet normal 0 0 1
    outer loop
      vertex 7.5 7.5 30
      vertex 3.63731 2.1 30
      vertex 3.64839 2.07824 30
    endloop
  endfacet
  facet normal 0 0 1
    outer loop
      vertex 7.5 7.5 30
      vertex 3.41117 2.44821 30
      vertex 3.63731 2.1 30
    endloop
  endfacet
  facet normal 0 0 1
    outer loop
      vertex 7.5 7.5 30
      vertex 3.39787 2.4687 30
      vertex 3.41117 2.44821 30
    endloop
  endfacet
  facet normal 0 0 1
    outer loop
      vertex 7.5 7.5 30
      vertex 3.3825 2.48768 30
      vertex 3.39787 2.4687 30
    endloop
  endfacet
  facet normal 0 0 1
    outer loop
      vertex 7.5 7.5 30
      vertex 3.12121 2.81035 30
      vertex 3.3825 2.48768 30
    endloop
  endfacet
  facet normal 0 0 1
    outer loop
      vertex 7.5 7.5 30
      vertex 2.81035 3.12121 30
      vertex 3.12121 2.81035 30
    endloop
  endfacet
  facet normal 0 0 1
    outer loop
      vertex 7.5 7.5 30
      vertex 2.48768 3.3825 30
      vertex 2.81035 3.12121 30
    endloop
  endfacet
  facet normal 0 0 1
    outer loop
      vertex 7.5 7.5 30
      vertex 2.4687 3.39787 30
      vertex 2.48768 3.3825 30
    endloop
  endfacet
  facet normal 0 0 1
    outer loop
      vertex 7.5 7.5 30
      vertex 2.44821 3.41117 30
      vertex 2.4687 3.39787 30
    endloop
  endfacet
  facet normal 0 0 1
    outer loop
      vertex 7.5 7.5 30
      vertex 2.1 3.63731 30
      vertex 2.44821 3.41117 30
    endloop
  endfacet
  facet normal 0 0 1
    outer loop
      vertex 7.5 7.5 30
      vertex 1.73005 3.8258 30
      vertex 2.1 3.63731 30
    endloop
  endfacet
  facet normal 0 0 1
    outer loop
      vertex 7.5 7.5 30
      vertex 1.70829 3.83689 30
      vertex 1.73005 3.8258 30
    endloop
  endfacet
  facet normal 0 0 1
    outer loop
      vertex 7.5 7.5 30
      vertex 1.32067 3.98568 30
      vertex 1.70829 3.83689 30
    endloop
  endfacet
  facet normal 0 0 1
    outer loop
      vertex 7.5 7.5 30
      vertex 1.29787 3.99444 30
      vertex 1.32067 3.98568 30
    endloop
  endfacet
  facet normal 0 0 1
    outer loop
      vertex 7.5 7.5 30
      vertex 1.27428 4.00076 30
      vertex 1.29787 3.99444 30
    endloop
  endfacet
  facet normal 0 0 1
    outer loop
      vertex 7.5 7.5 30
      vertex 0.873228 4.10822 30
      vertex 1.27428 4.00076 30
    endloop
  endfacet
  facet normal 0 0 1
    outer loop
      vertex 7.5 7.5 30
      vertex 0.463142 4.17317 30
      vertex 0.873228 4.10822 30
    endloop
  endfacet
  facet normal 0 0 1
    outer loop
      vertex 7.5 7.5 30
      vertex 0.439019 4.17699 30
      vertex 0.463142 4.17317 30
    endloop
  endfacet
  facet normal 0 0 1
    outer loop
      vertex 7.5 7.5 30
      vertex 0.414629 4.17827 30
      vertex 0.439019 4.17699 30
    endloop
  endfacet
  facet normal 0 0 1
    outer loop
      vertex 7.5 7.5 30
      vertex 0 4.2 30
      vertex 0.414629 4.17827 30
    endloop
  endfacet
  facet normal -0 0 1
    outer loop
      vertex -7.5 7.5 30
      vertex 0 4.2 30
      vertex 7.5 7.5 30
    endloop
  endfacet
  facet normal 0 0 1
    outer loop
      vertex 0 4.2 30
      vertex -7.5 7.5 30
      vertex -0.414629 4.17827 30
    endloop
  endfacet
  facet normal 0 0 1
    outer loop
      vertex -0.414629 4.17827 30
      vertex -7.5 7.5 30
      vertex -0.439019 4.17699 30
    endloop
  endfacet
  facet normal 0 0 1
    outer loop
      vertex -0.439019 4.17699 30
      vertex -7.5 7.5 30
      vertex -0.463142 4.17317 30
    endloop
  endfacet
  facet normal 0 0 1
    outer loop
      vertex -0.463142 4.17317 30
      vertex -7.5 7.5 30
      vertex -0.873228 4.10822 30
    endloop
  endfacet
  facet normal 0 0 1
    outer loop
      vertex -0.873228 4.10822 30
      vertex -7.5 7.5 30
      vertex -1.27428 4.00076 30
    endloop
  endfacet
  facet normal 0 0 1
    outer loop
      vertex -1.27428 4.00076 30
      vertex -7.5 7.5 30
      vertex -1.29787 3.99444 30
    endloop
  endfacet
  facet normal 0 0 1
    outer loop
      vertex -1.29787 3.99444 30
      vertex -7.5 7.5 30
      vertex -1.32067 3.98568 30
    endloop
  endfacet
  facet normal 0 0 1
    outer loop
      vertex -7.5 7.5 30
      vertex -2.44821 3.41117 30
      vertex -2.1 3.63731 30
    endloop
  endfacet
  facet normal 0 0 1
    outer loop
      vertex -7.5 7.5 30
      vertex -3.41117 2.44821 30
      vertex -3.39787 2.4687 30
    endloop
  endfacet
  facet normal 0 0 1
    outer loop
      vertex -7.5 7.5 30
      vertex -3.98568 1.32067 30
      vertex -3.83689 1.70829 30
    endloop
  endfacet
  facet normal 0 0 1
    outer loop
      vertex -7.5 7.5 30
      vertex -4.00076 1.27428 30
      vertex -3.99444 1.29787 30
    endloop
  endfacet
  facet normal 0 0 1
    outer loop
      vertex -7.5 7.5 30
      vertex -4.17317 0.463142 30
      vertex -4.10822 0.873228 30
    endloop
  endfacet
  facet normal 0 0 1
    outer loop
      vertex -7.5 7.5 30
      vertex -4.17827 0.414629 30
      vertex -4.17699 0.439019 30
    endloop
  endfacet
  facet normal 0 0 1
    outer loop
      vertex -4.17827 0.414629 30
      vertex -7.5 7.5 30
      vertex -4.2 0 30
    endloop
  endfacet
  facet normal 0 0 1
    outer loop
      vertex -4.17317 0.463142 30
      vertex -7.5 7.5 30
      vertex -4.17699 0.439019 30
    endloop
  endfacet
  facet normal 0 0 1
    outer loop
      vertex -4.00076 1.27428 30
      vertex -7.5 7.5 30
      vertex -4.10822 0.873228 30
    endloop
  endfacet
  facet normal 0 0 1
    outer loop
      vertex -3.98568 1.32067 30
      vertex -7.5 7.5 30
      vertex -3.99444 1.29787 30
    endloop
  endfacet
  facet normal 0 0 1
    outer loop
      vertex -3.64839 2.07824 30
      vertex -7.5 7.5 30
      vertex -3.83689 1.70829 30
    endloop
  endfacet
  facet normal 0 0 1
    outer loop
      vertex -3.63731 2.1 30
      vertex -7.5 7.5 30
      vertex -3.64839 2.07824 30
    endloop
  endfacet
  facet normal 0 0 1
    outer loop
      vertex -3.41117 2.44821 30
      vertex -7.5 7.5 30
      vertex -3.63731 2.1 30
    endloop
  endfacet
  facet normal 0 0 1
    outer loop
      vertex -3.3825 2.48768 30
      vertex -7.5 7.5 30
      vertex -3.39787 2.4687 30
    endloop
  endfacet
  facet normal 0 0 1
    outer loop
      vertex -3.12121 2.81035 30
      vertex -7.5 7.5 30
      vertex -3.3825 2.48768 30
    endloop
  endfacet
  facet normal 0 0 1
    outer loop
      vertex -2.81035 3.12121 30
      vertex -7.5 7.5 30
      vertex -3.12121 2.81035 30
    endloop
  endfacet
  facet normal 0 0 1
    outer loop
      vertex -2.48768 3.3825 30
      vertex -7.5 7.5 30
      vertex -2.81035 3.12121 30
    endloop
  endfacet
  facet normal 0 0 1
    outer loop
      vertex -2.4687 3.39787 30
      vertex -7.5 7.5 30
      vertex -2.48768 3.3825 30
    endloop
  endfacet
  facet normal 0 0 1
    outer loop
      vertex -2.44821 3.41117 30
      vertex -7.5 7.5 30
      vertex -2.4687 3.39787 30
    endloop
  endfacet
  facet normal 0 0 1
    outer loop
      vertex -2.07824 3.64839 30
      vertex -7.5 7.5 30
      vertex -2.1 3.63731 30
    endloop
  endfacet
  facet normal 0 0 1
    outer loop
      vertex -1.70829 3.83689 30
      vertex -7.5 7.5 30
      vertex -2.07824 3.64839 30
    endloop
  endfacet
  facet normal 0 0 1
    outer loop
      vertex -1.32067 3.98568 30
      vertex -7.5 7.5 30
      vertex -1.70829 3.83689 30
    endloop
  endfacet
  facet normal -0 0 1
    outer loop
      vertex 4.17827 -0.414629 30
      vertex 7.5 -7.5 30
      vertex 4.2 0 30
    endloop
  endfacet
  facet normal -0 0 1
    outer loop
      vertex 4.17699 -0.439019 30
      vertex 7.5 -7.5 30
      vertex 4.17827 -0.414629 30
    endloop
  endfacet
  facet normal -0 0 1
    outer loop
      vertex 4.17317 -0.463142 30
      vertex 7.5 -7.5 30
      vertex 4.17699 -0.439019 30
    endloop
  endfacet
  facet normal -0 0 1
    outer loop
      vertex 4.10822 -0.873228 30
      vertex 7.5 -7.5 30
      vertex 4.17317 -0.463142 30
    endloop
  endfacet
  facet normal -0 0 1
    outer loop
      vertex 4.00076 -1.27428 30
      vertex 7.5 -7.5 30
      vertex 4.10822 -0.873228 30
    endloop
  endfacet
  facet normal -0 0 1
    outer loop
      vertex 3.99444 -1.29787 30
      vertex 7.5 -7.5 30
      vertex 4.00076 -1.27428 30
    endloop
  endfacet
  facet normal -0 0 1
    outer loop
      vertex 3.98568 -1.32067 30
      vertex 7.5 -7.5 30
      vertex 3.99444 -1.29787 30
    endloop
  endfacet
  facet normal -0 0 1
    outer loop
      vertex 3.83689 -1.70829 30
      vertex 7.5 -7.5 30
      vertex 3.98568 -1.32067 30
    endloop
  endfacet
  facet normal -0 0 1
    outer loop
      vertex 3.64839 -2.07824 30
      vertex 7.5 -7.5 30
      vertex 3.83689 -1.70829 30
    endloop
  endfacet
  facet normal -0 0 1
    outer loop
      vertex 3.63731 -2.1 30
      vertex 7.5 -7.5 30
      vertex 3.64839 -2.07824 30
    endloop
  endfacet
  facet normal -0 0 1
    outer loop
      vertex 3.41117 -2.44821 30
      vertex 7.5 -7.5 30
      vertex 3.63731 -2.1 30
    endloop
  endfacet
  facet normal -0 0 1
    outer loop
      vertex 3.39787 -2.4687 30
      vertex 7.5 -7.5 30
      vertex 3.41117 -2.44821 30
    endloop
  endfacet
  facet normal -0 0 1
    outer loop
      vertex 3.3825 -2.48768 30
      vertex 7.5 -7.5 30
      vertex 3.39787 -2.4687 30
    endloop
  endfacet
  facet normal -0 0 1
    outer loop
      vertex 3.12121 -2.81035 30
      vertex 7.5 -7.5 30
      vertex 3.3825 -2.48768 30
    endloop
  endfacet
  facet normal -0 0 1
    outer loop
      vertex 2.81035 -3.12121 30
      vertex 7.5 -7.5 30
      vertex 3.12121 -2.81035 30
    endloop
  endfacet
  facet normal -0 0 1
    outer loop
      vertex 2.48768 -3.3825 30
      vertex 7.5 -7.5 30
      vertex 2.81035 -3.12121 30
    endloop
  endfacet
  facet normal -0 0 1
    outer loop
      vertex 2.4687 -3.39787 30
      vertex 7.5 -7.5 30
      vertex 2.48768 -3.3825 30
    endloop
  endfacet
  facet normal -0 0 1
    outer loop
      vertex 2.44821 -3.41117 30
      vertex 7.5 -7.5 30
      vertex 2.4687 -3.39787 30
    endloop
  endfacet
  facet normal -0 0 1
    outer loop
      vertex 2.1 -3.63731 30
      vertex 7.5 -7.5 30
      vertex 2.44821 -3.41117 30
    endloop
  endfacet
  facet normal -0 0 1
    outer loop
      vertex 1.73005 -3.8258 30
      vertex 7.5 -7.5 30
      vertex 2.1 -3.63731 30
    endloop
  endfacet
  facet normal -0 0 1
    outer loop
      vertex 1.70829 -3.83689 30
      vertex 7.5 -7.5 30
      vertex 1.73005 -3.8258 30
    endloop
  endfacet
  facet normal -0 0 1
    outer loop
      vertex 1.32067 -3.98568 30
      vertex 7.5 -7.5 30
      vertex 1.70829 -3.83689 30
    endloop
  endfacet
  facet normal -0 0 1
    outer loop
      vertex 1.29787 -3.99444 30
      vertex 7.5 -7.5 30
      vertex 1.32067 -3.98568 30
    endloop
  endfacet
  facet normal -0 0 1
    outer loop
      vertex 1.27428 -4.00076 30
      vertex 7.5 -7.5 30
      vertex 1.29787 -3.99444 30
    endloop
  endfacet
  facet normal -0 0 1
    outer loop
      vertex 0.873228 -4.10822 30
      vertex 7.5 -7.5 30
      vertex 1.27428 -4.00076 30
    endloop
  endfacet
  facet normal -0 0 1
    outer loop
      vertex 0.463142 -4.17317 30
      vertex 7.5 -7.5 30
      vertex 0.873228 -4.10822 30
    endloop
  endfacet
  facet normal -0 0 1
    outer loop
      vertex 0.439019 -4.17699 30
      vertex 7.5 -7.5 30
      vertex 0.463142 -4.17317 30
    endloop
  endfacet
  facet normal -0 0 1
    outer loop
      vertex 0.414629 -4.17827 30
      vertex 7.5 -7.5 30
      vertex 0.439019 -4.17699 30
    endloop
  endfacet
  facet normal -0 0 1
    outer loop
      vertex 0 -4.2 30
      vertex 7.5 -7.5 30
      vertex 0.414629 -4.17827 30
    endloop
  endfacet
  facet normal 0 0 1
    outer loop
      vertex -7.5 -7.5 30
      vertex 0 -4.2 30
      vertex -0.414629 -4.17827 30
    endloop
  endfacet
  facet normal 0 0 1
    outer loop
      vertex -7.5 -7.5 30
      vertex -0.414629 -4.17827 30
      vertex -0.439019 -4.17699 30
    endloop
  endfacet
  facet normal 0 0 1
    outer loop
      vertex -7.5 -7.5 30
      vertex -0.439019 -4.17699 30
      vertex -0.463142 -4.17317 30
    endloop
  endfacet
  facet normal 0 0 1
    outer loop
      vertex -7.5 -7.5 30
      vertex -0.463142 -4.17317 30
      vertex -0.873228 -4.10822 30
    endloop
  endfacet
  facet normal 0 0 1
    outer loop
      vertex -7.5 -7.5 30
      vertex -0.873228 -4.10822 30
      vertex -1.27428 -4.00076 30
    endloop
  endfacet
  facet normal 0 0 1
    outer loop
      vertex -7.5 -7.5 30
      vertex -1.27428 -4.00076 30
      vertex -1.29787 -3.99444 30
    endloop
  endfacet
  facet normal 0 0 1
    outer loop
      vertex -7.5 -7.5 30
      vertex -1.29787 -3.99444 30
      vertex -1.32067 -3.98568 30
    endloop
  endfacet
  facet normal 0 0 1
    outer loop
      vertex -7.5 -7.5 30
      vertex -1.32067 -3.98568 30
      vertex -1.70829 -3.83689 30
    endloop
  endfacet
  facet normal 0 0 1
    outer loop
      vertex -7.5 -7.5 30
      vertex -1.73005 -3.8258 30
      vertex -2.1 -3.63731 30
    endloop
  endfacet
  facet normal 0 0 1
    outer loop
      vertex -7.5 -7.5 30
      vertex -2.44821 -3.41117 30
      vertex -2.4687 -3.39787 30
    endloop
  endfacet
  facet normal 0 0 1
    outer loop
      vertex -7.5 -7.5 30
      vertex -3.41117 -2.44821 30
      vertex -3.63731 -2.1 30
    endloop
  endfacet
  facet normal 0 0 1
    outer loop
      vertex -7.5 -7.5 30
      vertex -3.98568 -1.32067 30
      vertex -3.99444 -1.29787 30
    endloop
  endfacet
  facet normal 0 0 1
    outer loop
      vertex -7.5 -7.5 30
      vertex -4.00076 -1.27428 30
      vertex -4.10822 -0.873228 30
    endloop
  endfacet
  facet normal 0 0 1
    outer loop
      vertex -7.5 -7.5 30
      vertex -4.17317 -0.463142 30
      vertex -4.17699 -0.439019 30
    endloop
  endfacet
  facet normal 0 0 1
    outer loop
      vertex -7.5 -7.5 30
      vertex -4.17827 -0.414629 30
      vertex -4.2 0 30
    endloop
  endfacet
  facet normal 0 0 1
    outer loop
      vertex -7.5 -7.5 30
      vertex -4.2 0 30
      vertex -7.5 7.5 30
    endloop
  endfacet
  facet normal 0 0 1
    outer loop
      vertex -4.17827 -0.414629 30
      vertex -7.5 -7.5 30
      vertex -4.17699 -0.439019 30
    endloop
  endfacet
  facet normal 0 0 1
    outer loop
      vertex -4.17317 -0.463142 30
      vertex -7.5 -7.5 30
      vertex -4.10822 -0.873228 30
    endloop
  endfacet
  facet normal 0 0 1
    outer loop
      vertex -4.00076 -1.27428 30
      vertex -7.5 -7.5 30
      vertex -3.99444 -1.29787 30
    endloop
  endfacet
  facet normal 0 0 1
    outer loop
      vertex 0 -4.2 30
      vertex -7.5 -7.5 30
      vertex 7.5 -7.5 30
    endloop
  endfacet
  facet normal 0 0 1
    outer loop
      vertex -1.73005 -3.8258 30
      vertex -7.5 -7.5 30
      vertex -1.70829 -3.83689 30
    endloop
  endfacet
  facet normal 0 0 1
    outer loop
      vertex -2.44821 -3.41117 30
      vertex -7.5 -7.5 30
      vertex -2.1 -3.63731 30
    endloop
  endfacet
  facet normal 0 0 1
    outer loop
      vertex -2.48768 -3.3825 30
      vertex -7.5 -7.5 30
      vertex -2.4687 -3.39787 30
    endloop
  endfacet
  facet normal 0 0 1
    outer loop
      vertex -2.81035 -3.12121 30
      vertex -7.5 -7.5 30
      vertex -2.48768 -3.3825 30
    endloop
  endfacet
  facet normal 0 0 1
    outer loop
      vertex -3.12121 -2.81035 30
      vertex -7.5 -7.5 30
      vertex -2.81035 -3.12121 30
    endloop
  endfacet
  facet normal 0 0 1
    outer loop
      vertex -3.3825 -2.48768 30
      vertex -7.5 -7.5 30
      vertex -3.12121 -2.81035 30
    endloop
  endfacet
  facet normal 0 0 1
    outer loop
      vertex -3.39787 -2.4687 30
      vertex -7.5 -7.5 30
      vertex -3.3825 -2.48768 30
    endloop
  endfacet
  facet normal 0 0 1
    outer loop
      vertex -3.41117 -2.44821 30
      vertex -7.5 -7.5 30
      vertex -3.39787 -2.4687 30
    endloop
  endfacet
  facet normal 0 0 1
    outer loop
      vertex -3.64839 -2.07824 30
      vertex -7.5 -7.5 30
      vertex -3.63731 -2.1 30
    endloop
  endfacet
  facet normal 0 0 1
    outer loop
      vertex -3.83689 -1.70829 30
      vertex -7.5 -7.5 30
      vertex -3.64839 -2.07824 30
    endloop
  endfacet
  facet normal 0 0 1
    outer loop
      vertex -3.98568 -1.32067 30
      vertex -7.5 -7.5 30
      vertex -3.83689 -1.70829 30
    endloop
  endfacet
  facet normal 1 -0 0
    outer loop
      vertex 7.5 -7.5 30
      vertex 7.5 7.5 0
      vertex 7.5 7.5 30
    endloop
  endfacet
  facet normal 1 0 0
    outer loop
      vertex 7.5 7.5 0
      vertex 7.5 -7.5 30
      vertex 7.5 -7.5 0
    endloop
  endfacet
  facet normal 0 0 -1
    outer loop
      vertex 7.5 -7.5 0
      vertex 0.75 0 0
      vertex 7.5 7.5 0
    endloop
  endfacet
  facet normal 0 0 -1
    outer loop
      vertex 7.5 -7.5 0
      vertex 0.745891 -0.0783958 0
      vertex 0.75 0 0
    endloop
  endfacet
  facet normal 0 0 -1
    outer loop
      vertex 7.5 -7.5 0
      vertex 0.73361 -0.155933 0
      vertex 0.745891 -0.0783958 0
    endloop
  endfacet
  facet normal 0 0 -1
    outer loop
      vertex 7.5 -7.5 0
      vertex 0.713292 -0.231762 0
      vertex 0.73361 -0.155933 0
    endloop
  endfacet
  facet normal 0 0 -1
    outer loop
      vertex 7.5 -7.5 0
      vertex 0.685159 -0.305052 0
      vertex 0.713292 -0.231762 0
    endloop
  endfacet
  facet normal 0 0 -1
    outer loop
      vertex 7.5 -7.5 0
      vertex 0.649519 -0.374999 0
      vertex 0.685159 -0.305052 0
    endloop
  endfacet
  facet normal 0 0 -1
    outer loop
      vertex 7.5 -7.5 0
      vertex 0.606762 -0.440839 0
      vertex 0.649519 -0.374999 0
    endloop
  endfacet
  facet normal 0 0 -1
    outer loop
      vertex 7.5 -7.5 0
      vertex 0.557358 -0.501847 0
      vertex 0.606762 -0.440839 0
    endloop
  endfacet
  facet normal 0 0 -1
    outer loop
      vertex 7.5 -7.5 0
      vertex 0.501847 -0.557358 0
      vertex 0.557358 -0.501847 0
    endloop
  endfacet
  facet normal 0 0 -1
    outer loop
      vertex 7.5 -7.5 0
      vertex 0.440839 -0.606762 0
      vertex 0.501847 -0.557358 0
    endloop
  endfacet
  facet normal 0 0 -1
    outer loop
      vertex 7.5 -7.5 0
      vertex 0.375 -0.649519 0
      vertex 0.440839 -0.606762 0
    endloop
  endfacet
  facet normal 0 0 -1
    outer loop
      vertex 7.5 -7.5 0
      vertex 0.305052 -0.685159 0
      vertex 0.375 -0.649519 0
    endloop
  endfacet
  facet normal 0 0 -1
    outer loop
      vertex 7.5 -7.5 0
      vertex 0.231762 -0.713292 0
      vertex 0.305052 -0.685159 0
    endloop
  endfacet
  facet normal 0 0 -1
    outer loop
      vertex 7.5 -7.5 0
      vertex 0.155933 -0.73361 0
      vertex 0.231762 -0.713292 0
    endloop
  endfacet
  facet normal 0 0 -1
    outer loop
      vertex 7.5 -7.5 0
      vertex 0.0783958 -0.745891 0
      vertex 0.155933 -0.73361 0
    endloop
  endfacet
  facet normal 0 0 -1
    outer loop
      vertex 7.5 -7.5 0
      vertex 0 -0.75 0
      vertex 0.0783958 -0.745891 0
    endloop
  endfacet
  facet normal 0 0 -1
    outer loop
      vertex -7.5 -7.5 0
      vertex 0 -0.75 0
      vertex 7.5 -7.5 0
    endloop
  endfacet
  facet normal -0 0 -1
    outer loop
      vertex 0 -0.75 0
      vertex -7.5 -7.5 0
      vertex -0.0783958 -0.745891 0
    endloop
  endfacet
  facet normal -0 0 -1
    outer loop
      vertex -0.0783958 -0.745891 0
      vertex -7.5 -7.5 0
      vertex -0.155933 -0.73361 0
    endloop
  endfacet
  facet normal -0 0 -1
    outer loop
      vertex -0.155933 -0.73361 0
      vertex -7.5 -7.5 0
      vertex -0.231762 -0.713292 0
    endloop
  endfacet
  facet normal -0 0 -1
    outer loop
      vertex -0.231762 -0.713292 0
      vertex -7.5 -7.5 0
      vertex -0.305052 -0.685159 0
    endloop
  endfacet
  facet normal -0 0 -1
    outer loop
      vertex -0.305052 -0.685159 0
      vertex -7.5 -7.5 0
      vertex -0.375 -0.649519 0
    endloop
  endfacet
  facet normal -0 0 -1
    outer loop
      vertex -0.375 -0.649519 0
      vertex -7.5 -7.5 0
      vertex -0.440839 -0.606762 0
    endloop
  endfacet
  facet normal -0 0 -1
    outer loop
      vertex -0.745891 -0.0783958 0
      vertex -7.5 -7.5 0
      vertex -0.75 0 0
    endloop
  endfacet
  facet normal -0 0 -1
    outer loop
      vertex -0.73361 -0.155933 0
      vertex -7.5 -7.5 0
      vertex -0.745891 -0.0783958 0
    endloop
  endfacet
  facet normal -0 0 -1
    outer loop
      vertex -0.713292 -0.231762 0
      vertex -7.5 -7.5 0
      vertex -0.73361 -0.155933 0
    endloop
  endfacet
  facet normal -0 0 -1
    outer loop
      vertex -0.685159 -0.305052 0
      vertex -7.5 -7.5 0
      vertex -0.713292 -0.231762 0
    endloop
  endfacet
  facet normal -0 0 -1
    outer loop
      vertex -0.649519 -0.374999 0
      vertex -7.5 -7.5 0
      vertex -0.685159 -0.305052 0
    endloop
  endfacet
  facet normal -0 0 -1
    outer loop
      vertex -0.606762 -0.440839 0
      vertex -7.5 -7.5 0
      vertex -0.649519 -0.374999 0
    endloop
  endfacet
  facet normal -0 0 -1
    outer loop
      vertex -0.557358 -0.501847 0
      vertex -7.5 -7.5 0
      vertex -0.606762 -0.440839 0
    endloop
  endfacet
  facet normal -0 0 -1
    outer loop
      vertex -0.501847 -0.557358 0
      vertex -7.5 -7.5 0
      vertex -0.557358 -0.501847 0
    endloop
  endfacet
  facet normal -0 0 -1
    outer loop
      vertex -0.440839 -0.606762 0
      vertex -7.5 -7.5 0
      vertex -0.501847 -0.557358 0
    endloop
  endfacet
  facet normal 0 0 -1
    outer loop
      vertex 0.745891 0.0783958 0
      vertex 7.5 7.5 0
      vertex 0.75 0 0
    endloop
  endfacet
  facet normal 0 0 -1
    outer loop
      vertex 0.73361 0.155933 0
      vertex 7.5 7.5 0
      vertex 0.745891 0.0783958 0
    endloop
  endfacet
  facet normal 0 0 -1
    outer loop
      vertex 0.713292 0.231762 0
      vertex 7.5 7.5 0
      vertex 0.73361 0.155933 0
    endloop
  endfacet
  facet normal 0 0 -1
    outer loop
      vertex 0.685159 0.305052 0
      vertex 7.5 7.5 0
      vertex 0.713292 0.231762 0
    endloop
  endfacet
  facet normal 0 0 -1
    outer loop
      vertex 0.649519 0.374999 0
      vertex 7.5 7.5 0
      vertex 0.685159 0.305052 0
    endloop
  endfacet
  facet normal 0 0 -1
    outer loop
      vertex 0.606762 0.440839 0
      vertex 7.5 7.5 0
      vertex 0.649519 0.374999 0
    endloop
  endfacet
  facet normal 0 0 -1
    outer loop
      vertex 0.557358 0.501847 0
      vertex 7.5 7.5 0
      vertex 0.606762 0.440839 0
    endloop
  endfacet
  facet normal 0 0 -1
    outer loop
      vertex 0.501847 0.557358 0
      vertex 7.5 7.5 0
      vertex 0.557358 0.501847 0
    endloop
  endfacet
  facet normal 0 0 -1
    outer loop
      vertex 0.440839 0.606762 0
      vertex 7.5 7.5 0
      vertex 0.501847 0.557358 0
    endloop
  endfacet
  facet normal 0 0 -1
    outer loop
      vertex 0.375 0.649519 0
      vertex 7.5 7.5 0
      vertex 0.440839 0.606762 0
    endloop
  endfacet
  facet normal 0 0 -1
    outer loop
      vertex 0.305052 0.685159 0
      vertex 7.5 7.5 0
      vertex 0.375 0.649519 0
    endloop
  endfacet
  facet normal 0 0 -1
    outer loop
      vertex 0.231762 0.713292 0
      vertex 7.5 7.5 0
      vertex 0.305052 0.685159 0
    endloop
  endfacet
  facet normal 0 0 -1
    outer loop
      vertex 0.155933 0.73361 0
      vertex 7.5 7.5 0
      vertex 0.231762 0.713292 0
    endloop
  endfacet
  facet normal 0 0 -1
    outer loop
      vertex 0.0783958 0.745891 0
      vertex 7.5 7.5 0
      vertex 0.155933 0.73361 0
    endloop
  endfacet
  facet normal 0 0 -1
    outer loop
      vertex 0 0.75 0
      vertex 7.5 7.5 0
      vertex 0.0783958 0.745891 0
    endloop
  endfacet
  facet normal 0 0 -1
    outer loop
      vertex -7.5 7.5 0
      vertex 0 0.75 0
      vertex -0.0783958 0.745891 0
    endloop
  endfacet
  facet normal 0 0 -1
    outer loop
      vertex -7.5 7.5 0
      vertex -0.0783958 0.745891 0
      vertex -0.155933 0.73361 0
    endloop
  endfacet
  facet normal 0 0 -1
    outer loop
      vertex -7.5 7.5 0
      vertex -0.155933 0.73361 0
      vertex -0.231762 0.713292 0
    endloop
  endfacet
  facet normal 0 0 -1
    outer loop
      vertex -7.5 7.5 0
      vertex -0.231762 0.713292 0
      vertex -0.305052 0.685159 0
    endloop
  endfacet
  facet normal 0 0 -1
    outer loop
      vertex -7.5 7.5 0
      vertex -0.305052 0.685159 0
      vertex -0.374999 0.649519 0
    endloop
  endfacet
  facet normal 0 0 -1
    outer loop
      vertex -7.5 7.5 0
      vertex -0.374999 0.649519 0
      vertex -0.440839 0.606762 0
    endloop
  endfacet
  facet normal 0 0 -1
    outer loop
      vertex -7.5 7.5 0
      vertex -0.440839 0.606762 0
      vertex -0.501847 0.557358 0
    endloop
  endfacet
  facet normal 0 0 -1
    outer loop
      vertex -7.5 7.5 0
      vertex -0.75 0 0
      vertex -7.5 -7.5 0
    endloop
  endfacet
  facet normal 0 0 -1
    outer loop
      vertex -0.75 0 0
      vertex -7.5 7.5 0
      vertex -0.745891 0.0783958 0
    endloop
  endfacet
  facet normal 0 0 -1
    outer loop
      vertex -0.745891 0.0783958 0
      vertex -7.5 7.5 0
      vertex -0.73361 0.155933 0
    endloop
  endfacet
  facet normal 0 0 -1
    outer loop
      vertex -0.73361 0.155933 0
      vertex -7.5 7.5 0
      vertex -0.713292 0.231762 0
    endloop
  endfacet
  facet normal 0 0 -1
    outer loop
      vertex -0.713292 0.231762 0
      vertex -7.5 7.5 0
      vertex -0.685159 0.305052 0
    endloop
  endfacet
  facet normal 0 0 -1
    outer loop
      vertex -0.685159 0.305052 0
      vertex -7.5 7.5 0
      vertex -0.649519 0.374999 0
    endloop
  endfacet
  facet normal 0 0 -1
    outer loop
      vertex -0.649519 0.374999 0
      vertex -7.5 7.5 0
      vertex -0.606762 0.440839 0
    endloop
  endfacet
  facet normal 0 0 -1
    outer loop
      vertex 0 0.75 0
      vertex -7.5 7.5 0
      vertex 7.5 7.5 0
    endloop
  endfacet
  facet normal 0 0 -1
    outer loop
      vertex -0.557358 0.501847 0
      vertex -7.5 7.5 0
      vertex -0.501847 0.557358 0
    endloop
  endfacet
  facet normal 0 0 -1
    outer loop
      vertex -0.606762 0.440839 0
      vertex -7.5 7.5 0
      vertex -0.557358 0.501847 0
    endloop
  endfacet
  facet normal 0 -1 0
    outer loop
      vertex -7.5 -7.5 0
      vertex 7.5 -7.5 30
      vertex -7.5 -7.5 30
    endloop
  endfacet
  facet normal 0 -1 -0
    outer loop
      vertex 7.5 -7.5 30
      vertex -7.5 -7.5 0
      vertex 7.5 -7.5 0
    endloop
  endfacet
  facet normal 0 1 -0
    outer loop
      vertex 7.5 7.5 0
      vertex -7.5 7.5 30
      vertex 7.5 7.5 30
    endloop
  endfacet
  facet normal 0 1 0
    outer loop
      vertex -7.5 7.5 30
      vertex 7.5 7.5 0
      vertex -7.5 7.5 0
    endloop
  endfacet
  facet normal -0.998629 -0.0523465 0
    outer loop
      vertex 0.75 0 0
      vertex 0.745891 0.0783958 16
      vertex 0.745891 0.0783958 0
    endloop
  endfacet
  facet normal -0.998629 -0.0523465 0
    outer loop
      vertex 0.745891 0.0783958 16
      vertex 0.75 0 0
      vertex 0.75 0 16
    endloop
  endfacet
  facet normal 0.998629 -0.0523465 0
    outer loop
      vertex -0.75 0 16
      vertex -0.745891 0.0783958 0
      vertex -0.745891 0.0783958 16
    endloop
  endfacet
  facet normal 0.998629 -0.0523465 0
    outer loop
      vertex -0.745891 0.0783958 0
      vertex -0.75 0 16
      vertex -0.75 0 0
    endloop
  endfacet
  facet normal -0.0523465 -0.998629 0
    outer loop
      vertex 0 0.75 0
      vertex 0.0783958 0.745891 16
      vertex 0 0.75 16
    endloop
  endfacet
  facet normal -0.0523465 -0.998629 -0
    outer loop
      vertex 0.0783958 0.745891 16
      vertex 0 0.75 0
      vertex 0.0783958 0.745891 0
    endloop
  endfacet
  facet normal 0.0523465 0.998629 -0
    outer loop
      vertex 0 -0.75 0
      vertex -0.0783958 -0.745891 16
      vertex 0 -0.75 16
    endloop
  endfacet
  facet normal 0.0523465 0.998629 0
    outer loop
      vertex -0.0783958 -0.745891 16
      vertex 0 -0.75 0
      vertex -0.0783958 -0.745891 0
    endloop
  endfacet
  facet normal -0.707107 -0.707107 0
    outer loop
      vertex 0.557358 0.501847 0
      vertex 0.501847 0.557358 16
      vertex 0.501847 0.557358 0
    endloop
  endfacet
  facet normal -0.707107 -0.707107 0
    outer loop
      vertex 0.501847 0.557358 16
      vertex 0.557358 0.501847 0
      vertex 0.557358 0.501847 16
    endloop
  endfacet
  facet normal 0.629324 -0.777143 0
    outer loop
      vertex -0.501847 0.557358 0
      vertex -0.440839 0.606762 16
      vertex -0.501847 0.557358 16
    endloop
  endfacet
  facet normal 0.629324 -0.777143 0
    outer loop
      vertex -0.440839 0.606762 16
      vertex -0.501847 0.557358 0
      vertex -0.440839 0.606762 0
    endloop
  endfacet
  facet normal 0.358368 -0.93358 0
    outer loop
      vertex -0.305052 0.685159 0
      vertex -0.231762 0.713292 16
      vertex -0.305052 0.685159 16
    endloop
  endfacet
  facet normal 0.358368 -0.93358 0
    outer loop
      vertex -0.231762 0.713292 16
      vertex -0.305052 0.685159 0
      vertex -0.231762 0.713292 0
    endloop
  endfacet
  facet normal 0.965926 0.258817 0
    outer loop
      vertex -0.713292 -0.231762 16
      vertex -0.73361 -0.155933 0
      vertex -0.73361 -0.155933 16
    endloop
  endfacet
  facet normal 0.965926 0.258817 0
    outer loop
      vertex -0.73361 -0.155933 0
      vertex -0.713292 -0.231762 16
      vertex -0.713292 -0.231762 0
    endloop
  endfacet
  facet normal -0.891007 -0.453989 0
    outer loop
      vertex 0.685159 0.305052 0
      vertex 0.649519 0.374999 16
      vertex 0.649519 0.374999 0
    endloop
  endfacet
  facet normal -0.891007 -0.453989 0
    outer loop
      vertex 0.649519 0.374999 16
      vertex 0.685159 0.305052 0
      vertex 0.685159 0.305052 16
    endloop
  endfacet
  facet normal -0.838669 -0.544641 0
    outer loop
      vertex 0.649519 0.374999 0
      vertex 0.606762 0.440839 16
      vertex 0.606762 0.440839 0
    endloop
  endfacet
  facet normal -0.838669 -0.544641 0
    outer loop
      vertex 0.606762 0.440839 16
      vertex 0.649519 0.374999 0
      vertex 0.649519 0.374999 16
    endloop
  endfacet
  facet normal -0.453984 -0.89101 0
    outer loop
      vertex 0.305052 0.685159 0
      vertex 0.375 0.649519 16
      vertex 0.305052 0.685159 16
    endloop
  endfacet
  facet normal -0.453984 -0.89101 -0
    outer loop
      vertex 0.375 0.649519 16
      vertex 0.305052 0.685159 0
      vertex 0.375 0.649519 0
    endloop
  endfacet
  facet normal -0.544646 -0.838666 0
    outer loop
      vertex 0.375 0.649519 0
      vertex 0.440839 0.606762 16
      vertex 0.375 0.649519 16
    endloop
  endfacet
  facet normal -0.544646 -0.838666 -0
    outer loop
      vertex 0.440839 0.606762 16
      vertex 0.375 0.649519 0
      vertex 0.440839 0.606762 0
    endloop
  endfacet
  facet normal 0.838669 -0.544641 0
    outer loop
      vertex -0.649519 0.374999 16
      vertex -0.606762 0.440839 0
      vertex -0.606762 0.440839 16
    endloop
  endfacet
  facet normal 0.838669 -0.544641 0
    outer loop
      vertex -0.606762 0.440839 0
      vertex -0.649519 0.374999 16
      vertex -0.649519 0.374999 0
    endloop
  endfacet
  facet normal 0.777143 -0.629324 0
    outer loop
      vertex -0.606762 0.440839 16
      vertex -0.557358 0.501847 0
      vertex -0.557358 0.501847 16
    endloop
  endfacet
  facet normal 0.777143 -0.629324 0
    outer loop
      vertex -0.557358 0.501847 0
      vertex -0.606762 0.440839 16
      vertex -0.606762 0.440839 0
    endloop
  endfacet
  facet normal 0.453989 -0.891007 0
    outer loop
      vertex -0.374999 0.649519 0
      vertex -0.305052 0.685159 16
      vertex -0.374999 0.649519 16
    endloop
  endfacet
  facet normal 0.453989 -0.891007 0
    outer loop
      vertex -0.305052 0.685159 16
      vertex -0.374999 0.649519 0
      vertex -0.305052 0.685159 0
    endloop
  endfacet
  facet normal 0.156431 -0.987689 0
    outer loop
      vertex -0.155933 0.73361 0
      vertex -0.0783958 0.745891 16
      vertex -0.155933 0.73361 16
    endloop
  endfacet
  facet normal 0.156431 -0.987689 0
    outer loop
      vertex -0.0783958 0.745891 16
      vertex -0.155933 0.73361 0
      vertex -0.0783958 0.745891 0
    endloop
  endfacet
  facet normal -0.891007 0.453989 0
    outer loop
      vertex 0.649519 -0.374999 0
      vertex 0.685159 -0.305052 16
      vertex 0.685159 -0.305052 0
    endloop
  endfacet
  facet normal -0.891007 0.453989 0
    outer loop
      vertex 0.685159 -0.305052 16
      vertex 0.649519 -0.374999 0
      vertex 0.649519 -0.374999 16
    endloop
  endfacet
  facet normal -0.258817 0.965926 0
    outer loop
      vertex 0.231762 -0.713292 0
      vertex 0.155933 -0.73361 16
      vertex 0.231762 -0.713292 16
    endloop
  endfacet
  facet normal -0.258817 0.965926 0
    outer loop
      vertex 0.155933 -0.73361 16
      vertex 0.231762 -0.713292 0
      vertex 0.155933 -0.73361 0
    endloop
  endfacet
  facet normal -0.707107 0.707107 0
    outer loop
      vertex 0.501847 -0.557358 0
      vertex 0.557358 -0.501847 16
      vertex 0.557358 -0.501847 0
    endloop
  endfacet
  facet normal -0.707107 0.707107 0
    outer loop
      vertex 0.557358 -0.501847 16
      vertex 0.501847 -0.557358 0
      vertex 0.501847 -0.557358 16
    endloop
  endfacet
  facet normal -0.965926 0.258817 0
    outer loop
      vertex 0.713292 -0.231762 0
      vertex 0.73361 -0.155933 16
      vertex 0.73361 -0.155933 0
    endloop
  endfacet
  facet normal -0.965926 0.258817 0
    outer loop
      vertex 0.73361 -0.155933 16
      vertex 0.713292 -0.231762 0
      vertex 0.713292 -0.231762 16
    endloop
  endfacet
  facet normal 0.358368 0.93358 -0
    outer loop
      vertex -0.231762 -0.713292 0
      vertex -0.305052 -0.685159 16
      vertex -0.231762 -0.713292 16
    endloop
  endfacet
  facet normal 0.358368 0.93358 0
    outer loop
      vertex -0.305052 -0.685159 16
      vertex -0.231762 -0.713292 0
      vertex -0.305052 -0.685159 0
    endloop
  endfacet
  facet normal 0.891007 0.453989 0
    outer loop
      vertex -0.649519 -0.374999 16
      vertex -0.685159 -0.305052 0
      vertex -0.685159 -0.305052 16
    endloop
  endfacet
  facet normal 0.891007 0.453989 0
    outer loop
      vertex -0.685159 -0.305052 0
      vertex -0.649519 -0.374999 16
      vertex -0.649519 -0.374999 0
    endloop
  endfacet
  facet normal 0.838669 0.544641 0
    outer loop
      vertex -0.606762 -0.440839 16
      vertex -0.649519 -0.374999 0
      vertex -0.649519 -0.374999 16
    endloop
  endfacet
  facet normal 0.838669 0.544641 0
    outer loop
      vertex -0.649519 -0.374999 0
      vertex -0.606762 -0.440839 16
      vertex -0.606762 -0.440839 0
    endloop
  endfacet
  facet normal -0.965926 -0.258817 0
    outer loop
      vertex 0.73361 0.155933 0
      vertex 0.713292 0.231762 16
      vertex 0.713292 0.231762 0
    endloop
  endfacet
  facet normal -0.965926 -0.258817 0
    outer loop
      vertex 0.713292 0.231762 16
      vertex 0.73361 0.155933 0
      vertex 0.73361 0.155933 16
    endloop
  endfacet
  facet normal -0.987689 -0.156431 0
    outer loop
      vertex 0.745891 0.0783958 0
      vertex 0.73361 0.155933 16
      vertex 0.73361 0.155933 0
    endloop
  endfacet
  facet normal -0.987689 -0.156431 0
    outer loop
      vertex 0.73361 0.155933 16
      vertex 0.745891 0.0783958 0
      vertex 0.745891 0.0783958 16
    endloop
  endfacet
  facet normal -0.93358 -0.358368 0
    outer loop
      vertex 0.713292 0.231762 0
      vertex 0.685159 0.305052 16
      vertex 0.685159 0.305052 0
    endloop
  endfacet
  facet normal -0.93358 -0.358368 0
    outer loop
      vertex 0.685159 0.305052 16
      vertex 0.713292 0.231762 0
      vertex 0.713292 0.231762 16
    endloop
  endfacet
  facet normal -0.258817 -0.965926 0
    outer loop
      vertex 0.155933 0.73361 0
      vertex 0.231762 0.713292 16
      vertex 0.155933 0.73361 16
    endloop
  endfacet
  facet normal -0.258817 -0.965926 -0
    outer loop
      vertex 0.231762 0.713292 16
      vertex 0.155933 0.73361 0
      vertex 0.231762 0.713292 0
    endloop
  endfacet
  facet normal -0.358368 -0.93358 0
    outer loop
      vertex 0.231762 0.713292 0
      vertex 0.305052 0.685159 16
      vertex 0.231762 0.713292 16
    endloop
  endfacet
  facet normal -0.358368 -0.93358 -0
    outer loop
      vertex 0.305052 0.685159 16
      vertex 0.231762 0.713292 0
      vertex 0.305052 0.685159 0
    endloop
  endfacet
  facet normal -0.156431 -0.987689 0
    outer loop
      vertex 0.0783958 0.745891 0
      vertex 0.155933 0.73361 16
      vertex 0.0783958 0.745891 16
    endloop
  endfacet
  facet normal -0.156431 -0.987689 -0
    outer loop
      vertex 0.155933 0.73361 16
      vertex 0.0783958 0.745891 0
      vertex 0.155933 0.73361 0
    endloop
  endfacet
  facet normal -0.629324 -0.777143 0
    outer loop
      vertex 0.440839 0.606762 0
      vertex 0.501847 0.557358 16
      vertex 0.440839 0.606762 16
    endloop
  endfacet
  facet normal -0.629324 -0.777143 -0
    outer loop
      vertex 0.501847 0.557358 16
      vertex 0.440839 0.606762 0
      vertex 0.501847 0.557358 0
    endloop
  endfacet
  facet normal 0.965926 -0.258817 0
    outer loop
      vertex -0.73361 0.155933 16
      vertex -0.713292 0.231762 0
      vertex -0.713292 0.231762 16
    endloop
  endfacet
  facet normal 0.965926 -0.258817 0
    outer loop
      vertex -0.713292 0.231762 0
      vertex -0.73361 0.155933 16
      vertex -0.73361 0.155933 0
    endloop
  endfacet
  facet normal 0.891007 -0.453989 0
    outer loop
      vertex -0.685159 0.305052 16
      vertex -0.649519 0.374999 0
      vertex -0.649519 0.374999 16
    endloop
  endfacet
  facet normal 0.891007 -0.453989 0
    outer loop
      vertex -0.649519 0.374999 0
      vertex -0.685159 0.305052 16
      vertex -0.685159 0.305052 0
    endloop
  endfacet
  facet normal 0.93358 -0.358368 0
    outer loop
      vertex -0.713292 0.231762 16
      vertex -0.685159 0.305052 0
      vertex -0.685159 0.305052 16
    endloop
  endfacet
  facet normal 0.93358 -0.358368 0
    outer loop
      vertex -0.685159 0.305052 0
      vertex -0.713292 0.231762 16
      vertex -0.713292 0.231762 0
    endloop
  endfacet
  facet normal 0.987689 -0.156431 0
    outer loop
      vertex -0.745891 0.0783958 16
      vertex -0.73361 0.155933 0
      vertex -0.73361 0.155933 16
    endloop
  endfacet
  facet normal 0.987689 -0.156431 0
    outer loop
      vertex -0.73361 0.155933 0
      vertex -0.745891 0.0783958 16
      vertex -0.745891 0.0783958 0
    endloop
  endfacet
  facet normal 0.0523465 -0.998629 0
    outer loop
      vertex -0.0783958 0.745891 0
      vertex 0 0.75 16
      vertex -0.0783958 0.745891 16
    endloop
  endfacet
  facet normal 0.0523465 -0.998629 0
    outer loop
      vertex 0 0.75 16
      vertex -0.0783958 0.745891 0
      vertex 0 0.75 0
    endloop
  endfacet
  facet normal -0.0523465 0.998629 0
    outer loop
      vertex 0.0783958 -0.745891 0
      vertex 0 -0.75 16
      vertex 0.0783958 -0.745891 16
    endloop
  endfacet
  facet normal -0.0523465 0.998629 0
    outer loop
      vertex 0 -0.75 16
      vertex 0.0783958 -0.745891 0
      vertex 0 -0.75 0
    endloop
  endfacet
  facet normal -0.453984 0.89101 0
    outer loop
      vertex 0.375 -0.649519 0
      vertex 0.305052 -0.685159 16
      vertex 0.375 -0.649519 16
    endloop
  endfacet
  facet normal -0.453984 0.89101 0
    outer loop
      vertex 0.305052 -0.685159 16
      vertex 0.375 -0.649519 0
      vertex 0.305052 -0.685159 0
    endloop
  endfacet
  facet normal -0.629324 0.777143 0
    outer loop
      vertex 0.501847 -0.557358 0
      vertex 0.440839 -0.606762 16
      vertex 0.501847 -0.557358 16
    endloop
  endfacet
  facet normal -0.629324 0.777143 0
    outer loop
      vertex 0.440839 -0.606762 16
      vertex 0.501847 -0.557358 0
      vertex 0.440839 -0.606762 0
    endloop
  endfacet
  facet normal -0.544646 0.838666 0
    outer loop
      vertex 0.440839 -0.606762 0
      vertex 0.375 -0.649519 16
      vertex 0.440839 -0.606762 16
    endloop
  endfacet
  facet normal -0.544646 0.838666 0
    outer loop
      vertex 0.375 -0.649519 16
      vertex 0.440839 -0.606762 0
      vertex 0.375 -0.649519 0
    endloop
  endfacet
  facet normal -0.777143 0.629324 0
    outer loop
      vertex 0.557358 -0.501847 0
      vertex 0.606762 -0.440839 16
      vertex 0.606762 -0.440839 0
    endloop
  endfacet
  facet normal -0.777143 0.629324 0
    outer loop
      vertex 0.606762 -0.440839 16
      vertex 0.557358 -0.501847 0
      vertex 0.557358 -0.501847 16
    endloop
  endfacet
  facet normal -0.838669 0.544641 0
    outer loop
      vertex 0.606762 -0.440839 0
      vertex 0.649519 -0.374999 16
      vertex 0.649519 -0.374999 0
    endloop
  endfacet
  facet normal -0.838669 0.544641 0
    outer loop
      vertex 0.649519 -0.374999 16
      vertex 0.606762 -0.440839 0
      vertex 0.606762 -0.440839 16
    endloop
  endfacet
  facet normal 0.707107 0.707107 0
    outer loop
      vertex -0.501847 -0.557358 16
      vertex -0.557358 -0.501847 0
      vertex -0.557358 -0.501847 16
    endloop
  endfacet
  facet normal 0.707107 0.707107 0
    outer loop
      vertex -0.557358 -0.501847 0
      vertex -0.501847 -0.557358 16
      vertex -0.501847 -0.557358 0
    endloop
  endfacet
  facet normal 0.629324 0.777143 -0
    outer loop
      vertex -0.440839 -0.606762 0
      vertex -0.501847 -0.557358 16
      vertex -0.440839 -0.606762 16
    endloop
  endfacet
  facet normal 0.629324 0.777143 0
    outer loop
      vertex -0.501847 -0.557358 16
      vertex -0.440839 -0.606762 0
      vertex -0.501847 -0.557358 0
    endloop
  endfacet
  facet normal 0.544646 0.838666 -0
    outer loop
      vertex -0.375 -0.649519 0
      vertex -0.440839 -0.606762 16
      vertex -0.375 -0.649519 16
    endloop
  endfacet
  facet normal 0.544646 0.838666 0
    outer loop
      vertex -0.440839 -0.606762 16
      vertex -0.375 -0.649519 0
      vertex -0.440839 -0.606762 0
    endloop
  endfacet
  facet normal 0.156431 0.987689 -0
    outer loop
      vertex -0.0783958 -0.745891 0
      vertex -0.155933 -0.73361 16
      vertex -0.0783958 -0.745891 16
    endloop
  endfacet
  facet normal 0.156431 0.987689 0
    outer loop
      vertex -0.155933 -0.73361 16
      vertex -0.0783958 -0.745891 0
      vertex -0.155933 -0.73361 0
    endloop
  endfacet
  facet normal 0.777143 0.629324 0
    outer loop
      vertex -0.557358 -0.501847 16
      vertex -0.606762 -0.440839 0
      vertex -0.606762 -0.440839 16
    endloop
  endfacet
  facet normal 0.777143 0.629324 0
    outer loop
      vertex -0.606762 -0.440839 0
      vertex -0.557358 -0.501847 16
      vertex -0.557358 -0.501847 0
    endloop
  endfacet
  facet normal 0.998629 0.0523465 0
    outer loop
      vertex -0.745891 -0.0783958 16
      vertex -0.75 0 0
      vertex -0.75 0 16
    endloop
  endfacet
  facet normal 0.998629 0.0523465 0
    outer loop
      vertex -0.75 0 0
      vertex -0.745891 -0.0783958 16
      vertex -0.745891 -0.0783958 0
    endloop
  endfacet
  facet normal -0.777143 -0.629324 0
    outer loop
      vertex 0.606762 0.440839 0
      vertex 0.557358 0.501847 16
      vertex 0.557358 0.501847 0
    endloop
  endfacet
  facet normal -0.777143 -0.629324 0
    outer loop
      vertex 0.557358 0.501847 16
      vertex 0.606762 0.440839 0
      vertex 0.606762 0.440839 16
    endloop
  endfacet
  facet normal 0.707107 -0.707107 0
    outer loop
      vertex -0.557358 0.501847 16
      vertex -0.501847 0.557358 0
      vertex -0.501847 0.557358 16
    endloop
  endfacet
  facet normal 0.707107 -0.707107 0
    outer loop
      vertex -0.501847 0.557358 0
      vertex -0.557358 0.501847 16
      vertex -0.557358 0.501847 0
    endloop
  endfacet
  facet normal 0.544641 -0.838669 0
    outer loop
      vertex -0.440839 0.606762 0
      vertex -0.374999 0.649519 16
      vertex -0.440839 0.606762 16
    endloop
  endfacet
  facet normal 0.544641 -0.838669 0
    outer loop
      vertex -0.374999 0.649519 16
      vertex -0.440839 0.606762 0
      vertex -0.374999 0.649519 0
    endloop
  endfacet
  facet normal 0.258817 -0.965926 0
    outer loop
      vertex -0.231762 0.713292 0
      vertex -0.155933 0.73361 16
      vertex -0.231762 0.713292 16
    endloop
  endfacet
  facet normal 0.258817 -0.965926 0
    outer loop
      vertex -0.155933 0.73361 16
      vertex -0.231762 0.713292 0
      vertex -0.155933 0.73361 0
    endloop
  endfacet
  facet normal -0.156431 0.987689 0
    outer loop
      vertex 0.155933 -0.73361 0
      vertex 0.0783958 -0.745891 16
      vertex 0.155933 -0.73361 16
    endloop
  endfacet
  facet normal -0.156431 0.987689 0
    outer loop
      vertex 0.0783958 -0.745891 16
      vertex 0.155933 -0.73361 0
      vertex 0.0783958 -0.745891 0
    endloop
  endfacet
  facet normal -0.358368 0.93358 0
    outer loop
      vertex 0.305052 -0.685159 0
      vertex 0.231762 -0.713292 16
      vertex 0.305052 -0.685159 16
    endloop
  endfacet
  facet normal -0.358368 0.93358 0
    outer loop
      vertex 0.231762 -0.713292 16
      vertex 0.305052 -0.685159 0
      vertex 0.231762 -0.713292 0
    endloop
  endfacet
  facet normal -0.93358 0.358368 0
    outer loop
      vertex 0.685159 -0.305052 0
      vertex 0.713292 -0.231762 16
      vertex 0.713292 -0.231762 0
    endloop
  endfacet
  facet normal -0.93358 0.358368 0
    outer loop
      vertex 0.713292 -0.231762 16
      vertex 0.685159 -0.305052 0
      vertex 0.685159 -0.305052 16
    endloop
  endfacet
  facet normal -0.987689 0.156431 0
    outer loop
      vertex 0.73361 -0.155933 0
      vertex 0.745891 -0.0783958 16
      vertex 0.745891 -0.0783958 0
    endloop
  endfacet
  facet normal -0.987689 0.156431 0
    outer loop
      vertex 0.745891 -0.0783958 16
      vertex 0.73361 -0.155933 0
      vertex 0.73361 -0.155933 16
    endloop
  endfacet
  facet normal -0.998629 0.0523465 0
    outer loop
      vertex 0.745891 -0.0783958 0
      vertex 0.75 0 16
      vertex 0.75 0 0
    endloop
  endfacet
  facet normal -0.998629 0.0523465 0
    outer loop
      vertex 0.75 0 16
      vertex 0.745891 -0.0783958 0
      vertex 0.745891 -0.0783958 16
    endloop
  endfacet
  facet normal 0.453984 0.89101 -0
    outer loop
      vertex -0.305052 -0.685159 0
      vertex -0.375 -0.649519 16
      vertex -0.305052 -0.685159 16
    endloop
  endfacet
  facet normal 0.453984 0.89101 0
    outer loop
      vertex -0.375 -0.649519 16
      vertex -0.305052 -0.685159 0
      vertex -0.375 -0.649519 0
    endloop
  endfacet
  facet normal 0.258817 0.965926 -0
    outer loop
      vertex -0.155933 -0.73361 0
      vertex -0.231762 -0.713292 16
      vertex -0.155933 -0.73361 16
    endloop
  endfacet
  facet normal 0.258817 0.965926 0
    outer loop
      vertex -0.231762 -0.713292 16
      vertex -0.155933 -0.73361 0
      vertex -0.231762 -0.713292 0
    endloop
  endfacet
  facet normal 0.93358 0.358368 0
    outer loop
      vertex -0.685159 -0.305052 16
      vertex -0.713292 -0.231762 0
      vertex -0.713292 -0.231762 16
    endloop
  endfacet
  facet normal 0.93358 0.358368 0
    outer loop
      vertex -0.713292 -0.231762 0
      vertex -0.685159 -0.305052 16
      vertex -0.685159 -0.305052 0
    endloop
  endfacet
  facet normal 0.987689 0.156431 0
    outer loop
      vertex -0.73361 -0.155933 16
      vertex -0.745891 -0.0783958 0
      vertex -0.745891 -0.0783958 16
    endloop
  endfacet
  facet normal 0.987689 0.156431 0
    outer loop
      vertex -0.745891 -0.0783958 0
      vertex -0.73361 -0.155933 16
      vertex -0.73361 -0.155933 0
    endloop
  endfacet
  facet normal -0.706227 0.706227 0.0498693
    outer loop
      vertex 2.34196 -2.60101 16
      vertex 3.12121 -2.81035 30
      vertex 2.60101 -2.34196 16
    endloop
  endfacet
  facet normal -0.706227 0.706227 0.0498693
    outer loop
      vertex 3.12121 -2.81035 30
      vertex 2.34196 -2.60101 16
      vertex 2.81035 -3.12121 30
    endloop
  endfacet
  facet normal -0.997387 -0.0522712 0.0498693
    outer loop
      vertex 4.2 0 30
      vertex 4.17827 0.414629 30
      vertex 3.5 0 16
    endloop
  endfacet
  facet normal -0.997388 -0.0522586 0.0498693
    outer loop
      vertex 3.48083 0.365849 16
      vertex 4.17827 0.414629 30
      vertex 4.17699 0.439019 30
    endloop
  endfacet
  facet normal -0.997387 -0.0522716 0.0498693
    outer loop
      vertex 4.17827 0.414629 30
      vertex 3.48083 0.365849 16
      vertex 3.5 0 16
    endloop
  endfacet
  facet normal -0.997387 0.0522716 0.0498693
    outer loop
      vertex 3.48083 -0.365849 16
      vertex 4.17827 -0.414629 30
      vertex 3.5 0 16
    endloop
  endfacet
  facet normal -0.997388 0.0522586 0.0498693
    outer loop
      vertex 4.17827 -0.414629 30
      vertex 3.48083 -0.365849 16
      vertex 4.17699 -0.439019 30
    endloop
  endfacet
  facet normal 0.997387 0.0522716 0.0498693
    outer loop
      vertex -4.17827 -0.414629 30
      vertex -3.48083 -0.365849 16
      vertex -3.5 0 16
    endloop
  endfacet
  facet normal 0.997388 0.0522586 0.0498693
    outer loop
      vertex -3.48083 -0.365849 16
      vertex -4.17827 -0.414629 30
      vertex -4.17699 -0.439019 30
    endloop
  endfacet
  facet normal 0.997388 -0.0522586 0.0498693
    outer loop
      vertex -4.17827 0.414629 30
      vertex -3.48083 0.365849 16
      vertex -4.17699 0.439019 30
    endloop
  endfacet
  facet normal 0.997387 -0.0522716 0.0498693
    outer loop
      vertex -3.48083 0.365849 16
      vertex -4.17827 0.414629 30
      vertex -3.5 0 16
    endloop
  endfacet
  facet normal -0.0522712 0.997387 0.0498693
    outer loop
      vertex 0.414629 -4.17827 30
      vertex 0 -3.5 16
      vertex 0 -4.2 30
    endloop
  endfacet
  facet normal -0.986459 0.156241 0.0498693
    outer loop
      vertex 4.10822 -0.873228 30
      vertex 4.17317 -0.463142 30
      vertex 3.42352 -0.727691 16
    endloop
  endfacet
  facet normal 0.0522716 0.997387 0.0498693
    outer loop
      vertex -0.365849 -3.48083 16
      vertex -0.414629 -4.17827 30
      vertex 0 -3.5 16
    endloop
  endfacet
  facet normal 0.0522586 0.997388 0.0498693
    outer loop
      vertex -0.414629 -4.17827 30
      vertex -0.365849 -3.48083 16
      vertex -0.439019 -4.17699 30
    endloop
  endfacet
  facet normal 0.986459 0.156241 0.0498693
    outer loop
      vertex -4.10822 -0.873228 30
      vertex -3.42352 -0.727691 16
      vertex -4.17317 -0.463142 30
    endloop
  endfacet
  facet normal -0.0522716 -0.997387 0.0498693
    outer loop
      vertex 0.365849 3.48083 16
      vertex 0.414629 4.17827 30
      vertex 0 3.5 16
    endloop
  endfacet
  facet normal -0.0522586 -0.997388 0.0498693
    outer loop
      vertex 0.414629 4.17827 30
      vertex 0.365849 3.48083 16
      vertex 0.439019 4.17699 30
    endloop
  endfacet
  facet normal 0.0522586 -0.997388 0.0498693
    outer loop
      vertex -0.365849 3.48083 16
      vertex -0.414629 4.17827 30
      vertex -0.439019 4.17699 30
    endloop
  endfacet
  facet normal 0.0522716 -0.997387 0.0498693
    outer loop
      vertex -0.414629 4.17827 30
      vertex -0.365849 3.48083 16
      vertex 0 3.5 16
    endloop
  endfacet
  facet normal 0.837627 -0.543961 0.0498693
    outer loop
      vertex -3.03109 1.75 16
      vertex -3.41117 2.44821 30
      vertex -3.63731 2.1 30
    endloop
  endfacet
  facet normal -0.932419 0.357922 0.0498693
    outer loop
      vertex 3.83689 -1.70829 30
      vertex 3.98568 -1.32067 30
      vertex 3.19741 -1.42358 16
    endloop
  endfacet
  facet normal -0.997387 0.0522712 0.0498693
    outer loop
      vertex 4.17827 -0.414629 30
      vertex 4.2 0 30
      vertex 3.5 0 16
    endloop
  endfacet
  facet normal -0.889898 0.453425 0.0498693
    outer loop
      vertex 3.03109 -1.75 16
      vertex 3.64839 -2.07824 30
      vertex 3.19741 -1.42358 16
    endloop
  endfacet
  facet normal -0.889896 0.45343 0.0498693
    outer loop
      vertex 3.64839 -2.07824 30
      vertex 3.03109 -1.75 16
      vertex 3.63731 -2.1 30
    endloop
  endfacet
  facet normal -0.776179 0.628537 0.0498694
    outer loop
      vertex 2.60101 -2.34196 16
      vertex 3.39787 -2.4687 30
      vertex 2.83156 -2.05725 16
    endloop
  endfacet
  facet normal -0.776179 0.628538 0.0498693
    outer loop
      vertex 3.39787 -2.4687 30
      vertex 2.60101 -2.34196 16
      vertex 3.3825 -2.48768 30
    endloop
  endfacet
  facet normal -0.837627 0.543961 0.0498693
    outer loop
      vertex 3.41117 -2.44821 30
      vertex 3.63731 -2.1 30
      vertex 3.03109 -1.75 16
    endloop
  endfacet
  facet normal -0.889898 0.453425 0.0498693
    outer loop
      vertex 3.64839 -2.07824 30
      vertex 3.83689 -1.70829 30
      vertex 3.19741 -1.42358 16
    endloop
  endfacet
  facet normal 0.964724 0.258498 0.0498693
    outer loop
      vertex -4.00076 -1.27428 30
      vertex -3.3287 -1.08156 16
      vertex -3.42352 -0.727691 16
    endloop
  endfacet
  facet normal 0.964725 0.258494 0.0498693
    outer loop
      vertex -3.3287 -1.08156 16
      vertex -4.00076 -1.27428 30
      vertex -3.99444 -1.29787 30
    endloop
  endfacet
  facet normal 0.837627 0.543961 0.0498693
    outer loop
      vertex -3.41117 -2.44821 30
      vertex -3.03109 -1.75 16
      vertex -3.63731 -2.1 30
    endloop
  endfacet
  facet normal 0.156241 0.986459 0.0498693
    outer loop
      vertex -0.463142 -4.17317 30
      vertex -0.727691 -3.42352 16
      vertex -0.873228 -4.10822 30
    endloop
  endfacet
  facet normal 0.0522712 0.997387 0.0498693
    outer loop
      vertex 0 -4.2 30
      vertex 0 -3.5 16
      vertex -0.414629 -4.17827 30
    endloop
  endfacet
  facet normal -0.837627 -0.543961 0.0498693
    outer loop
      vertex 3.63731 2.1 30
      vertex 3.41117 2.44821 30
      vertex 3.03109 1.75 16
    endloop
  endfacet
  facet normal 0.628538 -0.776178 0.0498693
    outer loop
      vertex -2.34196 2.60101 16
      vertex -2.48768 3.3825 30
      vertex -2.81035 3.12121 30
    endloop
  endfacet
  facet normal 0.156241 -0.986459 0.0498693
    outer loop
      vertex -0.727691 3.42352 16
      vertex -0.463142 4.17317 30
      vertex -0.873228 4.10822 30
    endloop
  endfacet
  facet normal 0.258494 -0.964725 0.0498693
    outer loop
      vertex -1.08156 3.3287 16
      vertex -1.27428 4.00076 30
      vertex -1.29787 3.99444 30
    endloop
  endfacet
  facet normal 0.258498 -0.964724 0.0498693
    outer loop
      vertex -1.27428 4.00076 30
      vertex -1.08156 3.3287 16
      vertex -0.727691 3.42352 16
    endloop
  endfacet
  facet normal 0.986459 -0.156241 0.0498693
    outer loop
      vertex -3.42352 0.727691 16
      vertex -4.10822 0.873228 30
      vertex -4.17317 0.463142 30
    endloop
  endfacet
  facet normal -0.986458 0.156249 0.0498693
    outer loop
      vertex 3.48083 -0.365849 16
      vertex 4.17317 -0.463142 30
      vertex 4.17699 -0.439019 30
    endloop
  endfacet
  facet normal -0.986459 0.15624 0.0498693
    outer loop
      vertex 4.17317 -0.463142 30
      vertex 3.48083 -0.365849 16
      vertex 3.42352 -0.727691 16
    endloop
  endfacet
  facet normal -0.964724 0.258497 0.0498693
    outer loop
      vertex 4.00076 -1.27428 30
      vertex 4.10822 -0.873228 30
      vertex 3.42352 -0.727691 16
    endloop
  endfacet
  facet normal -0.776178 0.628538 0.0498693
    outer loop
      vertex 3.12121 -2.81035 30
      vertex 3.3825 -2.48768 30
      vertex 2.60101 -2.34196 16
    endloop
  endfacet
  facet normal -0.837627 0.543961 0.0498693
    outer loop
      vertex 2.83156 -2.05725 16
      vertex 3.41117 -2.44821 30
      vertex 3.03109 -1.75 16
    endloop
  endfacet
  facet normal -0.837632 0.543953 0.0498693
    outer loop
      vertex 3.41117 -2.44821 30
      vertex 2.83156 -2.05725 16
      vertex 3.39787 -2.4687 30
    endloop
  endfacet
  facet normal -0.543962 0.837627 0.0498693
    outer loop
      vertex 2.1 -3.63731 30
      vertex 2.44821 -3.41117 30
      vertex 1.75 -3.03109 16
    endloop
  endfacet
  facet normal -0.258497 0.964724 0.0498693
    outer loop
      vertex 0.873228 -4.10822 30
      vertex 1.27428 -4.00076 30
      vertex 0.727691 -3.42352 16
    endloop
  endfacet
  facet normal 0 0 1
    outer loop
      vertex 0.75 0 16
      vertex 3.5 0 16
      vertex 3.48083 0.365849 16
    endloop
  endfacet
  facet normal 0 0 1
    outer loop
      vertex 0.745891 0.0783958 16
      vertex 3.48083 0.365849 16
      vertex 3.42352 0.727691 16
    endloop
  endfacet
  facet normal 0 0 1
    outer loop
      vertex 3.5 0 16
      vertex 0.75 0 16
      vertex 3.48083 -0.365849 16
    endloop
  endfacet
  facet normal 0 0 1
    outer loop
      vertex 0.73361 0.155933 16
      vertex 3.42352 0.727691 16
      vertex 3.3287 1.08156 16
    endloop
  endfacet
  facet normal -0 0 1
    outer loop
      vertex 0.745891 -0.0783958 16
      vertex 3.48083 -0.365849 16
      vertex 0.75 0 16
    endloop
  endfacet
  facet normal 0 0 1
    outer loop
      vertex 0.713292 0.231762 16
      vertex 3.3287 1.08156 16
      vertex 3.19741 1.42358 16
    endloop
  endfacet
  facet normal 0 0 1
    outer loop
      vertex 3.48083 -0.365849 16
      vertex 0.745891 -0.0783958 16
      vertex 3.42352 -0.727691 16
    endloop
  endfacet
  facet normal 0 0 1
    outer loop
      vertex 0.685159 0.305052 16
      vertex 3.19741 1.42358 16
      vertex 3.03109 1.75 16
    endloop
  endfacet
  facet normal -0 0 1
    outer loop
      vertex 0.73361 -0.155933 16
      vertex 3.42352 -0.727691 16
      vertex 0.745891 -0.0783958 16
    endloop
  endfacet
  facet normal 0 0 1
    outer loop
      vertex 0.649519 0.374999 16
      vertex 3.03109 1.75 16
      vertex 2.83156 2.05725 16
    endloop
  endfacet
  facet normal 0 0 1
    outer loop
      vertex 3.42352 -0.727691 16
      vertex 0.73361 -0.155933 16
      vertex 3.3287 -1.08156 16
    endloop
  endfacet
  facet normal 0 0 1
    outer loop
      vertex 0.606762 0.440839 16
      vertex 2.83156 2.05725 16
      vertex 2.60101 2.34196 16
    endloop
  endfacet
  facet normal -0 0 1
    outer loop
      vertex 0.713292 -0.231762 16
      vertex 3.3287 -1.08156 16
      vertex 0.73361 -0.155933 16
    endloop
  endfacet
  facet normal 0 0 1
    outer loop
      vertex 0.557358 0.501847 16
      vertex 2.60101 2.34196 16
      vertex 2.34196 2.60101 16
    endloop
  endfacet
  facet normal 0 0 1
    outer loop
      vertex 3.3287 -1.08156 16
      vertex 0.713292 -0.231762 16
      vertex 3.19741 -1.42358 16
    endloop
  endfacet
  facet normal 0 0 1
    outer loop
      vertex 0.501847 0.557358 16
      vertex 2.34196 2.60101 16
      vertex 2.05725 2.83156 16
    endloop
  endfacet
  facet normal -0 0 1
    outer loop
      vertex 0.685159 -0.305052 16
      vertex 3.19741 -1.42358 16
      vertex 0.713292 -0.231762 16
    endloop
  endfacet
  facet normal 0 0 1
    outer loop
      vertex 0.440839 0.606762 16
      vertex 2.05725 2.83156 16
      vertex 1.75 3.03109 16
    endloop
  endfacet
  facet normal 0 0 1
    outer loop
      vertex 3.19741 -1.42358 16
      vertex 0.685159 -0.305052 16
      vertex 3.03109 -1.75 16
    endloop
  endfacet
  facet normal 0 0 1
    outer loop
      vertex 0.375 0.649519 16
      vertex 1.75 3.03109 16
      vertex 1.42358 3.19741 16
    endloop
  endfacet
  facet normal -0 0 1
    outer loop
      vertex 0.649519 -0.374999 16
      vertex 3.03109 -1.75 16
      vertex 0.685159 -0.305052 16
    endloop
  endfacet
  facet normal 0 0 1
    outer loop
      vertex 0.305052 0.685159 16
      vertex 1.42358 3.19741 16
      vertex 1.08156 3.3287 16
    endloop
  endfacet
  facet normal 0 0 1
    outer loop
      vertex 3.03109 -1.75 16
      vertex 0.649519 -0.374999 16
      vertex 2.83156 -2.05725 16
    endloop
  endfacet
  facet normal -0 0 1
    outer loop
      vertex 0.606762 -0.440839 16
      vertex 2.83156 -2.05725 16
      vertex 0.649519 -0.374999 16
    endloop
  endfacet
  facet normal 0 0 1
    outer loop
      vertex 3.48083 0.365849 16
      vertex 0.745891 0.0783958 16
      vertex 0.75 0 16
    endloop
  endfacet
  facet normal 0 0 1
    outer loop
      vertex 3.42352 0.727691 16
      vertex 0.73361 0.155933 16
      vertex 0.745891 0.0783958 16
    endloop
  endfacet
  facet normal 0 0 1
    outer loop
      vertex 0.231762 0.713292 16
      vertex 1.08156 3.3287 16
      vertex 0.727691 3.42352 16
    endloop
  endfacet
  facet normal 0 0 1
    outer loop
      vertex 3.3287 1.08156 16
      vertex 0.713292 0.231762 16
      vertex 0.73361 0.155933 16
    endloop
  endfacet
  facet normal 0 0 1
    outer loop
      vertex 3.19741 1.42358 16
      vertex 0.685159 0.305052 16
      vertex 0.713292 0.231762 16
    endloop
  endfacet
  facet normal 0 0 1
    outer loop
      vertex 3.03109 1.75 16
      vertex 0.649519 0.374999 16
      vertex 0.685159 0.305052 16
    endloop
  endfacet
  facet normal 0 0 1
    outer loop
      vertex 2.83156 2.05725 16
      vertex 0.606762 0.440839 16
      vertex 0.649519 0.374999 16
    endloop
  endfacet
  facet normal 0 0 1
    outer loop
      vertex 2.60101 2.34196 16
      vertex 0.557358 0.501847 16
      vertex 0.606762 0.440839 16
    endloop
  endfacet
  facet normal 0 0 1
    outer loop
      vertex 2.34196 2.60101 16
      vertex 0.501847 0.557358 16
      vertex 0.557358 0.501847 16
    endloop
  endfacet
  facet normal 0 0 1
    outer loop
      vertex 2.05725 2.83156 16
      vertex 0.440839 0.606762 16
      vertex 0.501847 0.557358 16
    endloop
  endfacet
  facet normal 0 0 1
    outer loop
      vertex 1.75 3.03109 16
      vertex 0.375 0.649519 16
      vertex 0.440839 0.606762 16
    endloop
  endfacet
  facet normal 0 0 1
    outer loop
      vertex 0.155933 0.73361 16
      vertex 0.727691 3.42352 16
      vertex 0.365849 3.48083 16
    endloop
  endfacet
  facet normal 0 0 1
    outer loop
      vertex 1.42358 3.19741 16
      vertex 0.305052 0.685159 16
      vertex 0.375 0.649519 16
    endloop
  endfacet
  facet normal 0 0 1
    outer loop
      vertex 1.08156 3.3287 16
      vertex 0.231762 0.713292 16
      vertex 0.305052 0.685159 16
    endloop
  endfacet
  facet normal 0 0 1
    outer loop
      vertex 0.727691 3.42352 16
      vertex 0.155933 0.73361 16
      vertex 0.231762 0.713292 16
    endloop
  endfacet
  facet normal 0 0 1
    outer loop
      vertex 0.365849 3.48083 16
      vertex 0.0783958 0.745891 16
      vertex 0.155933 0.73361 16
    endloop
  endfacet
  facet normal 0 0 1
    outer loop
      vertex 0 3.5 16
      vertex 0.0783958 0.745891 16
      vertex 0.365849 3.48083 16
    endloop
  endfacet
  facet normal 0 0 1
    outer loop
      vertex 0 3.5 16
      vertex 0 0.75 16
      vertex 0.0783958 0.745891 16
    endloop
  endfacet
  facet normal 0 0 1
    outer loop
      vertex 0 3.5 16
      vertex -0.0783958 0.745891 16
      vertex 0 0.75 16
    endloop
  endfacet
  facet normal -0 0 1
    outer loop
      vertex -0.365849 3.48083 16
      vertex -0.0783958 0.745891 16
      vertex 0 3.5 16
    endloop
  endfacet
  facet normal 0 0 1
    outer loop
      vertex -0.0783958 0.745891 16
      vertex -0.365849 3.48083 16
      vertex -0.155933 0.73361 16
    endloop
  endfacet
  facet normal -0 0 1
    outer loop
      vertex -0.727691 3.42352 16
      vertex -0.155933 0.73361 16
      vertex -0.365849 3.48083 16
    endloop
  endfacet
  facet normal 0 0 1
    outer loop
      vertex -0.155933 0.73361 16
      vertex -0.727691 3.42352 16
      vertex -0.231762 0.713292 16
    endloop
  endfacet
  facet normal -0 0 1
    outer loop
      vertex -1.08156 3.3287 16
      vertex -0.231762 0.713292 16
      vertex -0.727691 3.42352 16
    endloop
  endfacet
  facet normal 0 0 1
    outer loop
      vertex -0.231762 0.713292 16
      vertex -1.08156 3.3287 16
      vertex -0.305052 0.685159 16
    endloop
  endfacet
  facet normal -0 0 1
    outer loop
      vertex -1.42358 3.19741 16
      vertex -0.305052 0.685159 16
      vertex -1.08156 3.3287 16
    endloop
  endfacet
  facet normal 0 0 1
    outer loop
      vertex -0.305052 0.685159 16
      vertex -1.42358 3.19741 16
      vertex -0.374999 0.649519 16
    endloop
  endfacet
  facet normal -0 0 1
    outer loop
      vertex -1.75 3.03109 16
      vertex -0.374999 0.649519 16
      vertex -1.42358 3.19741 16
    endloop
  endfacet
  facet normal 0 0 1
    outer loop
      vertex -0.374999 0.649519 16
      vertex -1.75 3.03109 16
      vertex -0.440839 0.606762 16
    endloop
  endfacet
  facet normal -0 0 1
    outer loop
      vertex -2.05725 2.83156 16
      vertex -0.440839 0.606762 16
      vertex -1.75 3.03109 16
    endloop
  endfacet
  facet normal 0 0 1
    outer loop
      vertex -0.440839 0.606762 16
      vertex -2.05725 2.83156 16
      vertex -0.501847 0.557358 16
    endloop
  endfacet
  facet normal -0 0 1
    outer loop
      vertex -2.34196 2.60101 16
      vertex -0.501847 0.557358 16
      vertex -2.05725 2.83156 16
    endloop
  endfacet
  facet normal 0 0 1
    outer loop
      vertex -0.501847 0.557358 16
      vertex -2.34196 2.60101 16
      vertex -0.557358 0.501847 16
    endloop
  endfacet
  facet normal -0 0 1
    outer loop
      vertex -2.60101 2.34196 16
      vertex -0.557358 0.501847 16
      vertex -2.34196 2.60101 16
    endloop
  endfacet
  facet normal 0 0 1
    outer loop
      vertex -0.557358 0.501847 16
      vertex -2.60101 2.34196 16
      vertex -0.606762 0.440839 16
    endloop
  endfacet
  facet normal -0 0 1
    outer loop
      vertex -2.83156 2.05725 16
      vertex -0.606762 0.440839 16
      vertex -2.60101 2.34196 16
    endloop
  endfacet
  facet normal 0 0 1
    outer loop
      vertex 2.83156 -2.05725 16
      vertex 0.606762 -0.440839 16
      vertex 2.60101 -2.34196 16
    endloop
  endfacet
  facet normal -0 0 1
    outer loop
      vertex 0.557358 -0.501847 16
      vertex 2.60101 -2.34196 16
      vertex 0.606762 -0.440839 16
    endloop
  endfacet
  facet normal 0 0 1
    outer loop
      vertex 2.60101 -2.34196 16
      vertex 0.557358 -0.501847 16
      vertex 2.34196 -2.60101 16
    endloop
  endfacet
  facet normal -0 0 1
    outer loop
      vertex 0.501847 -0.557358 16
      vertex 2.34196 -2.60101 16
      vertex 0.557358 -0.501847 16
    endloop
  endfacet
  facet normal 0 0 1
    outer loop
      vertex 2.34196 -2.60101 16
      vertex 0.501847 -0.557358 16
      vertex 2.05725 -2.83156 16
    endloop
  endfacet
  facet normal -0 0 1
    outer loop
      vertex 0.440839 -0.606762 16
      vertex 2.05725 -2.83156 16
      vertex 0.501847 -0.557358 16
    endloop
  endfacet
  facet normal 0 0 1
    outer loop
      vertex 2.05725 -2.83156 16
      vertex 0.440839 -0.606762 16
      vertex 1.75 -3.03109 16
    endloop
  endfacet
  facet normal -0 0 1
    outer loop
      vertex 0.375 -0.649519 16
      vertex 1.75 -3.03109 16
      vertex 0.440839 -0.606762 16
    endloop
  endfacet
  facet normal 0 0 1
    outer loop
      vertex 1.75 -3.03109 16
      vertex 0.375 -0.649519 16
      vertex 1.42358 -3.19741 16
    endloop
  endfacet
  facet normal -0 0 1
    outer loop
      vertex 0.305052 -0.685159 16
      vertex 1.42358 -3.19741 16
      vertex 0.375 -0.649519 16
    endloop
  endfacet
  facet normal 0 0 1
    outer loop
      vertex 1.42358 -3.19741 16
      vertex 0.305052 -0.685159 16
      vertex 1.08156 -3.3287 16
    endloop
  endfacet
  facet normal -0 0 1
    outer loop
      vertex 0.231762 -0.713292 16
      vertex 1.08156 -3.3287 16
      vertex 0.305052 -0.685159 16
    endloop
  endfacet
  facet normal 0 0 1
    outer loop
      vertex 1.08156 -3.3287 16
      vertex 0.231762 -0.713292 16
      vertex 0.727691 -3.42352 16
    endloop
  endfacet
  facet normal -0 0 1
    outer loop
      vertex 0.155933 -0.73361 16
      vertex 0.727691 -3.42352 16
      vertex 0.231762 -0.713292 16
    endloop
  endfacet
  facet normal 0 0 1
    outer loop
      vertex 0.727691 -3.42352 16
      vertex 0.155933 -0.73361 16
      vertex 0.365849 -3.48083 16
    endloop
  endfacet
  facet normal -0 0 1
    outer loop
      vertex 0.0783958 -0.745891 16
      vertex 0.365849 -3.48083 16
      vertex 0.155933 -0.73361 16
    endloop
  endfacet
  facet normal -0 0 1
    outer loop
      vertex 0 -0.75 16
      vertex 0.365849 -3.48083 16
      vertex 0.0783958 -0.745891 16
    endloop
  endfacet
  facet normal 0 0 1
    outer loop
      vertex 0 -0.75 16
      vertex 0 -3.5 16
      vertex 0.365849 -3.48083 16
    endloop
  endfacet
  facet normal 0 0 1
    outer loop
      vertex -0.0783958 -0.745891 16
      vertex 0 -3.5 16
      vertex 0 -0.75 16
    endloop
  endfacet
  facet normal 0 0 1
    outer loop
      vertex -0.365849 -3.48083 16
      vertex -0.0783958 -0.745891 16
      vertex -0.155933 -0.73361 16
    endloop
  endfacet
  facet normal 0 0 1
    outer loop
      vertex -0.727691 -3.42352 16
      vertex -0.155933 -0.73361 16
      vertex -0.231762 -0.713292 16
    endloop
  endfacet
  facet normal 0 0 1
    outer loop
      vertex -1.08156 -3.3287 16
      vertex -0.231762 -0.713292 16
      vertex -0.305052 -0.685159 16
    endloop
  endfacet
  facet normal 0 0 1
    outer loop
      vertex -0.0783958 -0.745891 16
      vertex -0.365849 -3.48083 16
      vertex 0 -3.5 16
    endloop
  endfacet
  facet normal 0 0 1
    outer loop
      vertex -1.42358 -3.19741 16
      vertex -0.305052 -0.685159 16
      vertex -0.375 -0.649519 16
    endloop
  endfacet
  facet normal 0 0 1
    outer loop
      vertex -1.75 -3.03109 16
      vertex -0.375 -0.649519 16
      vertex -0.440839 -0.606762 16
    endloop
  endfacet
  facet normal 0 0 1
    outer loop
      vertex -2.05725 -2.83156 16
      vertex -0.440839 -0.606762 16
      vertex -0.501847 -0.557358 16
    endloop
  endfacet
  facet normal 0 0 1
    outer loop
      vertex -2.34196 -2.60101 16
      vertex -0.501847 -0.557358 16
      vertex -0.557358 -0.501847 16
    endloop
  endfacet
  facet normal 0 0 1
    outer loop
      vertex -2.60101 -2.34196 16
      vertex -0.557358 -0.501847 16
      vertex -0.606762 -0.440839 16
    endloop
  endfacet
  facet normal 0 0 1
    outer loop
      vertex -2.83156 -2.05725 16
      vertex -0.606762 -0.440839 16
      vertex -0.649519 -0.374999 16
    endloop
  endfacet
  facet normal 0 0 1
    outer loop
      vertex -3.03109 -1.75 16
      vertex -0.649519 -0.374999 16
      vertex -0.685159 -0.305052 16
    endloop
  endfacet
  facet normal 0 0 1
    outer loop
      vertex -3.19741 -1.42358 16
      vertex -0.685159 -0.305052 16
      vertex -0.713292 -0.231762 16
    endloop
  endfacet
  facet normal 0 0 1
    outer loop
      vertex -0.155933 -0.73361 16
      vertex -0.727691 -3.42352 16
      vertex -0.365849 -3.48083 16
    endloop
  endfacet
  facet normal 0 0 1
    outer loop
      vertex -3.3287 -1.08156 16
      vertex -0.713292 -0.231762 16
      vertex -0.73361 -0.155933 16
    endloop
  endfacet
  facet normal 0 0 1
    outer loop
      vertex -3.42352 -0.727691 16
      vertex -0.73361 -0.155933 16
      vertex -0.745891 -0.0783958 16
    endloop
  endfacet
  facet normal 0 0 1
    outer loop
      vertex -3.48083 -0.365849 16
      vertex -0.745891 -0.0783958 16
      vertex -0.75 0 16
    endloop
  endfacet
  facet normal 0 0 1
    outer loop
      vertex -0.606762 0.440839 16
      vertex -2.83156 2.05725 16
      vertex -0.649519 0.374999 16
    endloop
  endfacet
  facet normal 0 0 1
    outer loop
      vertex -0.231762 -0.713292 16
      vertex -1.08156 -3.3287 16
      vertex -0.727691 -3.42352 16
    endloop
  endfacet
  facet normal -0 0 1
    outer loop
      vertex -3.03109 1.75 16
      vertex -0.649519 0.374999 16
      vertex -2.83156 2.05725 16
    endloop
  endfacet
  facet normal 0 0 1
    outer loop
      vertex -0.305052 -0.685159 16
      vertex -1.42358 -3.19741 16
      vertex -1.08156 -3.3287 16
    endloop
  endfacet
  facet normal 0 0 1
    outer loop
      vertex -0.649519 0.374999 16
      vertex -3.03109 1.75 16
      vertex -0.685159 0.305052 16
    endloop
  endfacet
  facet normal 0 0 1
    outer loop
      vertex -0.375 -0.649519 16
      vertex -1.75 -3.03109 16
      vertex -1.42358 -3.19741 16
    endloop
  endfacet
  facet normal -0 0 1
    outer loop
      vertex -3.19741 1.42358 16
      vertex -0.685159 0.305052 16
      vertex -3.03109 1.75 16
    endloop
  endfacet
  facet normal 0 0 1
    outer loop
      vertex -0.440839 -0.606762 16
      vertex -2.05725 -2.83156 16
      vertex -1.75 -3.03109 16
    endloop
  endfacet
  facet normal 0 0 1
    outer loop
      vertex -0.685159 0.305052 16
      vertex -3.19741 1.42358 16
      vertex -0.713292 0.231762 16
    endloop
  endfacet
  facet normal 0 0 1
    outer loop
      vertex -0.501847 -0.557358 16
      vertex -2.34196 -2.60101 16
      vertex -2.05725 -2.83156 16
    endloop
  endfacet
  facet normal -0 0 1
    outer loop
      vertex -3.3287 1.08156 16
      vertex -0.713292 0.231762 16
      vertex -3.19741 1.42358 16
    endloop
  endfacet
  facet normal 0 0 1
    outer loop
      vertex -0.557358 -0.501847 16
      vertex -2.60101 -2.34196 16
      vertex -2.34196 -2.60101 16
    endloop
  endfacet
  facet normal 0 0 1
    outer loop
      vertex -0.713292 0.231762 16
      vertex -3.3287 1.08156 16
      vertex -0.73361 0.155933 16
    endloop
  endfacet
  facet normal 0 0 1
    outer loop
      vertex -0.606762 -0.440839 16
      vertex -2.83156 -2.05725 16
      vertex -2.60101 -2.34196 16
    endloop
  endfacet
  facet normal -0 0 1
    outer loop
      vertex -3.42352 0.727691 16
      vertex -0.73361 0.155933 16
      vertex -3.3287 1.08156 16
    endloop
  endfacet
  facet normal 0 0 1
    outer loop
      vertex -0.649519 -0.374999 16
      vertex -3.03109 -1.75 16
      vertex -2.83156 -2.05725 16
    endloop
  endfacet
  facet normal 0 0 1
    outer loop
      vertex -0.73361 0.155933 16
      vertex -3.42352 0.727691 16
      vertex -0.745891 0.0783958 16
    endloop
  endfacet
  facet normal 0 0 1
    outer loop
      vertex -0.685159 -0.305052 16
      vertex -3.19741 -1.42358 16
      vertex -3.03109 -1.75 16
    endloop
  endfacet
  facet normal -0 0 1
    outer loop
      vertex -3.48083 0.365849 16
      vertex -0.745891 0.0783958 16
      vertex -3.42352 0.727691 16
    endloop
  endfacet
  facet normal 0 0 1
    outer loop
      vertex -0.713292 -0.231762 16
      vertex -3.3287 -1.08156 16
      vertex -3.19741 -1.42358 16
    endloop
  endfacet
  facet normal 0 0 1
    outer loop
      vertex -0.745891 0.0783958 16
      vertex -3.48083 0.365849 16
      vertex -0.75 0 16
    endloop
  endfacet
  facet normal 0 0 1
    outer loop
      vertex -0.73361 -0.155933 16
      vertex -3.42352 -0.727691 16
      vertex -3.3287 -1.08156 16
    endloop
  endfacet
  facet normal 0 0 1
    outer loop
      vertex -3.5 0 16
      vertex -0.75 0 16
      vertex -3.48083 0.365849 16
    endloop
  endfacet
  facet normal 0 0 1
    outer loop
      vertex -0.745891 -0.0783958 16
      vertex -3.48083 -0.365849 16
      vertex -3.42352 -0.727691 16
    endloop
  endfacet
  facet normal 0 0 1
    outer loop
      vertex -0.75 0 16
      vertex -3.5 0 16
      vertex -3.48083 -0.365849 16
    endloop
  endfacet
  facet normal 0.986458 0.156249 0.0498693
    outer loop
      vertex -4.17317 -0.463142 30
      vertex -3.48083 -0.365849 16
      vertex -4.17699 -0.439019 30
    endloop
  endfacet
  facet normal 0.986459 0.15624 0.0498693
    outer loop
      vertex -3.48083 -0.365849 16
      vertex -4.17317 -0.463142 30
      vertex -3.42352 -0.727691 16
    endloop
  endfacet
  facet normal 0.258498 0.964724 0.0498693
    outer loop
      vertex -1.08156 -3.3287 16
      vertex -1.27428 -4.00076 30
      vertex -0.727691 -3.42352 16
    endloop
  endfacet
  facet normal 0.258494 0.964725 0.0498693
    outer loop
      vertex -1.27428 -4.00076 30
      vertex -1.08156 -3.3287 16
      vertex -1.29787 -3.99444 30
    endloop
  endfacet
  facet normal 0.453424 0.889899 0.0498693
    outer loop
      vertex -1.73005 -3.8258 30
      vertex -1.75 -3.03109 16
      vertex -2.1 -3.63731 30
    endloop
  endfacet
  facet normal -0.543962 -0.837627 0.0498694
    outer loop
      vertex 2.05725 2.83156 16
      vertex 2.44821 3.41117 30
      vertex 1.75 3.03109 16
    endloop
  endfacet
  facet normal -0.543958 -0.83763 0.0498693
    outer loop
      vertex 2.44821 3.41117 30
      vertex 2.05725 2.83156 16
      vertex 2.4687 3.39787 30
    endloop
  endfacet
  facet normal 0.964725 -0.258494 0.0498693
    outer loop
      vertex -4.00076 1.27428 30
      vertex -3.3287 1.08156 16
      vertex -3.99444 1.29787 30
    endloop
  endfacet
  facet normal 0.964724 -0.258498 0.0498693
    outer loop
      vertex -3.3287 1.08156 16
      vertex -4.00076 1.27428 30
      vertex -3.42352 0.727691 16
    endloop
  endfacet
  facet normal 0.889896 -0.45343 0.0498693
    outer loop
      vertex -3.64839 2.07824 30
      vertex -3.03109 1.75 16
      vertex -3.63731 2.1 30
    endloop
  endfacet
  facet normal 0.889898 -0.453425 0.0498693
    outer loop
      vertex -3.03109 1.75 16
      vertex -3.64839 2.07824 30
      vertex -3.19741 1.42358 16
    endloop
  endfacet
  facet normal 0.15624 -0.986459 0.0498693
    outer loop
      vertex -0.365849 3.48083 16
      vertex -0.463142 4.17317 30
      vertex -0.727691 3.42352 16
    endloop
  endfacet
  facet normal 0.156249 -0.986458 0.0498693
    outer loop
      vertex -0.463142 4.17317 30
      vertex -0.365849 3.48083 16
      vertex -0.439019 4.17699 30
    endloop
  endfacet
  facet normal 0.997387 -0.0522712 0.0498693
    outer loop
      vertex -3.5 0 16
      vertex -4.17827 0.414629 30
      vertex -4.2 0 30
    endloop
  endfacet
  facet normal 0.997387 0.0522712 0.0498693
    outer loop
      vertex -4.17827 -0.414629 30
      vertex -3.5 0 16
      vertex -4.2 0 30
    endloop
  endfacet
  facet normal -0.964724 0.258498 0.0498693
    outer loop
      vertex 3.3287 -1.08156 16
      vertex 4.00076 -1.27428 30
      vertex 3.42352 -0.727691 16
    endloop
  endfacet
  facet normal -0.964725 0.258494 0.0498693
    outer loop
      vertex 4.00076 -1.27428 30
      vertex 3.3287 -1.08156 16
      vertex 3.99444 -1.29787 30
    endloop
  endfacet
  facet normal -0.932418 0.357923 0.0498693
    outer loop
      vertex 3.3287 -1.08156 16
      vertex 3.98568 -1.32067 30
      vertex 3.99444 -1.29787 30
    endloop
  endfacet
  facet normal -0.932419 0.357922 0.0498693
    outer loop
      vertex 3.98568 -1.32067 30
      vertex 3.3287 -1.08156 16
      vertex 3.19741 -1.42358 16
    endloop
  endfacet
  facet normal -0.357922 0.932419 0.0498693
    outer loop
      vertex 1.70829 -3.83689 30
      vertex 1.42358 -3.19741 16
      vertex 1.32067 -3.98568 30
    endloop
  endfacet
  facet normal -0.453424 0.889899 0.0498693
    outer loop
      vertex 2.1 -3.63731 30
      vertex 1.75 -3.03109 16
      vertex 1.73005 -3.8258 30
    endloop
  endfacet
  facet normal -0.453428 0.889897 0.0498692
    outer loop
      vertex 1.75 -3.03109 16
      vertex 1.70829 -3.83689 30
      vertex 1.73005 -3.8258 30
    endloop
  endfacet
  facet normal -0.453424 0.889899 0.0498693
    outer loop
      vertex 1.70829 -3.83689 30
      vertex 1.75 -3.03109 16
      vertex 1.42358 -3.19741 16
    endloop
  endfacet
  facet normal -0.628538 0.776179 0.0498693
    outer loop
      vertex 2.34196 -2.60101 16
      vertex 2.4687 -3.39787 30
      vertex 2.48768 -3.3825 30
    endloop
  endfacet
  facet normal -0.628537 0.776179 0.0498694
    outer loop
      vertex 2.4687 -3.39787 30
      vertex 2.34196 -2.60101 16
      vertex 2.05725 -2.83156 16
    endloop
  endfacet
  facet normal -0.628538 0.776178 0.0498693
    outer loop
      vertex 2.48768 -3.3825 30
      vertex 2.81035 -3.12121 30
      vertex 2.34196 -2.60101 16
    endloop
  endfacet
  facet normal -0.357923 0.932418 0.0498693
    outer loop
      vertex 1.42358 -3.19741 16
      vertex 1.29787 -3.99444 30
      vertex 1.32067 -3.98568 30
    endloop
  endfacet
  facet normal -0.357922 0.932419 0.0498693
    outer loop
      vertex 1.29787 -3.99444 30
      vertex 1.42358 -3.19741 16
      vertex 1.08156 -3.3287 16
    endloop
  endfacet
  facet normal -0.258494 0.964725 0.0498693
    outer loop
      vertex 1.08156 -3.3287 16
      vertex 1.27428 -4.00076 30
      vertex 1.29787 -3.99444 30
    endloop
  endfacet
  facet normal -0.258498 0.964724 0.0498693
    outer loop
      vertex 1.27428 -4.00076 30
      vertex 1.08156 -3.3287 16
      vertex 0.727691 -3.42352 16
    endloop
  endfacet
  facet normal -0.156241 0.986459 0.0498693
    outer loop
      vertex 0.873228 -4.10822 30
      vertex 0.727691 -3.42352 16
      vertex 0.463142 -4.17317 30
    endloop
  endfacet
  facet normal -0.15624 0.986459 0.0498693
    outer loop
      vertex 0.365849 -3.48083 16
      vertex 0.463142 -4.17317 30
      vertex 0.727691 -3.42352 16
    endloop
  endfacet
  facet normal -0.156249 0.986458 0.0498693
    outer loop
      vertex 0.463142 -4.17317 30
      vertex 0.365849 -3.48083 16
      vertex 0.439019 -4.17699 30
    endloop
  endfacet
  facet normal -0.0522586 0.997388 0.0498693
    outer loop
      vertex 0.365849 -3.48083 16
      vertex 0.414629 -4.17827 30
      vertex 0.439019 -4.17699 30
    endloop
  endfacet
  facet normal -0.0522716 0.997387 0.0498693
    outer loop
      vertex 0.414629 -4.17827 30
      vertex 0.365849 -3.48083 16
      vertex 0 -3.5 16
    endloop
  endfacet
  facet normal 0.156249 0.986458 0.0498693
    outer loop
      vertex -0.365849 -3.48083 16
      vertex -0.463142 -4.17317 30
      vertex -0.439019 -4.17699 30
    endloop
  endfacet
  facet normal 0.15624 0.986459 0.0498693
    outer loop
      vertex -0.463142 -4.17317 30
      vertex -0.365849 -3.48083 16
      vertex -0.727691 -3.42352 16
    endloop
  endfacet
  facet normal 0.258497 0.964724 0.0498693
    outer loop
      vertex -0.873228 -4.10822 30
      vertex -0.727691 -3.42352 16
      vertex -1.27428 -4.00076 30
    endloop
  endfacet
  facet normal 0.357923 0.932418 0.0498693
    outer loop
      vertex -1.08156 -3.3287 16
      vertex -1.32067 -3.98568 30
      vertex -1.29787 -3.99444 30
    endloop
  endfacet
  facet normal 0.357922 0.932419 0.0498693
    outer loop
      vertex -1.32067 -3.98568 30
      vertex -1.08156 -3.3287 16
      vertex -1.42358 -3.19741 16
    endloop
  endfacet
  facet normal 0.543962 0.837627 0.0498693
    outer loop
      vertex -2.1 -3.63731 30
      vertex -1.75 -3.03109 16
      vertex -2.44821 -3.41117 30
    endloop
  endfacet
  facet normal 0.357922 0.932419 0.0498693
    outer loop
      vertex -1.32067 -3.98568 30
      vertex -1.42358 -3.19741 16
      vertex -1.70829 -3.83689 30
    endloop
  endfacet
  facet normal 0.776179 0.628537 0.0498694
    outer loop
      vertex -3.39787 -2.4687 30
      vertex -2.60101 -2.34196 16
      vertex -2.83156 -2.05725 16
    endloop
  endfacet
  facet normal 0.776179 0.628538 0.0498693
    outer loop
      vertex -2.60101 -2.34196 16
      vertex -3.39787 -2.4687 30
      vertex -3.3825 -2.48768 30
    endloop
  endfacet
  facet normal 0.964724 0.258497 0.0498693
    outer loop
      vertex -4.00076 -1.27428 30
      vertex -3.42352 -0.727691 16
      vertex -4.10822 -0.873228 30
    endloop
  endfacet
  facet normal 0.932418 0.357923 0.0498693
    outer loop
      vertex -3.98568 -1.32067 30
      vertex -3.3287 -1.08156 16
      vertex -3.99444 -1.29787 30
    endloop
  endfacet
  facet normal 0.932419 0.357922 0.0498693
    outer loop
      vertex -3.3287 -1.08156 16
      vertex -3.98568 -1.32067 30
      vertex -3.19741 -1.42358 16
    endloop
  endfacet
  facet normal -0.543962 -0.837627 0.0498693
    outer loop
      vertex 2.44821 3.41117 30
      vertex 2.1 3.63731 30
      vertex 1.75 3.03109 16
    endloop
  endfacet
  facet normal -0.628537 -0.776179 0.0498694
    outer loop
      vertex 2.34196 2.60101 16
      vertex 2.4687 3.39787 30
      vertex 2.05725 2.83156 16
    endloop
  endfacet
  facet normal -0.628538 -0.776179 0.0498693
    outer loop
      vertex 2.4687 3.39787 30
      vertex 2.34196 2.60101 16
      vertex 2.48768 3.3825 30
    endloop
  endfacet
  facet normal -0.0522712 -0.997387 0.0498693
    outer loop
      vertex 0.414629 4.17827 30
      vertex 0 4.2 30
      vertex 0 3.5 16
    endloop
  endfacet
  facet normal 0.0522712 -0.997387 0.0498693
    outer loop
      vertex 0 3.5 16
      vertex 0 4.2 30
      vertex -0.414629 4.17827 30
    endloop
  endfacet
  facet normal 0.986458 -0.156249 0.0498693
    outer loop
      vertex -3.48083 0.365849 16
      vertex -4.17317 0.463142 30
      vertex -4.17699 0.439019 30
    endloop
  endfacet
  facet normal 0.986459 -0.15624 0.0498693
    outer loop
      vertex -4.17317 0.463142 30
      vertex -3.48083 0.365849 16
      vertex -3.42352 0.727691 16
    endloop
  endfacet
  facet normal 0.964724 -0.258497 0.0498693
    outer loop
      vertex -3.42352 0.727691 16
      vertex -4.00076 1.27428 30
      vertex -4.10822 0.873228 30
    endloop
  endfacet
  facet normal 0.543961 -0.837627 0.0498693
    outer loop
      vertex -1.75 3.03109 16
      vertex -2.1 3.63731 30
      vertex -2.44821 3.41117 30
    endloop
  endfacet
  facet normal 0.837632 -0.543953 0.0498693
    outer loop
      vertex -3.41117 2.44821 30
      vertex -2.83156 2.05725 16
      vertex -3.39787 2.4687 30
    endloop
  endfacet
  facet normal 0.837627 -0.543961 0.0498693
    outer loop
      vertex -2.83156 2.05725 16
      vertex -3.41117 2.44821 30
      vertex -3.03109 1.75 16
    endloop
  endfacet
  facet normal 0.776179 -0.628538 0.0498693
    outer loop
      vertex -3.39787 2.4687 30
      vertex -2.60101 2.34196 16
      vertex -3.3825 2.48768 30
    endloop
  endfacet
  facet normal 0.776179 -0.628537 0.0498694
    outer loop
      vertex -2.60101 2.34196 16
      vertex -3.39787 2.4687 30
      vertex -2.83156 2.05725 16
    endloop
  endfacet
  facet normal 0.258497 -0.964724 0.0498693
    outer loop
      vertex -0.727691 3.42352 16
      vertex -0.873228 4.10822 30
      vertex -1.27428 4.00076 30
    endloop
  endfacet
  facet normal 0.357923 -0.932418 0.0498693
    outer loop
      vertex -1.42358 3.19741 16
      vertex -1.29787 3.99444 30
      vertex -1.32067 3.98568 30
    endloop
  endfacet
  facet normal 0.357922 -0.932419 0.0498693
    outer loop
      vertex -1.29787 3.99444 30
      vertex -1.42358 3.19741 16
      vertex -1.08156 3.3287 16
    endloop
  endfacet
  facet normal -0.543958 0.83763 0.0498693
    outer loop
      vertex 2.05725 -2.83156 16
      vertex 2.44821 -3.41117 30
      vertex 2.4687 -3.39787 30
    endloop
  endfacet
  facet normal -0.543962 0.837627 0.0498694
    outer loop
      vertex 2.44821 -3.41117 30
      vertex 2.05725 -2.83156 16
      vertex 1.75 -3.03109 16
    endloop
  endfacet
  facet normal 0.628537 0.776179 0.0498694
    outer loop
      vertex -2.34196 -2.60101 16
      vertex -2.4687 -3.39787 30
      vertex -2.05725 -2.83156 16
    endloop
  endfacet
  facet normal 0.628538 0.776179 0.0498693
    outer loop
      vertex -2.4687 -3.39787 30
      vertex -2.34196 -2.60101 16
      vertex -2.48768 -3.3825 30
    endloop
  endfacet
  facet normal 0.628538 0.776178 0.0498693
    outer loop
      vertex -2.48768 -3.3825 30
      vertex -2.34196 -2.60101 16
      vertex -2.81035 -3.12121 30
    endloop
  endfacet
  facet normal 0.453424 0.889899 0.0498693
    outer loop
      vertex -1.75 -3.03109 16
      vertex -1.70829 -3.83689 30
      vertex -1.42358 -3.19741 16
    endloop
  endfacet
  facet normal 0.453428 0.889897 0.0498692
    outer loop
      vertex -1.70829 -3.83689 30
      vertex -1.75 -3.03109 16
      vertex -1.73005 -3.8258 30
    endloop
  endfacet
  facet normal 0.837627 0.543961 0.0498693
    outer loop
      vertex -3.41117 -2.44821 30
      vertex -2.83156 -2.05725 16
      vertex -3.03109 -1.75 16
    endloop
  endfacet
  facet normal 0.837632 0.543953 0.0498693
    outer loop
      vertex -2.83156 -2.05725 16
      vertex -3.41117 -2.44821 30
      vertex -3.39787 -2.4687 30
    endloop
  endfacet
  facet normal 0.776178 0.628538 0.0498693
    outer loop
      vertex -3.12121 -2.81035 30
      vertex -2.60101 -2.34196 16
      vertex -3.3825 -2.48768 30
    endloop
  endfacet
  facet normal 0.706227 0.706227 0.0498693
    outer loop
      vertex -3.12121 -2.81035 30
      vertex -2.34196 -2.60101 16
      vertex -2.60101 -2.34196 16
    endloop
  endfacet
  facet normal 0.706227 0.706227 0.0498693
    outer loop
      vertex -2.34196 -2.60101 16
      vertex -3.12121 -2.81035 30
      vertex -2.81035 -3.12121 30
    endloop
  endfacet
  facet normal 0.889898 0.453425 0.0498693
    outer loop
      vertex -3.64839 -2.07824 30
      vertex -3.03109 -1.75 16
      vertex -3.19741 -1.42358 16
    endloop
  endfacet
  facet normal 0.889896 0.45343 0.0498693
    outer loop
      vertex -3.03109 -1.75 16
      vertex -3.64839 -2.07824 30
      vertex -3.63731 -2.1 30
    endloop
  endfacet
  facet normal -0.889898 -0.453425 0.0498693
    outer loop
      vertex 3.83689 1.70829 30
      vertex 3.64839 2.07824 30
      vertex 3.19741 1.42358 16
    endloop
  endfacet
  facet normal -0.776178 -0.628538 0.0498693
    outer loop
      vertex 3.3825 2.48768 30
      vertex 3.12121 2.81035 30
      vertex 2.60101 2.34196 16
    endloop
  endfacet
  facet normal -0.628538 -0.776178 0.0498693
    outer loop
      vertex 2.81035 3.12121 30
      vertex 2.48768 3.3825 30
      vertex 2.34196 2.60101 16
    endloop
  endfacet
  facet normal -0.156249 -0.986458 0.0498693
    outer loop
      vertex 0.365849 3.48083 16
      vertex 0.463142 4.17317 30
      vertex 0.439019 4.17699 30
    endloop
  endfacet
  facet normal -0.15624 -0.986459 0.0498693
    outer loop
      vertex 0.463142 4.17317 30
      vertex 0.365849 3.48083 16
      vertex 0.727691 3.42352 16
    endloop
  endfacet
  facet normal -0.258497 -0.964724 0.0498693
    outer loop
      vertex 1.27428 4.00076 30
      vertex 0.873228 4.10822 30
      vertex 0.727691 3.42352 16
    endloop
  endfacet
  facet normal -0.156241 -0.986459 0.0498693
    outer loop
      vertex 0.727691 3.42352 16
      vertex 0.873228 4.10822 30
      vertex 0.463142 4.17317 30
    endloop
  endfacet
  facet normal -0.258498 -0.964724 0.0498693
    outer loop
      vertex 1.08156 3.3287 16
      vertex 1.27428 4.00076 30
      vertex 0.727691 3.42352 16
    endloop
  endfacet
  facet normal -0.258494 -0.964725 0.0498693
    outer loop
      vertex 1.27428 4.00076 30
      vertex 1.08156 3.3287 16
      vertex 1.29787 3.99444 30
    endloop
  endfacet
  facet normal -0.357923 -0.932418 0.0498693
    outer loop
      vertex 1.08156 3.3287 16
      vertex 1.32067 3.98568 30
      vertex 1.29787 3.99444 30
    endloop
  endfacet
  facet normal -0.357922 -0.932419 0.0498693
    outer loop
      vertex 1.32067 3.98568 30
      vertex 1.08156 3.3287 16
      vertex 1.42358 3.19741 16
    endloop
  endfacet
  facet normal -0.453424 -0.889899 0.0498693
    outer loop
      vertex 1.75 3.03109 16
      vertex 2.1 3.63731 30
      vertex 1.73005 3.8258 30
    endloop
  endfacet
  facet normal 0.932418 -0.357923 0.0498693
    outer loop
      vertex -3.99444 1.29787 30
      vertex -3.19741 1.42358 16
      vertex -3.98568 1.32067 30
    endloop
  endfacet
  facet normal 0.932419 -0.357922 0.0498693
    outer loop
      vertex -3.19741 1.42358 16
      vertex -3.99444 1.29787 30
      vertex -3.3287 1.08156 16
    endloop
  endfacet
  facet normal 0.706227 -0.706227 0.0498693
    outer loop
      vertex -3.12121 2.81035 30
      vertex -2.34196 2.60101 16
      vertex -2.81035 3.12121 30
    endloop
  endfacet
  facet normal 0.706227 -0.706227 0.0498693
    outer loop
      vertex -2.34196 2.60101 16
      vertex -3.12121 2.81035 30
      vertex -2.60101 2.34196 16
    endloop
  endfacet
  facet normal 0.543953 -0.837632 0.0498693
    outer loop
      vertex -2.05725 2.83156 16
      vertex -2.44821 3.41117 30
      vertex -2.4687 3.39787 30
    endloop
  endfacet
  facet normal 0.543961 -0.837627 0.0498693
    outer loop
      vertex -2.44821 3.41117 30
      vertex -2.05725 2.83156 16
      vertex -1.75 3.03109 16
    endloop
  endfacet
  facet normal 0.628538 -0.776179 0.0498693
    outer loop
      vertex -2.34196 2.60101 16
      vertex -2.4687 3.39787 30
      vertex -2.48768 3.3825 30
    endloop
  endfacet
  facet normal 0.628537 -0.776179 0.0498694
    outer loop
      vertex -2.4687 3.39787 30
      vertex -2.34196 2.60101 16
      vertex -2.05725 2.83156 16
    endloop
  endfacet
  facet normal 0.45343 -0.889896 0.0498693
    outer loop
      vertex -1.75 3.03109 16
      vertex -2.07824 3.64839 30
      vertex -2.1 3.63731 30
    endloop
  endfacet
  facet normal 0.453425 -0.889898 0.0498693
    outer loop
      vertex -2.07824 3.64839 30
      vertex -1.75 3.03109 16
      vertex -1.42358 3.19741 16
    endloop
  endfacet
  facet normal 0.543962 0.837627 0.0498694
    outer loop
      vertex -2.05725 -2.83156 16
      vertex -2.44821 -3.41117 30
      vertex -1.75 -3.03109 16
    endloop
  endfacet
  facet normal 0.543958 0.83763 0.0498693
    outer loop
      vertex -2.44821 -3.41117 30
      vertex -2.05725 -2.83156 16
      vertex -2.4687 -3.39787 30
    endloop
  endfacet
  facet normal 0.889898 0.453425 0.0498693
    outer loop
      vertex -3.64839 -2.07824 30
      vertex -3.19741 -1.42358 16
      vertex -3.83689 -1.70829 30
    endloop
  endfacet
  facet normal 0.932419 0.357922 0.0498693
    outer loop
      vertex -3.83689 -1.70829 30
      vertex -3.19741 -1.42358 16
      vertex -3.98568 -1.32067 30
    endloop
  endfacet
  facet normal -0.964725 -0.258494 0.0498693
    outer loop
      vertex 3.3287 1.08156 16
      vertex 4.00076 1.27428 30
      vertex 3.99444 1.29787 30
    endloop
  endfacet
  facet normal -0.964724 -0.258498 0.0498693
    outer loop
      vertex 4.00076 1.27428 30
      vertex 3.3287 1.08156 16
      vertex 3.42352 0.727691 16
    endloop
  endfacet
  facet normal -0.776179 -0.628538 0.0498693
    outer loop
      vertex 2.60101 2.34196 16
      vertex 3.39787 2.4687 30
      vertex 3.3825 2.48768 30
    endloop
  endfacet
  facet normal -0.776179 -0.628537 0.0498694
    outer loop
      vertex 3.39787 2.4687 30
      vertex 2.60101 2.34196 16
      vertex 2.83156 2.05725 16
    endloop
  endfacet
  facet normal -0.837632 -0.543953 0.0498693
    outer loop
      vertex 2.83156 2.05725 16
      vertex 3.41117 2.44821 30
      vertex 3.39787 2.4687 30
    endloop
  endfacet
  facet normal -0.837627 -0.543961 0.0498693
    outer loop
      vertex 3.41117 2.44821 30
      vertex 2.83156 2.05725 16
      vertex 3.03109 1.75 16
    endloop
  endfacet
  facet normal -0.357922 -0.932419 0.0498693
    outer loop
      vertex 1.42358 3.19741 16
      vertex 1.70829 3.83689 30
      vertex 1.32067 3.98568 30
    endloop
  endfacet
  facet normal -0.453424 -0.889899 0.0498693
    outer loop
      vertex 1.75 3.03109 16
      vertex 1.70829 3.83689 30
      vertex 1.42358 3.19741 16
    endloop
  endfacet
  facet normal -0.453428 -0.889897 0.0498692
    outer loop
      vertex 1.70829 3.83689 30
      vertex 1.75 3.03109 16
      vertex 1.73005 3.8258 30
    endloop
  endfacet
  facet normal 0.932419 -0.357922 0.0498693
    outer loop
      vertex -3.19741 1.42358 16
      vertex -3.83689 1.70829 30
      vertex -3.98568 1.32067 30
    endloop
  endfacet
  facet normal 0.889898 -0.453425 0.0498693
    outer loop
      vertex -3.19741 1.42358 16
      vertex -3.64839 2.07824 30
      vertex -3.83689 1.70829 30
    endloop
  endfacet
  facet normal 0.776178 -0.628538 0.0498693
    outer loop
      vertex -2.60101 2.34196 16
      vertex -3.12121 2.81035 30
      vertex -3.3825 2.48768 30
    endloop
  endfacet
  facet normal 0.453425 -0.889898 0.0498693
    outer loop
      vertex -1.42358 3.19741 16
      vertex -1.70829 3.83689 30
      vertex -2.07824 3.64839 30
    endloop
  endfacet
  facet normal 0.357922 -0.932419 0.0498693
    outer loop
      vertex -1.42358 3.19741 16
      vertex -1.32067 3.98568 30
      vertex -1.70829 3.83689 30
    endloop
  endfacet
  facet normal -0.932419 -0.357922 0.0498693
    outer loop
      vertex 3.98568 1.32067 30
      vertex 3.83689 1.70829 30
      vertex 3.19741 1.42358 16
    endloop
  endfacet
  facet normal -0.932418 -0.357923 0.0498693
    outer loop
      vertex 3.19741 1.42358 16
      vertex 3.99444 1.29787 30
      vertex 3.98568 1.32067 30
    endloop
  endfacet
  facet normal -0.932419 -0.357922 0.0498693
    outer loop
      vertex 3.99444 1.29787 30
      vertex 3.19741 1.42358 16
      vertex 3.3287 1.08156 16
    endloop
  endfacet
  facet normal -0.964724 -0.258497 0.0498693
    outer loop
      vertex 4.10822 0.873228 30
      vertex 4.00076 1.27428 30
      vertex 3.42352 0.727691 16
    endloop
  endfacet
  facet normal -0.706227 -0.706227 0.0498693
    outer loop
      vertex 2.34196 2.60101 16
      vertex 3.12121 2.81035 30
      vertex 2.81035 3.12121 30
    endloop
  endfacet
  facet normal -0.706227 -0.706227 0.0498693
    outer loop
      vertex 3.12121 2.81035 30
      vertex 2.34196 2.60101 16
      vertex 2.60101 2.34196 16
    endloop
  endfacet
  facet normal -0.889896 -0.45343 0.0498693
    outer loop
      vertex 3.03109 1.75 16
      vertex 3.64839 2.07824 30
      vertex 3.63731 2.1 30
    endloop
  endfacet
  facet normal -0.889898 -0.453425 0.0498693
    outer loop
      vertex 3.64839 2.07824 30
      vertex 3.03109 1.75 16
      vertex 3.19741 1.42358 16
    endloop
  endfacet
  facet normal -0.986459 -0.156241 0.0498693
    outer loop
      vertex 4.17317 0.463142 30
      vertex 4.10822 0.873228 30
      vertex 3.42352 0.727691 16
    endloop
  endfacet
  facet normal -0.986459 -0.15624 0.0498693
    outer loop
      vertex 3.48083 0.365849 16
      vertex 4.17317 0.463142 30
      vertex 3.42352 0.727691 16
    endloop
  endfacet
  facet normal -0.986458 -0.156249 0.0498693
    outer loop
      vertex 4.17317 0.463142 30
      vertex 3.48083 0.365849 16
      vertex 4.17699 0.439019 30
    endloop
  endfacet
endsolid OpenSCAD_Model
