solid OpenSCAD_Model
  facet normal -1 0 0
    outer loop
      vertex -12.75 -12.75 0
      vertex -12.75 12.75 15
      vertex -12.75 12.75 0
    endloop
  endfacet
  facet normal -1 -0 0
    outer loop
      vertex -12.75 12.75 15
      vertex -12.75 -12.75 0
      vertex -12.75 -12.75 15
    endloop
  endfacet
  facet normal 0 0 1
    outer loop
      vertex 12.75 12.75 15
      vertex 7.75 7.75 15
      vertex 12.75 -12.75 15
    endloop
  endfacet
  facet normal 0 0 1
    outer loop
      vertex 12.75 12.75 15
      vertex -7.75 7.75 15
      vertex 7.75 7.75 15
    endloop
  endfacet
  facet normal 0 0 1
    outer loop
      vertex -7.75 7.75 15
      vertex -12.75 12.75 15
      vertex -7.75 -7.75 15
    endloop
  endfacet
  facet normal -0 0 1
    outer loop
      vertex -12.75 12.75 15
      vertex -7.75 7.75 15
      vertex 12.75 12.75 15
    endloop
  endfacet
  facet normal -0 0 1
    outer loop
      vertex 7.75 -7.75 15
      vertex 12.75 -12.75 15
      vertex 7.75 7.75 15
    endloop
  endfacet
  facet normal -0 0 1
    outer loop
      vertex -7.75 -7.75 15
      vertex 12.75 -12.75 15
      vertex 7.75 -7.75 15
    endloop
  endfacet
  facet normal 0 0 1
    outer loop
      vertex -7.75 -7.75 15
      vertex -12.75 -12.75 15
      vertex 12.75 -12.75 15
    endloop
  endfacet
  facet normal 0 0 1
    outer loop
      vertex -12.75 -12.75 15
      vertex -7.75 -7.75 15
      vertex -12.75 12.75 15
    endloop
  endfacet
  facet normal 1 -0 0
    outer loop
      vertex 12.75 -12.75 15
      vertex 12.75 12.75 0
      vertex 12.75 12.75 15
    endloop
  endfacet
  facet normal 1 0 0
    outer loop
      vertex 12.75 12.75 0
      vertex 12.75 -12.75 15
      vertex 12.75 -12.75 0
    endloop
  endfacet
  facet normal 0 0 -1
    outer loop
      vertex 12.75 -12.75 0
      vertex 3 0 0
      vertex 12.75 12.75 0
    endloop
  endfacet
  facet normal 0 0 -1
    outer loop
      vertex 12.75 -12.75 0
      vertex 2.98357 -0.313585 0
      vertex 3 0 0
    endloop
  endfacet
  facet normal 0 0 -1
    outer loop
      vertex 12.75 -12.75 0
      vertex 2.93444 -0.623734 0
      vertex 2.98357 -0.313585 0
    endloop
  endfacet
  facet normal 0 0 -1
    outer loop
      vertex 12.75 -12.75 0
      vertex 2.85317 -0.927051 0
      vertex 2.93444 -0.623734 0
    endloop
  endfacet
  facet normal 0 0 -1
    outer loop
      vertex 12.75 -12.75 0
      vertex 2.74064 -1.22021 0
      vertex 2.85317 -0.927051 0
    endloop
  endfacet
  facet normal 0 0 -1
    outer loop
      vertex 12.75 -12.75 0
      vertex 2.59808 -1.5 0
      vertex 2.74064 -1.22021 0
    endloop
  endfacet
  facet normal 0 0 -1
    outer loop
      vertex 12.75 -12.75 0
      vertex 2.42705 -1.76336 0
      vertex 2.59808 -1.5 0
    endloop
  endfacet
  facet normal 0 0 -1
    outer loop
      vertex 12.75 -12.75 0
      vertex 2.22943 -2.00739 0
      vertex 2.42705 -1.76336 0
    endloop
  endfacet
  facet normal 0 0 -1
    outer loop
      vertex 12.75 -12.75 0
      vertex 2.00739 -2.22943 0
      vertex 2.22943 -2.00739 0
    endloop
  endfacet
  facet normal 0 0 -1
    outer loop
      vertex 12.75 -12.75 0
      vertex 1.76336 -2.42705 0
      vertex 2.00739 -2.22943 0
    endloop
  endfacet
  facet normal 0 0 -1
    outer loop
      vertex 12.75 -12.75 0
      vertex 1.5 -2.59808 0
      vertex 1.76336 -2.42705 0
    endloop
  endfacet
  facet normal 0 0 -1
    outer loop
      vertex 12.75 -12.75 0
      vertex 1.22021 -2.74064 0
      vertex 1.5 -2.59808 0
    endloop
  endfacet
  facet normal 0 0 -1
    outer loop
      vertex 12.75 -12.75 0
      vertex 0.927051 -2.85317 0
      vertex 1.22021 -2.74064 0
    endloop
  endfacet
  facet normal 0 0 -1
    outer loop
      vertex 12.75 -12.75 0
      vertex 0.623734 -2.93444 0
      vertex 0.927051 -2.85317 0
    endloop
  endfacet
  facet normal 0 0 -1
    outer loop
      vertex 12.75 -12.75 0
      vertex 0.313585 -2.98357 0
      vertex 0.623734 -2.93444 0
    endloop
  endfacet
  facet normal 0 0 -1
    outer loop
      vertex 12.75 -12.75 0
      vertex 0 -3 0
      vertex 0.313585 -2.98357 0
    endloop
  endfacet
  facet normal 0 0 -1
    outer loop
      vertex -12.75 -12.75 0
      vertex 0 -3 0
      vertex 12.75 -12.75 0
    endloop
  endfacet
  facet normal -0 0 -1
    outer loop
      vertex 0 -3 0
      vertex -12.75 -12.75 0
      vertex -0.313585 -2.98357 0
    endloop
  endfacet
  facet normal -0 0 -1
    outer loop
      vertex -0.313585 -2.98357 0
      vertex -12.75 -12.75 0
      vertex -0.623734 -2.93444 0
    endloop
  endfacet
  facet normal -0 0 -1
    outer loop
      vertex -0.623734 -2.93444 0
      vertex -12.75 -12.75 0
      vertex -0.927051 -2.85317 0
    endloop
  endfacet
  facet normal -0 0 -1
    outer loop
      vertex -0.927051 -2.85317 0
      vertex -12.75 -12.75 0
      vertex -1.22021 -2.74064 0
    endloop
  endfacet
  facet normal -0 0 -1
    outer loop
      vertex -1.22021 -2.74064 0
      vertex -12.75 -12.75 0
      vertex -1.5 -2.59808 0
    endloop
  endfacet
  facet normal -0 0 -1
    outer loop
      vertex -2.98357 -0.313585 0
      vertex -12.75 -12.75 0
      vertex -3 0 0
    endloop
  endfacet
  facet normal -0 0 -1
    outer loop
      vertex -2.93444 -0.623734 0
      vertex -12.75 -12.75 0
      vertex -2.98357 -0.313585 0
    endloop
  endfacet
  facet normal -0 0 -1
    outer loop
      vertex -2.85317 -0.927051 0
      vertex -12.75 -12.75 0
      vertex -2.93444 -0.623734 0
    endloop
  endfacet
  facet normal -0 0 -1
    outer loop
      vertex -2.74064 -1.22021 0
      vertex -12.75 -12.75 0
      vertex -2.85317 -0.927051 0
    endloop
  endfacet
  facet normal -0 0 -1
    outer loop
      vertex -2.59808 -1.5 0
      vertex -12.75 -12.75 0
      vertex -2.74064 -1.22021 0
    endloop
  endfacet
  facet normal -0 0 -1
    outer loop
      vertex -2.42705 -1.76336 0
      vertex -12.75 -12.75 0
      vertex -2.59808 -1.5 0
    endloop
  endfacet
  facet normal -0 0 -1
    outer loop
      vertex -2.22943 -2.00739 0
      vertex -12.75 -12.75 0
      vertex -2.42705 -1.76336 0
    endloop
  endfacet
  facet normal -0 0 -1
    outer loop
      vertex -2.00739 -2.22943 0
      vertex -12.75 -12.75 0
      vertex -2.22943 -2.00739 0
    endloop
  endfacet
  facet normal -0 0 -1
    outer loop
      vertex -1.76336 -2.42705 0
      vertex -12.75 -12.75 0
      vertex -2.00739 -2.22943 0
    endloop
  endfacet
  facet normal -0 0 -1
    outer loop
      vertex -1.5 -2.59808 0
      vertex -12.75 -12.75 0
      vertex -1.76336 -2.42705 0
    endloop
  endfacet
  facet normal 0 0 -1
    outer loop
      vertex 2.98357 0.313585 0
      vertex 12.75 12.75 0
      vertex 3 0 0
    endloop
  endfacet
  facet normal 0 0 -1
    outer loop
      vertex 2.93444 0.623734 0
      vertex 12.75 12.75 0
      vertex 2.98357 0.313585 0
    endloop
  endfacet
  facet normal 0 0 -1
    outer loop
      vertex 2.85317 0.927051 0
      vertex 12.75 12.75 0
      vertex 2.93444 0.623734 0
    endloop
  endfacet
  facet normal 0 0 -1
    outer loop
      vertex 2.74064 1.22021 0
      vertex 12.75 12.75 0
      vertex 2.85317 0.927051 0
    endloop
  endfacet
  facet normal 0 0 -1
    outer loop
      vertex 2.59808 1.5 0
      vertex 12.75 12.75 0
      vertex 2.74064 1.22021 0
    endloop
  endfacet
  facet normal 0 0 -1
    outer loop
      vertex 2.42705 1.76336 0
      vertex 12.75 12.75 0
      vertex 2.59808 1.5 0
    endloop
  endfacet
  facet normal 0 0 -1
    outer loop
      vertex 2.22943 2.00739 0
      vertex 12.75 12.75 0
      vertex 2.42705 1.76336 0
    endloop
  endfacet
  facet normal 0 0 -1
    outer loop
      vertex 2.00739 2.22943 0
      vertex 12.75 12.75 0
      vertex 2.22943 2.00739 0
    endloop
  endfacet
  facet normal 0 0 -1
    outer loop
      vertex 1.76336 2.42705 0
      vertex 12.75 12.75 0
      vertex 2.00739 2.22943 0
    endloop
  endfacet
  facet normal 0 0 -1
    outer loop
      vertex 1.5 2.59808 0
      vertex 12.75 12.75 0
      vertex 1.76336 2.42705 0
    endloop
  endfacet
  facet normal 0 0 -1
    outer loop
      vertex 1.22021 2.74064 0
      vertex 12.75 12.75 0
      vertex 1.5 2.59808 0
    endloop
  endfacet
  facet normal 0 0 -1
    outer loop
      vertex 0.927051 2.85317 0
      vertex 12.75 12.75 0
      vertex 1.22021 2.74064 0
    endloop
  endfacet
  facet normal 0 0 -1
    outer loop
      vertex 0.623734 2.93444 0
      vertex 12.75 12.75 0
      vertex 0.927051 2.85317 0
    endloop
  endfacet
  facet normal 0 0 -1
    outer loop
      vertex 0.313585 2.98357 0
      vertex 12.75 12.75 0
      vertex 0.623734 2.93444 0
    endloop
  endfacet
  facet normal 0 0 -1
    outer loop
      vertex 0 3 0
      vertex 12.75 12.75 0
      vertex 0.313585 2.98357 0
    endloop
  endfacet
  facet normal 0 0 -1
    outer loop
      vertex -12.75 12.75 0
      vertex 0 3 0
      vertex -0.313585 2.98357 0
    endloop
  endfacet
  facet normal 0 0 -1
    outer loop
      vertex -12.75 12.75 0
      vertex -0.313585 2.98357 0
      vertex -0.623734 2.93444 0
    endloop
  endfacet
  facet normal 0 0 -1
    outer loop
      vertex -12.75 12.75 0
      vertex -0.623734 2.93444 0
      vertex -0.927051 2.85317 0
    endloop
  endfacet
  facet normal 0 0 -1
    outer loop
      vertex -12.75 12.75 0
      vertex -0.927051 2.85317 0
      vertex -1.22021 2.74064 0
    endloop
  endfacet
  facet normal 0 0 -1
    outer loop
      vertex -12.75 12.75 0
      vertex -1.22021 2.74064 0
      vertex -1.5 2.59808 0
    endloop
  endfacet
  facet normal 0 0 -1
    outer loop
      vertex -12.75 12.75 0
      vertex -1.5 2.59808 0
      vertex -1.76336 2.42705 0
    endloop
  endfacet
  facet normal 0 0 -1
    outer loop
      vertex -12.75 12.75 0
      vertex -3 0 0
      vertex -12.75 -12.75 0
    endloop
  endfacet
  facet normal 0 0 -1
    outer loop
      vertex -3 0 0
      vertex -12.75 12.75 0
      vertex -2.98357 0.313585 0
    endloop
  endfacet
  facet normal 0 0 -1
    outer loop
      vertex -2.98357 0.313585 0
      vertex -12.75 12.75 0
      vertex -2.93444 0.623734 0
    endloop
  endfacet
  facet normal 0 0 -1
    outer loop
      vertex -2.93444 0.623734 0
      vertex -12.75 12.75 0
      vertex -2.85317 0.927051 0
    endloop
  endfacet
  facet normal 0 0 -1
    outer loop
      vertex -2.85317 0.927051 0
      vertex -12.75 12.75 0
      vertex -2.74064 1.22021 0
    endloop
  endfacet
  facet normal 0 0 -1
    outer loop
      vertex -2.74064 1.22021 0
      vertex -12.75 12.75 0
      vertex -2.59808 1.5 0
    endloop
  endfacet
  facet normal 0 0 -1
    outer loop
      vertex 0 3 0
      vertex -12.75 12.75 0
      vertex 12.75 12.75 0
    endloop
  endfacet
  facet normal 0 0 -1
    outer loop
      vertex -2.00739 2.22943 0
      vertex -12.75 12.75 0
      vertex -1.76336 2.42705 0
    endloop
  endfacet
  facet normal 0 0 -1
    outer loop
      vertex -2.22943 2.00739 0
      vertex -12.75 12.75 0
      vertex -2.00739 2.22943 0
    endloop
  endfacet
  facet normal 0 0 -1
    outer loop
      vertex -2.42705 1.76336 0
      vertex -12.75 12.75 0
      vertex -2.22943 2.00739 0
    endloop
  endfacet
  facet normal 0 0 -1
    outer loop
      vertex -2.59808 1.5 0
      vertex -12.75 12.75 0
      vertex -2.42705 1.76336 0
    endloop
  endfacet
  facet normal 0 -1 0
    outer loop
      vertex -12.75 -12.75 0
      vertex 12.75 -12.75 15
      vertex -12.75 -12.75 15
    endloop
  endfacet
  facet normal 0 -1 -0
    outer loop
      vertex 12.75 -12.75 15
      vertex -12.75 -12.75 0
      vertex 12.75 -12.75 0
    endloop
  endfacet
  facet normal 0 1 -0
    outer loop
      vertex 12.75 12.75 0
      vertex -12.75 12.75 15
      vertex 12.75 12.75 15
    endloop
  endfacet
  facet normal 0 1 0
    outer loop
      vertex -12.75 12.75 15
      vertex 12.75 12.75 0
      vertex -12.75 12.75 0
    endloop
  endfacet
  facet normal 1 -0 0
    outer loop
      vertex -7.75 -7.75 15
      vertex -7.75 7.75 9
      vertex -7.75 7.75 15
    endloop
  endfacet
  facet normal 1 0 0
    outer loop
      vertex -7.75 7.75 9
      vertex -7.75 -7.75 15
      vertex -7.75 -7.75 9
    endloop
  endfacet
  facet normal -1 0 0
    outer loop
      vertex 7.75 -7.75 9
      vertex 7.75 7.75 15
      vertex 7.75 7.75 9
    endloop
  endfacet
  facet normal -1 -0 0
    outer loop
      vertex 7.75 7.75 15
      vertex 7.75 -7.75 9
      vertex 7.75 -7.75 15
    endloop
  endfacet
  facet normal 0 0 1
    outer loop
      vertex 7.75 7.75 9
      vertex 4.5 0 9
      vertex 7.75 -7.75 9
    endloop
  endfacet
  facet normal 0 0 1
    outer loop
      vertex 7.75 7.75 9
      vertex 4.47535 0.470378 9
      vertex 4.5 0 9
    endloop
  endfacet
  facet normal 0 0 1
    outer loop
      vertex 7.75 7.75 9
      vertex 4.40166 0.935602 9
      vertex 4.47535 0.470378 9
    endloop
  endfacet
  facet normal 0 0 1
    outer loop
      vertex 7.75 7.75 9
      vertex 4.27975 1.39058 9
      vertex 4.40166 0.935602 9
    endloop
  endfacet
  facet normal 0 0 1
    outer loop
      vertex 7.75 7.75 9
      vertex 4.11095 1.83031 9
      vertex 4.27975 1.39058 9
    endloop
  endfacet
  facet normal 0 0 1
    outer loop
      vertex 7.75 7.75 9
      vertex 3.89711 2.25 9
      vertex 4.11095 1.83031 9
    endloop
  endfacet
  facet normal 0 0 1
    outer loop
      vertex 7.75 7.75 9
      vertex 3.64058 2.64503 9
      vertex 3.89711 2.25 9
    endloop
  endfacet
  facet normal 0 0 1
    outer loop
      vertex 7.75 7.75 9
      vertex 3.34415 3.01109 9
      vertex 3.64058 2.64503 9
    endloop
  endfacet
  facet normal 0 0 1
    outer loop
      vertex 7.75 7.75 9
      vertex 3.01109 3.34415 9
      vertex 3.34415 3.01109 9
    endloop
  endfacet
  facet normal 0 0 1
    outer loop
      vertex 7.75 7.75 9
      vertex 2.64503 3.64058 9
      vertex 3.01109 3.34415 9
    endloop
  endfacet
  facet normal 0 0 1
    outer loop
      vertex 7.75 7.75 9
      vertex 2.25 3.89711 9
      vertex 2.64503 3.64058 9
    endloop
  endfacet
  facet normal 0 0 1
    outer loop
      vertex 7.75 7.75 9
      vertex 1.83031 4.11095 9
      vertex 2.25 3.89711 9
    endloop
  endfacet
  facet normal 0 0 1
    outer loop
      vertex 7.75 7.75 9
      vertex 1.39058 4.27975 9
      vertex 1.83031 4.11095 9
    endloop
  endfacet
  facet normal 0 0 1
    outer loop
      vertex 7.75 7.75 9
      vertex 0.935602 4.40166 9
      vertex 1.39058 4.27975 9
    endloop
  endfacet
  facet normal 0 0 1
    outer loop
      vertex 7.75 7.75 9
      vertex 0.470378 4.47535 9
      vertex 0.935602 4.40166 9
    endloop
  endfacet
  facet normal 0 0 1
    outer loop
      vertex 7.75 7.75 9
      vertex 0 4.5 9
      vertex 0.470378 4.47535 9
    endloop
  endfacet
  facet normal -0 0 1
    outer loop
      vertex -7.75 7.75 9
      vertex 0 4.5 9
      vertex 7.75 7.75 9
    endloop
  endfacet
  facet normal 0 0 1
    outer loop
      vertex 0 4.5 9
      vertex -7.75 7.75 9
      vertex -0.470378 4.47535 9
    endloop
  endfacet
  facet normal 0 0 1
    outer loop
      vertex -0.470378 4.47535 9
      vertex -7.75 7.75 9
      vertex -0.935602 4.40166 9
    endloop
  endfacet
  facet normal 0 0 1
    outer loop
      vertex -4.47535 0.470378 9
      vertex -7.75 7.75 9
      vertex -4.5 0 9
    endloop
  endfacet
  facet normal 0 0 1
    outer loop
      vertex -4.40166 0.935602 9
      vertex -7.75 7.75 9
      vertex -4.47535 0.470378 9
    endloop
  endfacet
  facet normal 0 0 1
    outer loop
      vertex -4.27975 1.39058 9
      vertex -7.75 7.75 9
      vertex -4.40166 0.935602 9
    endloop
  endfacet
  facet normal 0 0 1
    outer loop
      vertex -4.11095 1.83031 9
      vertex -7.75 7.75 9
      vertex -4.27975 1.39058 9
    endloop
  endfacet
  facet normal 0 0 1
    outer loop
      vertex -3.89711 2.25 9
      vertex -7.75 7.75 9
      vertex -4.11095 1.83031 9
    endloop
  endfacet
  facet normal 0 0 1
    outer loop
      vertex -3.64058 2.64503 9
      vertex -7.75 7.75 9
      vertex -3.89711 2.25 9
    endloop
  endfacet
  facet normal 0 0 1
    outer loop
      vertex -3.34415 3.01109 9
      vertex -7.75 7.75 9
      vertex -3.64058 2.64503 9
    endloop
  endfacet
  facet normal 0 0 1
    outer loop
      vertex -3.01109 3.34415 9
      vertex -7.75 7.75 9
      vertex -3.34415 3.01109 9
    endloop
  endfacet
  facet normal 0 0 1
    outer loop
      vertex -2.64503 3.64058 9
      vertex -7.75 7.75 9
      vertex -3.01109 3.34415 9
    endloop
  endfacet
  facet normal 0 0 1
    outer loop
      vertex -2.25 3.89711 9
      vertex -7.75 7.75 9
      vertex -2.64503 3.64058 9
    endloop
  endfacet
  facet normal 0 0 1
    outer loop
      vertex -1.83031 4.11095 9
      vertex -7.75 7.75 9
      vertex -2.25 3.89711 9
    endloop
  endfacet
  facet normal 0 0 1
    outer loop
      vertex -1.39058 4.27975 9
      vertex -7.75 7.75 9
      vertex -1.83031 4.11095 9
    endloop
  endfacet
  facet normal 0 0 1
    outer loop
      vertex -0.935602 4.40166 9
      vertex -7.75 7.75 9
      vertex -1.39058 4.27975 9
    endloop
  endfacet
  facet normal -0 0 1
    outer loop
      vertex 4.47535 -0.470378 9
      vertex 7.75 -7.75 9
      vertex 4.5 0 9
    endloop
  endfacet
  facet normal -0 0 1
    outer loop
      vertex 4.40166 -0.935602 9
      vertex 7.75 -7.75 9
      vertex 4.47535 -0.470378 9
    endloop
  endfacet
  facet normal -0 0 1
    outer loop
      vertex 4.27975 -1.39058 9
      vertex 7.75 -7.75 9
      vertex 4.40166 -0.935602 9
    endloop
  endfacet
  facet normal -0 0 1
    outer loop
      vertex 4.11095 -1.83031 9
      vertex 7.75 -7.75 9
      vertex 4.27975 -1.39058 9
    endloop
  endfacet
  facet normal -0 0 1
    outer loop
      vertex 3.89711 -2.25 9
      vertex 7.75 -7.75 9
      vertex 4.11095 -1.83031 9
    endloop
  endfacet
  facet normal -0 0 1
    outer loop
      vertex 3.64058 -2.64503 9
      vertex 7.75 -7.75 9
      vertex 3.89711 -2.25 9
    endloop
  endfacet
  facet normal -0 0 1
    outer loop
      vertex 3.34415 -3.01109 9
      vertex 7.75 -7.75 9
      vertex 3.64058 -2.64503 9
    endloop
  endfacet
  facet normal -0 0 1
    outer loop
      vertex 3.01109 -3.34415 9
      vertex 7.75 -7.75 9
      vertex 3.34415 -3.01109 9
    endloop
  endfacet
  facet normal -0 0 1
    outer loop
      vertex 2.64503 -3.64058 9
      vertex 7.75 -7.75 9
      vertex 3.01109 -3.34415 9
    endloop
  endfacet
  facet normal -0 0 1
    outer loop
      vertex 2.25 -3.89711 9
      vertex 7.75 -7.75 9
      vertex 2.64503 -3.64058 9
    endloop
  endfacet
  facet normal -0 0 1
    outer loop
      vertex 1.83031 -4.11095 9
      vertex 7.75 -7.75 9
      vertex 2.25 -3.89711 9
    endloop
  endfacet
  facet normal -0 0 1
    outer loop
      vertex 1.39058 -4.27975 9
      vertex 7.75 -7.75 9
      vertex 1.83031 -4.11095 9
    endloop
  endfacet
  facet normal -0 0 1
    outer loop
      vertex 0.935602 -4.40166 9
      vertex 7.75 -7.75 9
      vertex 1.39058 -4.27975 9
    endloop
  endfacet
  facet normal -0 0 1
    outer loop
      vertex 0.470378 -4.47535 9
      vertex 7.75 -7.75 9
      vertex 0.935602 -4.40166 9
    endloop
  endfacet
  facet normal -0 0 1
    outer loop
      vertex 0 -4.5 9
      vertex 7.75 -7.75 9
      vertex 0.470378 -4.47535 9
    endloop
  endfacet
  facet normal 0 0 1
    outer loop
      vertex -7.75 -7.75 9
      vertex 0 -4.5 9
      vertex -0.470378 -4.47535 9
    endloop
  endfacet
  facet normal 0 0 1
    outer loop
      vertex -7.75 -7.75 9
      vertex -0.470378 -4.47535 9
      vertex -0.935602 -4.40166 9
    endloop
  endfacet
  facet normal 0 0 1
    outer loop
      vertex -7.75 -7.75 9
      vertex -0.935602 -4.40166 9
      vertex -1.39058 -4.27975 9
    endloop
  endfacet
  facet normal 0 0 1
    outer loop
      vertex -7.75 -7.75 9
      vertex -4.5 0 9
      vertex -7.75 7.75 9
    endloop
  endfacet
  facet normal 0 0 1
    outer loop
      vertex -4.5 0 9
      vertex -7.75 -7.75 9
      vertex -4.47535 -0.470378 9
    endloop
  endfacet
  facet normal 0 0 1
    outer loop
      vertex -4.47535 -0.470378 9
      vertex -7.75 -7.75 9
      vertex -4.40166 -0.935602 9
    endloop
  endfacet
  facet normal 0 0 1
    outer loop
      vertex 0 -4.5 9
      vertex -7.75 -7.75 9
      vertex 7.75 -7.75 9
    endloop
  endfacet
  facet normal 0 0 1
    outer loop
      vertex -1.83031 -4.11095 9
      vertex -7.75 -7.75 9
      vertex -1.39058 -4.27975 9
    endloop
  endfacet
  facet normal 0 0 1
    outer loop
      vertex -2.25 -3.89711 9
      vertex -7.75 -7.75 9
      vertex -1.83031 -4.11095 9
    endloop
  endfacet
  facet normal 0 0 1
    outer loop
      vertex -2.64503 -3.64058 9
      vertex -7.75 -7.75 9
      vertex -2.25 -3.89711 9
    endloop
  endfacet
  facet normal 0 0 1
    outer loop
      vertex -3.01109 -3.34415 9
      vertex -7.75 -7.75 9
      vertex -2.64503 -3.64058 9
    endloop
  endfacet
  facet normal 0 0 1
    outer loop
      vertex -3.34415 -3.01109 9
      vertex -7.75 -7.75 9
      vertex -3.01109 -3.34415 9
    endloop
  endfacet
  facet normal 0 0 1
    outer loop
      vertex -3.64058 -2.64503 9
      vertex -7.75 -7.75 9
      vertex -3.34415 -3.01109 9
    endloop
  endfacet
  facet normal 0 0 1
    outer loop
      vertex -3.89711 -2.25 9
      vertex -7.75 -7.75 9
      vertex -3.64058 -2.64503 9
    endloop
  endfacet
  facet normal 0 0 1
    outer loop
      vertex -4.11095 -1.83031 9
      vertex -7.75 -7.75 9
      vertex -3.89711 -2.25 9
    endloop
  endfacet
  facet normal 0 0 1
    outer loop
      vertex -4.27975 -1.39058 9
      vertex -7.75 -7.75 9
      vertex -4.11095 -1.83031 9
    endloop
  endfacet
  facet normal 0 0 1
    outer loop
      vertex -4.40166 -0.935602 9
      vertex -7.75 -7.75 9
      vertex -4.27975 -1.39058 9
    endloop
  endfacet
  facet normal 0 1 -0
    outer loop
      vertex 7.75 -7.75 9
      vertex -7.75 -7.75 15
      vertex 7.75 -7.75 15
    endloop
  endfacet
  facet normal 0 1 0
    outer loop
      vertex -7.75 -7.75 15
      vertex 7.75 -7.75 9
      vertex -7.75 -7.75 9
    endloop
  endfacet
  facet normal 0 -1 0
    outer loop
      vertex -7.75 7.75 9
      vertex 7.75 7.75 15
      vertex -7.75 7.75 15
    endloop
  endfacet
  facet normal 0 -1 -0
    outer loop
      vertex 7.75 7.75 15
      vertex -7.75 7.75 9
      vertex 7.75 7.75 9
    endloop
  endfacet
  facet normal -0.62932 -0.777146 0
    outer loop
      vertex 2.64503 3.64058 6
      vertex 3.01109 3.34415 9
      vertex 2.64503 3.64058 9
    endloop
  endfacet
  facet normal -0.62932 -0.777146 -0
    outer loop
      vertex 3.01109 3.34415 9
      vertex 2.64503 3.64058 6
      vertex 3.01109 3.34415 6
    endloop
  endfacet
  facet normal 0.358367 -0.933581 0
    outer loop
      vertex -1.83031 4.11095 6
      vertex -1.39058 4.27975 9
      vertex -1.83031 4.11095 9
    endloop
  endfacet
  facet normal 0.358367 -0.933581 0
    outer loop
      vertex -1.39058 4.27975 9
      vertex -1.83031 4.11095 6
      vertex -1.39058 4.27975 6
    endloop
  endfacet
  facet normal 0.891006 -0.453992 0
    outer loop
      vertex -4.11095 1.83031 9
      vertex -3.89711 2.25 6
      vertex -3.89711 2.25 9
    endloop
  endfacet
  facet normal 0.891006 -0.453992 0
    outer loop
      vertex -3.89711 2.25 6
      vertex -4.11095 1.83031 9
      vertex -4.11095 1.83031 6
    endloop
  endfacet
  facet normal -0.99863 0.0523361 0
    outer loop
      vertex 4.47535 -0.470378 6
      vertex 4.5 0 9
      vertex 4.5 0 6
    endloop
  endfacet
  facet normal -0.99863 0.0523361 0
    outer loop
      vertex 4.5 0 9
      vertex 4.47535 -0.470378 6
      vertex 4.47535 -0.470378 9
    endloop
  endfacet
  facet normal -0.933581 -0.358367 0
    outer loop
      vertex 4.27975 1.39058 6
      vertex 4.11095 1.83031 9
      vertex 4.11095 1.83031 6
    endloop
  endfacet
  facet normal -0.933581 -0.358367 0
    outer loop
      vertex 4.11095 1.83031 9
      vertex 4.27975 1.39058 6
      vertex 4.27975 1.39058 9
    endloop
  endfacet
  facet normal -0.987688 -0.156435 0
    outer loop
      vertex 4.47535 0.470378 6
      vertex 4.40166 0.935602 9
      vertex 4.40166 0.935602 6
    endloop
  endfacet
  facet normal -0.987688 -0.156435 0
    outer loop
      vertex 4.40166 0.935602 9
      vertex 4.47535 0.470378 6
      vertex 4.47535 0.470378 9
    endloop
  endfacet
  facet normal -0.891006 -0.453992 0
    outer loop
      vertex 4.11095 1.83031 6
      vertex 3.89711 2.25 9
      vertex 3.89711 2.25 6
    endloop
  endfacet
  facet normal -0.891006 -0.453992 0
    outer loop
      vertex 3.89711 2.25 9
      vertex 4.11095 1.83031 6
      vertex 4.11095 1.83031 9
    endloop
  endfacet
  facet normal -0.453991 -0.891006 0
    outer loop
      vertex 1.83031 4.11095 6
      vertex 2.25 3.89711 9
      vertex 1.83031 4.11095 9
    endloop
  endfacet
  facet normal -0.453991 -0.891006 -0
    outer loop
      vertex 2.25 3.89711 9
      vertex 1.83031 4.11095 6
      vertex 2.25 3.89711 6
    endloop
  endfacet
  facet normal 0.987688 -0.156435 0
    outer loop
      vertex -4.47535 0.470378 9
      vertex -4.40166 0.935602 6
      vertex -4.40166 0.935602 9
    endloop
  endfacet
  facet normal 0.987688 -0.156435 0
    outer loop
      vertex -4.40166 0.935602 6
      vertex -4.47535 0.470378 9
      vertex -4.47535 0.470378 6
    endloop
  endfacet
  facet normal 0.707107 -0.707107 0
    outer loop
      vertex -3.34415 3.01109 9
      vertex -3.01109 3.34415 6
      vertex -3.01109 3.34415 9
    endloop
  endfacet
  facet normal 0.707107 -0.707107 0
    outer loop
      vertex -3.01109 3.34415 6
      vertex -3.34415 3.01109 9
      vertex -3.34415 3.01109 6
    endloop
  endfacet
  facet normal 0.156435 -0.987688 0
    outer loop
      vertex -0.935602 4.40166 6
      vertex -0.470378 4.47535 9
      vertex -0.935602 4.40166 9
    endloop
  endfacet
  facet normal 0.156435 -0.987688 0
    outer loop
      vertex -0.470378 4.47535 9
      vertex -0.935602 4.40166 6
      vertex -0.470378 4.47535 6
    endloop
  endfacet
  facet normal 0.62932 -0.777146 0
    outer loop
      vertex -3.01109 3.34415 6
      vertex -2.64503 3.64058 9
      vertex -3.01109 3.34415 9
    endloop
  endfacet
  facet normal 0.62932 -0.777146 0
    outer loop
      vertex -2.64503 3.64058 9
      vertex -3.01109 3.34415 6
      vertex -2.64503 3.64058 6
    endloop
  endfacet
  facet normal -0.777146 0.62932 0
    outer loop
      vertex 3.34415 -3.01109 6
      vertex 3.64058 -2.64503 9
      vertex 3.64058 -2.64503 6
    endloop
  endfacet
  facet normal -0.777146 0.62932 0
    outer loop
      vertex 3.64058 -2.64503 9
      vertex 3.34415 -3.01109 6
      vertex 3.34415 -3.01109 9
    endloop
  endfacet
  facet normal -0.933581 0.358367 0
    outer loop
      vertex 4.11095 -1.83031 6
      vertex 4.27975 -1.39058 9
      vertex 4.27975 -1.39058 6
    endloop
  endfacet
  facet normal -0.933581 0.358367 0
    outer loop
      vertex 4.27975 -1.39058 9
      vertex 4.11095 -1.83031 6
      vertex 4.11095 -1.83031 9
    endloop
  endfacet
  facet normal 0.156435 0.987688 -0
    outer loop
      vertex -0.470378 -4.47535 6
      vertex -0.935602 -4.40166 9
      vertex -0.470378 -4.47535 9
    endloop
  endfacet
  facet normal 0.156435 0.987688 0
    outer loop
      vertex -0.935602 -4.40166 9
      vertex -0.470378 -4.47535 6
      vertex -0.935602 -4.40166 6
    endloop
  endfacet
  facet normal 0.707107 0.707107 0
    outer loop
      vertex -3.01109 -3.34415 9
      vertex -3.34415 -3.01109 6
      vertex -3.34415 -3.01109 9
    endloop
  endfacet
  facet normal 0.707107 0.707107 0
    outer loop
      vertex -3.34415 -3.01109 6
      vertex -3.01109 -3.34415 9
      vertex -3.01109 -3.34415 6
    endloop
  endfacet
  facet normal 0.987688 0.156435 0
    outer loop
      vertex -4.40166 -0.935602 9
      vertex -4.47535 -0.470378 6
      vertex -4.47535 -0.470378 9
    endloop
  endfacet
  facet normal 0.987688 0.156435 0
    outer loop
      vertex -4.47535 -0.470378 6
      vertex -4.40166 -0.935602 9
      vertex -4.40166 -0.935602 6
    endloop
  endfacet
  facet normal 0 0 1
    outer loop
      vertex 3 0 6
      vertex 4.5 0 6
      vertex 4.47535 0.470378 6
    endloop
  endfacet
  facet normal 0 0 1
    outer loop
      vertex 2.98357 0.313585 6
      vertex 4.47535 0.470378 6
      vertex 4.40166 0.935602 6
    endloop
  endfacet
  facet normal 0 0 1
    outer loop
      vertex 4.5 0 6
      vertex 3 0 6
      vertex 4.47535 -0.470378 6
    endloop
  endfacet
  facet normal 0 0 1
    outer loop
      vertex 2.93444 0.623734 6
      vertex 4.40166 0.935602 6
      vertex 4.27975 1.39058 6
    endloop
  endfacet
  facet normal -0 0 1
    outer loop
      vertex 2.98357 -0.313585 6
      vertex 4.47535 -0.470378 6
      vertex 3 0 6
    endloop
  endfacet
  facet normal 0 0 1
    outer loop
      vertex 2.85317 0.927051 6
      vertex 4.27975 1.39058 6
      vertex 4.11095 1.83031 6
    endloop
  endfacet
  facet normal 0 0 1
    outer loop
      vertex 4.47535 -0.470378 6
      vertex 2.98357 -0.313585 6
      vertex 4.40166 -0.935602 6
    endloop
  endfacet
  facet normal 0 0 1
    outer loop
      vertex 2.74064 1.22021 6
      vertex 4.11095 1.83031 6
      vertex 3.89711 2.25 6
    endloop
  endfacet
  facet normal -0 0 1
    outer loop
      vertex 2.93444 -0.623734 6
      vertex 4.40166 -0.935602 6
      vertex 2.98357 -0.313585 6
    endloop
  endfacet
  facet normal 0 0 1
    outer loop
      vertex 2.59808 1.5 6
      vertex 3.89711 2.25 6
      vertex 3.64058 2.64503 6
    endloop
  endfacet
  facet normal 0 0 1
    outer loop
      vertex 4.40166 -0.935602 6
      vertex 2.93444 -0.623734 6
      vertex 4.27975 -1.39058 6
    endloop
  endfacet
  facet normal 0 0 1
    outer loop
      vertex 2.42705 1.76336 6
      vertex 3.64058 2.64503 6
      vertex 3.34415 3.01109 6
    endloop
  endfacet
  facet normal -0 0 1
    outer loop
      vertex 2.85317 -0.927051 6
      vertex 4.27975 -1.39058 6
      vertex 2.93444 -0.623734 6
    endloop
  endfacet
  facet normal 0 0 1
    outer loop
      vertex 2.22943 2.00739 6
      vertex 3.34415 3.01109 6
      vertex 3.01109 3.34415 6
    endloop
  endfacet
  facet normal 0 0 1
    outer loop
      vertex 4.27975 -1.39058 6
      vertex 2.85317 -0.927051 6
      vertex 4.11095 -1.83031 6
    endloop
  endfacet
  facet normal -0 0 1
    outer loop
      vertex 2.74064 -1.22021 6
      vertex 4.11095 -1.83031 6
      vertex 2.85317 -0.927051 6
    endloop
  endfacet
  facet normal 0 0 1
    outer loop
      vertex 4.47535 0.470378 6
      vertex 2.98357 0.313585 6
      vertex 3 0 6
    endloop
  endfacet
  facet normal 0 0 1
    outer loop
      vertex 4.40166 0.935602 6
      vertex 2.93444 0.623734 6
      vertex 2.98357 0.313585 6
    endloop
  endfacet
  facet normal 0 0 1
    outer loop
      vertex 4.27975 1.39058 6
      vertex 2.85317 0.927051 6
      vertex 2.93444 0.623734 6
    endloop
  endfacet
  facet normal 0 0 1
    outer loop
      vertex 4.11095 1.83031 6
      vertex 2.74064 1.22021 6
      vertex 2.85317 0.927051 6
    endloop
  endfacet
  facet normal 0 0 1
    outer loop
      vertex 2.00739 2.22943 6
      vertex 3.01109 3.34415 6
      vertex 2.64503 3.64058 6
    endloop
  endfacet
  facet normal 0 0 1
    outer loop
      vertex 3.89711 2.25 6
      vertex 2.59808 1.5 6
      vertex 2.74064 1.22021 6
    endloop
  endfacet
  facet normal 0 0 1
    outer loop
      vertex 3.64058 2.64503 6
      vertex 2.42705 1.76336 6
      vertex 2.59808 1.5 6
    endloop
  endfacet
  facet normal 0 0 1
    outer loop
      vertex 1.76336 2.42705 6
      vertex 2.64503 3.64058 6
      vertex 2.25 3.89711 6
    endloop
  endfacet
  facet normal 0 0 1
    outer loop
      vertex 3.34415 3.01109 6
      vertex 2.22943 2.00739 6
      vertex 2.42705 1.76336 6
    endloop
  endfacet
  facet normal 0 0 1
    outer loop
      vertex 3.01109 3.34415 6
      vertex 2.00739 2.22943 6
      vertex 2.22943 2.00739 6
    endloop
  endfacet
  facet normal 0 0 1
    outer loop
      vertex 1.5 2.59808 6
      vertex 2.25 3.89711 6
      vertex 1.83031 4.11095 6
    endloop
  endfacet
  facet normal 0 0 1
    outer loop
      vertex 2.64503 3.64058 6
      vertex 1.76336 2.42705 6
      vertex 2.00739 2.22943 6
    endloop
  endfacet
  facet normal 0 0 1
    outer loop
      vertex 2.25 3.89711 6
      vertex 1.5 2.59808 6
      vertex 1.76336 2.42705 6
    endloop
  endfacet
  facet normal 0 0 1
    outer loop
      vertex 1.22021 2.74064 6
      vertex 1.83031 4.11095 6
      vertex 1.39058 4.27975 6
    endloop
  endfacet
  facet normal 0 0 1
    outer loop
      vertex 1.83031 4.11095 6
      vertex 1.22021 2.74064 6
      vertex 1.5 2.59808 6
    endloop
  endfacet
  facet normal 0 0 1
    outer loop
      vertex 0.927051 2.85317 6
      vertex 1.39058 4.27975 6
      vertex 0.935602 4.40166 6
    endloop
  endfacet
  facet normal 0 0 1
    outer loop
      vertex 1.39058 4.27975 6
      vertex 0.927051 2.85317 6
      vertex 1.22021 2.74064 6
    endloop
  endfacet
  facet normal 0 0 1
    outer loop
      vertex 0.935602 4.40166 6
      vertex 0.623734 2.93444 6
      vertex 0.927051 2.85317 6
    endloop
  endfacet
  facet normal 0 0 1
    outer loop
      vertex 0.470378 4.47535 6
      vertex 0.623734 2.93444 6
      vertex 0.935602 4.40166 6
    endloop
  endfacet
  facet normal 0 0 1
    outer loop
      vertex 0.470378 4.47535 6
      vertex 0.313585 2.98357 6
      vertex 0.623734 2.93444 6
    endloop
  endfacet
  facet normal 0 0 1
    outer loop
      vertex 0 4.5 6
      vertex 0.313585 2.98357 6
      vertex 0.470378 4.47535 6
    endloop
  endfacet
  facet normal 0 0 1
    outer loop
      vertex 0 4.5 6
      vertex 0 3 6
      vertex 0.313585 2.98357 6
    endloop
  endfacet
  facet normal 0 0 1
    outer loop
      vertex 0 4.5 6
      vertex -0.313585 2.98357 6
      vertex 0 3 6
    endloop
  endfacet
  facet normal -0 0 1
    outer loop
      vertex -0.470378 4.47535 6
      vertex -0.313585 2.98357 6
      vertex 0 4.5 6
    endloop
  endfacet
  facet normal 0 0 1
    outer loop
      vertex -0.470378 4.47535 6
      vertex -0.623734 2.93444 6
      vertex -0.313585 2.98357 6
    endloop
  endfacet
  facet normal -0 0 1
    outer loop
      vertex -0.935602 4.40166 6
      vertex -0.623734 2.93444 6
      vertex -0.470378 4.47535 6
    endloop
  endfacet
  facet normal 0 0 1
    outer loop
      vertex -0.623734 2.93444 6
      vertex -0.935602 4.40166 6
      vertex -0.927051 2.85317 6
    endloop
  endfacet
  facet normal -0 0 1
    outer loop
      vertex -1.39058 4.27975 6
      vertex -0.927051 2.85317 6
      vertex -0.935602 4.40166 6
    endloop
  endfacet
  facet normal 0 0 1
    outer loop
      vertex -0.927051 2.85317 6
      vertex -1.39058 4.27975 6
      vertex -1.22021 2.74064 6
    endloop
  endfacet
  facet normal -0 0 1
    outer loop
      vertex -1.83031 4.11095 6
      vertex -1.22021 2.74064 6
      vertex -1.39058 4.27975 6
    endloop
  endfacet
  facet normal 0 0 1
    outer loop
      vertex -1.22021 2.74064 6
      vertex -1.83031 4.11095 6
      vertex -1.5 2.59808 6
    endloop
  endfacet
  facet normal -0 0 1
    outer loop
      vertex -2.25 3.89711 6
      vertex -1.5 2.59808 6
      vertex -1.83031 4.11095 6
    endloop
  endfacet
  facet normal 0 0 1
    outer loop
      vertex -1.5 2.59808 6
      vertex -2.25 3.89711 6
      vertex -1.76336 2.42705 6
    endloop
  endfacet
  facet normal -0 0 1
    outer loop
      vertex -2.64503 3.64058 6
      vertex -1.76336 2.42705 6
      vertex -2.25 3.89711 6
    endloop
  endfacet
  facet normal 0 0 1
    outer loop
      vertex -1.76336 2.42705 6
      vertex -2.64503 3.64058 6
      vertex -2.00739 2.22943 6
    endloop
  endfacet
  facet normal -0 0 1
    outer loop
      vertex -3.01109 3.34415 6
      vertex -2.00739 2.22943 6
      vertex -2.64503 3.64058 6
    endloop
  endfacet
  facet normal 0 0 1
    outer loop
      vertex -2.00739 2.22943 6
      vertex -3.01109 3.34415 6
      vertex -2.22943 2.00739 6
    endloop
  endfacet
  facet normal -0 0 1
    outer loop
      vertex -3.34415 3.01109 6
      vertex -2.22943 2.00739 6
      vertex -3.01109 3.34415 6
    endloop
  endfacet
  facet normal 0 0 1
    outer loop
      vertex -2.22943 2.00739 6
      vertex -3.34415 3.01109 6
      vertex -2.42705 1.76336 6
    endloop
  endfacet
  facet normal -0 0 1
    outer loop
      vertex -3.64058 2.64503 6
      vertex -2.42705 1.76336 6
      vertex -3.34415 3.01109 6
    endloop
  endfacet
  facet normal 0 0 1
    outer loop
      vertex -2.42705 1.76336 6
      vertex -3.64058 2.64503 6
      vertex -2.59808 1.5 6
    endloop
  endfacet
  facet normal -0 0 1
    outer loop
      vertex -3.89711 2.25 6
      vertex -2.59808 1.5 6
      vertex -3.64058 2.64503 6
    endloop
  endfacet
  facet normal -0 0 1
    outer loop
      vertex -4.11095 1.83031 6
      vertex -2.74064 1.22021 6
      vertex -3.89711 2.25 6
    endloop
  endfacet
  facet normal 0 0 1
    outer loop
      vertex -2.59808 1.5 6
      vertex -3.89711 2.25 6
      vertex -2.74064 1.22021 6
    endloop
  endfacet
  facet normal 0 0 1
    outer loop
      vertex 4.11095 -1.83031 6
      vertex 2.74064 -1.22021 6
      vertex 3.89711 -2.25 6
    endloop
  endfacet
  facet normal -0 0 1
    outer loop
      vertex 2.59808 -1.5 6
      vertex 3.89711 -2.25 6
      vertex 2.74064 -1.22021 6
    endloop
  endfacet
  facet normal 0 0 1
    outer loop
      vertex 3.89711 -2.25 6
      vertex 2.59808 -1.5 6
      vertex 3.64058 -2.64503 6
    endloop
  endfacet
  facet normal -0 0 1
    outer loop
      vertex 2.42705 -1.76336 6
      vertex 3.64058 -2.64503 6
      vertex 2.59808 -1.5 6
    endloop
  endfacet
  facet normal 0 0 1
    outer loop
      vertex 3.64058 -2.64503 6
      vertex 2.42705 -1.76336 6
      vertex 3.34415 -3.01109 6
    endloop
  endfacet
  facet normal -0 0 1
    outer loop
      vertex 2.22943 -2.00739 6
      vertex 3.34415 -3.01109 6
      vertex 2.42705 -1.76336 6
    endloop
  endfacet
  facet normal 0 0 1
    outer loop
      vertex 3.34415 -3.01109 6
      vertex 2.22943 -2.00739 6
      vertex 3.01109 -3.34415 6
    endloop
  endfacet
  facet normal -0 0 1
    outer loop
      vertex 2.00739 -2.22943 6
      vertex 3.01109 -3.34415 6
      vertex 2.22943 -2.00739 6
    endloop
  endfacet
  facet normal 0 0 1
    outer loop
      vertex 3.01109 -3.34415 6
      vertex 2.00739 -2.22943 6
      vertex 2.64503 -3.64058 6
    endloop
  endfacet
  facet normal -0 0 1
    outer loop
      vertex 1.76336 -2.42705 6
      vertex 2.64503 -3.64058 6
      vertex 2.00739 -2.22943 6
    endloop
  endfacet
  facet normal 0 0 1
    outer loop
      vertex 2.64503 -3.64058 6
      vertex 1.76336 -2.42705 6
      vertex 2.25 -3.89711 6
    endloop
  endfacet
  facet normal -0 0 1
    outer loop
      vertex 1.5 -2.59808 6
      vertex 2.25 -3.89711 6
      vertex 1.76336 -2.42705 6
    endloop
  endfacet
  facet normal 0 0 1
    outer loop
      vertex 2.25 -3.89711 6
      vertex 1.5 -2.59808 6
      vertex 1.83031 -4.11095 6
    endloop
  endfacet
  facet normal -0 0 1
    outer loop
      vertex 1.22021 -2.74064 6
      vertex 1.83031 -4.11095 6
      vertex 1.5 -2.59808 6
    endloop
  endfacet
  facet normal 0 0 1
    outer loop
      vertex 1.83031 -4.11095 6
      vertex 1.22021 -2.74064 6
      vertex 1.39058 -4.27975 6
    endloop
  endfacet
  facet normal -0 0 1
    outer loop
      vertex 0.927051 -2.85317 6
      vertex 1.39058 -4.27975 6
      vertex 1.22021 -2.74064 6
    endloop
  endfacet
  facet normal 0 0 1
    outer loop
      vertex 1.39058 -4.27975 6
      vertex 0.927051 -2.85317 6
      vertex 0.935602 -4.40166 6
    endloop
  endfacet
  facet normal -0 0 1
    outer loop
      vertex 0.623734 -2.93444 6
      vertex 0.935602 -4.40166 6
      vertex 0.927051 -2.85317 6
    endloop
  endfacet
  facet normal 0 0 1
    outer loop
      vertex 0.623734 -2.93444 6
      vertex 0.470378 -4.47535 6
      vertex 0.935602 -4.40166 6
    endloop
  endfacet
  facet normal -0 0 1
    outer loop
      vertex 0.313585 -2.98357 6
      vertex 0.470378 -4.47535 6
      vertex 0.623734 -2.93444 6
    endloop
  endfacet
  facet normal -0 0 1
    outer loop
      vertex 0 -3 6
      vertex 0.470378 -4.47535 6
      vertex 0.313585 -2.98357 6
    endloop
  endfacet
  facet normal 0 0 1
    outer loop
      vertex 0 -3 6
      vertex 0 -4.5 6
      vertex 0.470378 -4.47535 6
    endloop
  endfacet
  facet normal 0 0 1
    outer loop
      vertex -0.313585 -2.98357 6
      vertex 0 -4.5 6
      vertex 0 -3 6
    endloop
  endfacet
  facet normal 0 0 1
    outer loop
      vertex -0.313585 -2.98357 6
      vertex -0.470378 -4.47535 6
      vertex 0 -4.5 6
    endloop
  endfacet
  facet normal 0 0 1
    outer loop
      vertex -0.623734 -2.93444 6
      vertex -0.470378 -4.47535 6
      vertex -0.313585 -2.98357 6
    endloop
  endfacet
  facet normal 0 0 1
    outer loop
      vertex -0.935602 -4.40166 6
      vertex -0.623734 -2.93444 6
      vertex -0.927051 -2.85317 6
    endloop
  endfacet
  facet normal 0 0 1
    outer loop
      vertex -0.623734 -2.93444 6
      vertex -0.935602 -4.40166 6
      vertex -0.470378 -4.47535 6
    endloop
  endfacet
  facet normal 0 0 1
    outer loop
      vertex -1.39058 -4.27975 6
      vertex -0.927051 -2.85317 6
      vertex -1.22021 -2.74064 6
    endloop
  endfacet
  facet normal 0 0 1
    outer loop
      vertex -0.927051 -2.85317 6
      vertex -1.39058 -4.27975 6
      vertex -0.935602 -4.40166 6
    endloop
  endfacet
  facet normal 0 0 1
    outer loop
      vertex -1.83031 -4.11095 6
      vertex -1.22021 -2.74064 6
      vertex -1.5 -2.59808 6
    endloop
  endfacet
  facet normal 0 0 1
    outer loop
      vertex -2.25 -3.89711 6
      vertex -1.5 -2.59808 6
      vertex -1.76336 -2.42705 6
    endloop
  endfacet
  facet normal 0 0 1
    outer loop
      vertex -1.22021 -2.74064 6
      vertex -1.83031 -4.11095 6
      vertex -1.39058 -4.27975 6
    endloop
  endfacet
  facet normal 0 0 1
    outer loop
      vertex -2.64503 -3.64058 6
      vertex -1.76336 -2.42705 6
      vertex -2.00739 -2.22943 6
    endloop
  endfacet
  facet normal 0 0 1
    outer loop
      vertex -3.01109 -3.34415 6
      vertex -2.00739 -2.22943 6
      vertex -2.22943 -2.00739 6
    endloop
  endfacet
  facet normal 0 0 1
    outer loop
      vertex -1.5 -2.59808 6
      vertex -2.25 -3.89711 6
      vertex -1.83031 -4.11095 6
    endloop
  endfacet
  facet normal 0 0 1
    outer loop
      vertex -3.34415 -3.01109 6
      vertex -2.22943 -2.00739 6
      vertex -2.42705 -1.76336 6
    endloop
  endfacet
  facet normal 0 0 1
    outer loop
      vertex -3.64058 -2.64503 6
      vertex -2.42705 -1.76336 6
      vertex -2.59808 -1.5 6
    endloop
  endfacet
  facet normal 0 0 1
    outer loop
      vertex -1.76336 -2.42705 6
      vertex -2.64503 -3.64058 6
      vertex -2.25 -3.89711 6
    endloop
  endfacet
  facet normal 0 0 1
    outer loop
      vertex -3.89711 -2.25 6
      vertex -2.59808 -1.5 6
      vertex -2.74064 -1.22021 6
    endloop
  endfacet
  facet normal 0 0 1
    outer loop
      vertex -4.11095 -1.83031 6
      vertex -2.74064 -1.22021 6
      vertex -2.85317 -0.927051 6
    endloop
  endfacet
  facet normal 0 0 1
    outer loop
      vertex -4.27975 -1.39058 6
      vertex -2.85317 -0.927051 6
      vertex -2.93444 -0.623734 6
    endloop
  endfacet
  facet normal 0 0 1
    outer loop
      vertex -4.40166 -0.935602 6
      vertex -2.93444 -0.623734 6
      vertex -2.98357 -0.313585 6
    endloop
  endfacet
  facet normal 0 0 1
    outer loop
      vertex -2.00739 -2.22943 6
      vertex -3.01109 -3.34415 6
      vertex -2.64503 -3.64058 6
    endloop
  endfacet
  facet normal 0 0 1
    outer loop
      vertex -4.47535 -0.470378 6
      vertex -2.98357 -0.313585 6
      vertex -3 0 6
    endloop
  endfacet
  facet normal 0 0 1
    outer loop
      vertex -2.74064 1.22021 6
      vertex -4.11095 1.83031 6
      vertex -2.85317 0.927051 6
    endloop
  endfacet
  facet normal -0 0 1
    outer loop
      vertex -4.27975 1.39058 6
      vertex -2.85317 0.927051 6
      vertex -4.11095 1.83031 6
    endloop
  endfacet
  facet normal 0 0 1
    outer loop
      vertex -2.22943 -2.00739 6
      vertex -3.34415 -3.01109 6
      vertex -3.01109 -3.34415 6
    endloop
  endfacet
  facet normal 0 0 1
    outer loop
      vertex -2.85317 0.927051 6
      vertex -4.27975 1.39058 6
      vertex -2.93444 0.623734 6
    endloop
  endfacet
  facet normal 0 0 1
    outer loop
      vertex -2.42705 -1.76336 6
      vertex -3.64058 -2.64503 6
      vertex -3.34415 -3.01109 6
    endloop
  endfacet
  facet normal -0 0 1
    outer loop
      vertex -4.40166 0.935602 6
      vertex -2.93444 0.623734 6
      vertex -4.27975 1.39058 6
    endloop
  endfacet
  facet normal 0 0 1
    outer loop
      vertex -2.59808 -1.5 6
      vertex -3.89711 -2.25 6
      vertex -3.64058 -2.64503 6
    endloop
  endfacet
  facet normal 0 0 1
    outer loop
      vertex -2.93444 0.623734 6
      vertex -4.40166 0.935602 6
      vertex -2.98357 0.313585 6
    endloop
  endfacet
  facet normal 0 0 1
    outer loop
      vertex -2.74064 -1.22021 6
      vertex -4.11095 -1.83031 6
      vertex -3.89711 -2.25 6
    endloop
  endfacet
  facet normal -0 0 1
    outer loop
      vertex -4.47535 0.470378 6
      vertex -2.98357 0.313585 6
      vertex -4.40166 0.935602 6
    endloop
  endfacet
  facet normal 0 0 1
    outer loop
      vertex -2.85317 -0.927051 6
      vertex -4.27975 -1.39058 6
      vertex -4.11095 -1.83031 6
    endloop
  endfacet
  facet normal 0 0 1
    outer loop
      vertex -2.98357 0.313585 6
      vertex -4.47535 0.470378 6
      vertex -3 0 6
    endloop
  endfacet
  facet normal 0 0 1
    outer loop
      vertex -2.93444 -0.623734 6
      vertex -4.40166 -0.935602 6
      vertex -4.27975 -1.39058 6
    endloop
  endfacet
  facet normal 0 0 1
    outer loop
      vertex -4.5 0 6
      vertex -3 0 6
      vertex -4.47535 0.470378 6
    endloop
  endfacet
  facet normal 0 0 1
    outer loop
      vertex -2.98357 -0.313585 6
      vertex -4.47535 -0.470378 6
      vertex -4.40166 -0.935602 6
    endloop
  endfacet
  facet normal 0 0 1
    outer loop
      vertex -3 0 6
      vertex -4.5 0 6
      vertex -4.47535 -0.470378 6
    endloop
  endfacet
  facet normal -0.965926 -0.258819 0
    outer loop
      vertex 4.40166 0.935602 6
      vertex 4.27975 1.39058 9
      vertex 4.27975 1.39058 6
    endloop
  endfacet
  facet normal -0.965926 -0.258819 0
    outer loop
      vertex 4.27975 1.39058 9
      vertex 4.40166 0.935602 6
      vertex 4.40166 0.935602 9
    endloop
  endfacet
  facet normal -0.777146 -0.62932 0
    outer loop
      vertex 3.64058 2.64503 6
      vertex 3.34415 3.01109 9
      vertex 3.34415 3.01109 6
    endloop
  endfacet
  facet normal -0.777146 -0.62932 0
    outer loop
      vertex 3.34415 3.01109 9
      vertex 3.64058 2.64503 6
      vertex 3.64058 2.64503 9
    endloop
  endfacet
  facet normal -0.838671 -0.544638 0
    outer loop
      vertex 3.89711 2.25 6
      vertex 3.64058 2.64503 9
      vertex 3.64058 2.64503 6
    endloop
  endfacet
  facet normal -0.838671 -0.544638 0
    outer loop
      vertex 3.64058 2.64503 9
      vertex 3.89711 2.25 6
      vertex 3.89711 2.25 9
    endloop
  endfacet
  facet normal -0.707107 -0.707107 0
    outer loop
      vertex 3.34415 3.01109 6
      vertex 3.01109 3.34415 9
      vertex 3.01109 3.34415 6
    endloop
  endfacet
  facet normal -0.707107 -0.707107 0
    outer loop
      vertex 3.01109 3.34415 9
      vertex 3.34415 3.01109 6
      vertex 3.34415 3.01109 9
    endloop
  endfacet
  facet normal -0.544639 -0.83867 0
    outer loop
      vertex 2.25 3.89711 6
      vertex 2.64503 3.64058 9
      vertex 2.25 3.89711 9
    endloop
  endfacet
  facet normal -0.544639 -0.83867 -0
    outer loop
      vertex 2.64503 3.64058 9
      vertex 2.25 3.89711 6
      vertex 2.64503 3.64058 6
    endloop
  endfacet
  facet normal -0.0523361 -0.99863 0
    outer loop
      vertex 0 4.5 6
      vertex 0.470378 4.47535 9
      vertex 0 4.5 9
    endloop
  endfacet
  facet normal -0.0523361 -0.99863 -0
    outer loop
      vertex 0.470378 4.47535 9
      vertex 0 4.5 6
      vertex 0.470378 4.47535 6
    endloop
  endfacet
  facet normal -0.358367 -0.933581 0
    outer loop
      vertex 1.39058 4.27975 6
      vertex 1.83031 4.11095 9
      vertex 1.39058 4.27975 9
    endloop
  endfacet
  facet normal -0.358367 -0.933581 -0
    outer loop
      vertex 1.83031 4.11095 9
      vertex 1.39058 4.27975 6
      vertex 1.83031 4.11095 6
    endloop
  endfacet
  facet normal -0.258819 -0.965926 0
    outer loop
      vertex 0.935602 4.40166 6
      vertex 1.39058 4.27975 9
      vertex 0.935602 4.40166 9
    endloop
  endfacet
  facet normal -0.258819 -0.965926 -0
    outer loop
      vertex 1.39058 4.27975 9
      vertex 0.935602 4.40166 6
      vertex 1.39058 4.27975 6
    endloop
  endfacet
  facet normal 0.99863 -0.0523361 0
    outer loop
      vertex -4.5 0 9
      vertex -4.47535 0.470378 6
      vertex -4.47535 0.470378 9
    endloop
  endfacet
  facet normal 0.99863 -0.0523361 0
    outer loop
      vertex -4.47535 0.470378 6
      vertex -4.5 0 9
      vertex -4.5 0 6
    endloop
  endfacet
  facet normal 0.933581 -0.358367 0
    outer loop
      vertex -4.27975 1.39058 9
      vertex -4.11095 1.83031 6
      vertex -4.11095 1.83031 9
    endloop
  endfacet
  facet normal 0.933581 -0.358367 0
    outer loop
      vertex -4.11095 1.83031 6
      vertex -4.27975 1.39058 9
      vertex -4.27975 1.39058 6
    endloop
  endfacet
  facet normal 0.965926 -0.258819 0
    outer loop
      vertex -4.40166 0.935602 9
      vertex -4.27975 1.39058 6
      vertex -4.27975 1.39058 9
    endloop
  endfacet
  facet normal 0.965926 -0.258819 0
    outer loop
      vertex -4.27975 1.39058 6
      vertex -4.40166 0.935602 9
      vertex -4.40166 0.935602 6
    endloop
  endfacet
  facet normal 0.838671 -0.544638 0
    outer loop
      vertex -3.89711 2.25 9
      vertex -3.64058 2.64503 6
      vertex -3.64058 2.64503 9
    endloop
  endfacet
  facet normal 0.838671 -0.544638 0
    outer loop
      vertex -3.64058 2.64503 6
      vertex -3.89711 2.25 9
      vertex -3.89711 2.25 6
    endloop
  endfacet
  facet normal 0.777146 -0.62932 0
    outer loop
      vertex -3.64058 2.64503 9
      vertex -3.34415 3.01109 6
      vertex -3.34415 3.01109 9
    endloop
  endfacet
  facet normal 0.777146 -0.62932 0
    outer loop
      vertex -3.34415 3.01109 6
      vertex -3.64058 2.64503 9
      vertex -3.64058 2.64503 6
    endloop
  endfacet
  facet normal 0.258819 -0.965926 0
    outer loop
      vertex -1.39058 4.27975 6
      vertex -0.935602 4.40166 9
      vertex -1.39058 4.27975 9
    endloop
  endfacet
  facet normal 0.258819 -0.965926 0
    outer loop
      vertex -0.935602 4.40166 9
      vertex -1.39058 4.27975 6
      vertex -0.935602 4.40166 6
    endloop
  endfacet
  facet normal 0.0523361 -0.99863 0
    outer loop
      vertex -0.470378 4.47535 6
      vertex 0 4.5 9
      vertex -0.470378 4.47535 9
    endloop
  endfacet
  facet normal 0.0523361 -0.99863 0
    outer loop
      vertex 0 4.5 9
      vertex -0.470378 4.47535 6
      vertex 0 4.5 6
    endloop
  endfacet
  facet normal 0.544638 -0.838671 0
    outer loop
      vertex -2.64503 3.64058 6
      vertex -2.25 3.89711 9
      vertex -2.64503 3.64058 9
    endloop
  endfacet
  facet normal 0.544638 -0.838671 0
    outer loop
      vertex -2.25 3.89711 9
      vertex -2.64503 3.64058 6
      vertex -2.25 3.89711 6
    endloop
  endfacet
  facet normal 0.453992 -0.891006 0
    outer loop
      vertex -2.25 3.89711 6
      vertex -1.83031 4.11095 9
      vertex -2.25 3.89711 9
    endloop
  endfacet
  facet normal 0.453992 -0.891006 0
    outer loop
      vertex -1.83031 4.11095 9
      vertex -2.25 3.89711 6
      vertex -1.83031 4.11095 6
    endloop
  endfacet
  facet normal -0.99863 -0.0523361 0
    outer loop
      vertex 4.5 0 6
      vertex 4.47535 0.470378 9
      vertex 4.47535 0.470378 6
    endloop
  endfacet
  facet normal -0.99863 -0.0523361 0
    outer loop
      vertex 4.47535 0.470378 9
      vertex 4.5 0 6
      vertex 4.5 0 9
    endloop
  endfacet
  facet normal -0.0523361 0.99863 0
    outer loop
      vertex 0.470378 -4.47535 6
      vertex 0 -4.5 9
      vertex 0.470378 -4.47535 9
    endloop
  endfacet
  facet normal -0.0523361 0.99863 0
    outer loop
      vertex 0 -4.5 9
      vertex 0.470378 -4.47535 6
      vertex 0 -4.5 6
    endloop
  endfacet
  facet normal -0.965926 0.258819 0
    outer loop
      vertex 4.27975 -1.39058 6
      vertex 4.40166 -0.935602 9
      vertex 4.40166 -0.935602 6
    endloop
  endfacet
  facet normal -0.965926 0.258819 0
    outer loop
      vertex 4.40166 -0.935602 9
      vertex 4.27975 -1.39058 6
      vertex 4.27975 -1.39058 9
    endloop
  endfacet
  facet normal -0.838671 0.544638 0
    outer loop
      vertex 3.64058 -2.64503 6
      vertex 3.89711 -2.25 9
      vertex 3.89711 -2.25 6
    endloop
  endfacet
  facet normal -0.838671 0.544638 0
    outer loop
      vertex 3.89711 -2.25 9
      vertex 3.64058 -2.64503 6
      vertex 3.64058 -2.64503 9
    endloop
  endfacet
  facet normal -0.156435 0.987688 0
    outer loop
      vertex 0.935602 -4.40166 6
      vertex 0.470378 -4.47535 9
      vertex 0.935602 -4.40166 9
    endloop
  endfacet
  facet normal -0.156435 0.987688 0
    outer loop
      vertex 0.470378 -4.47535 9
      vertex 0.935602 -4.40166 6
      vertex 0.470378 -4.47535 6
    endloop
  endfacet
  facet normal -0.258819 0.965926 0
    outer loop
      vertex 1.39058 -4.27975 6
      vertex 0.935602 -4.40166 9
      vertex 1.39058 -4.27975 9
    endloop
  endfacet
  facet normal -0.258819 0.965926 0
    outer loop
      vertex 0.935602 -4.40166 9
      vertex 1.39058 -4.27975 6
      vertex 0.935602 -4.40166 6
    endloop
  endfacet
  facet normal -0.62932 0.777146 0
    outer loop
      vertex 3.01109 -3.34415 6
      vertex 2.64503 -3.64058 9
      vertex 3.01109 -3.34415 9
    endloop
  endfacet
  facet normal -0.62932 0.777146 0
    outer loop
      vertex 2.64503 -3.64058 9
      vertex 3.01109 -3.34415 6
      vertex 2.64503 -3.64058 6
    endloop
  endfacet
  facet normal -0.453991 0.891006 0
    outer loop
      vertex 2.25 -3.89711 6
      vertex 1.83031 -4.11095 9
      vertex 2.25 -3.89711 9
    endloop
  endfacet
  facet normal -0.453991 0.891006 0
    outer loop
      vertex 1.83031 -4.11095 9
      vertex 2.25 -3.89711 6
      vertex 1.83031 -4.11095 6
    endloop
  endfacet
  facet normal 0.0523361 0.99863 -0
    outer loop
      vertex 0 -4.5 6
      vertex -0.470378 -4.47535 9
      vertex 0 -4.5 9
    endloop
  endfacet
  facet normal 0.0523361 0.99863 0
    outer loop
      vertex -0.470378 -4.47535 9
      vertex 0 -4.5 6
      vertex -0.470378 -4.47535 6
    endloop
  endfacet
  facet normal 0.358367 0.933581 -0
    outer loop
      vertex -1.39058 -4.27975 6
      vertex -1.83031 -4.11095 9
      vertex -1.39058 -4.27975 9
    endloop
  endfacet
  facet normal 0.358367 0.933581 0
    outer loop
      vertex -1.83031 -4.11095 9
      vertex -1.39058 -4.27975 6
      vertex -1.83031 -4.11095 6
    endloop
  endfacet
  facet normal 0.544639 0.83867 -0
    outer loop
      vertex -2.25 -3.89711 6
      vertex -2.64503 -3.64058 9
      vertex -2.25 -3.89711 9
    endloop
  endfacet
  facet normal 0.544639 0.83867 0
    outer loop
      vertex -2.64503 -3.64058 9
      vertex -2.25 -3.89711 6
      vertex -2.64503 -3.64058 6
    endloop
  endfacet
  facet normal 0.965926 0.258819 0
    outer loop
      vertex -4.27975 -1.39058 9
      vertex -4.40166 -0.935602 6
      vertex -4.40166 -0.935602 9
    endloop
  endfacet
  facet normal 0.965926 0.258819 0
    outer loop
      vertex -4.40166 -0.935602 6
      vertex -4.27975 -1.39058 9
      vertex -4.27975 -1.39058 6
    endloop
  endfacet
  facet normal 0.99863 0.0523361 0
    outer loop
      vertex -4.47535 -0.470378 9
      vertex -4.5 0 6
      vertex -4.5 0 9
    endloop
  endfacet
  facet normal 0.99863 0.0523361 0
    outer loop
      vertex -4.5 0 6
      vertex -4.47535 -0.470378 9
      vertex -4.47535 -0.470378 6
    endloop
  endfacet
  facet normal 0.777146 0.62932 0
    outer loop
      vertex -3.34415 -3.01109 9
      vertex -3.64058 -2.64503 6
      vertex -3.64058 -2.64503 9
    endloop
  endfacet
  facet normal 0.777146 0.62932 0
    outer loop
      vertex -3.64058 -2.64503 6
      vertex -3.34415 -3.01109 9
      vertex -3.34415 -3.01109 6
    endloop
  endfacet
  facet normal 0.891006 0.453992 0
    outer loop
      vertex -3.89711 -2.25 9
      vertex -4.11095 -1.83031 6
      vertex -4.11095 -1.83031 9
    endloop
  endfacet
  facet normal 0.891006 0.453992 0
    outer loop
      vertex -4.11095 -1.83031 6
      vertex -3.89711 -2.25 9
      vertex -3.89711 -2.25 6
    endloop
  endfacet
  facet normal -0.156435 -0.987688 0
    outer loop
      vertex 0.470378 4.47535 6
      vertex 0.935602 4.40166 9
      vertex 0.470378 4.47535 9
    endloop
  endfacet
  facet normal -0.156435 -0.987688 -0
    outer loop
      vertex 0.935602 4.40166 9
      vertex 0.470378 4.47535 6
      vertex 0.935602 4.40166 6
    endloop
  endfacet
  facet normal -0.987688 0.156435 0
    outer loop
      vertex 4.40166 -0.935602 6
      vertex 4.47535 -0.470378 9
      vertex 4.47535 -0.470378 6
    endloop
  endfacet
  facet normal -0.987688 0.156435 0
    outer loop
      vertex 4.47535 -0.470378 9
      vertex 4.40166 -0.935602 6
      vertex 4.40166 -0.935602 9
    endloop
  endfacet
  facet normal -0.358367 0.933581 0
    outer loop
      vertex 1.83031 -4.11095 6
      vertex 1.39058 -4.27975 9
      vertex 1.83031 -4.11095 9
    endloop
  endfacet
  facet normal -0.358367 0.933581 0
    outer loop
      vertex 1.39058 -4.27975 9
      vertex 1.83031 -4.11095 6
      vertex 1.39058 -4.27975 6
    endloop
  endfacet
  facet normal -0.707107 0.707107 0
    outer loop
      vertex 3.01109 -3.34415 6
      vertex 3.34415 -3.01109 9
      vertex 3.34415 -3.01109 6
    endloop
  endfacet
  facet normal -0.707107 0.707107 0
    outer loop
      vertex 3.34415 -3.01109 9
      vertex 3.01109 -3.34415 6
      vertex 3.01109 -3.34415 9
    endloop
  endfacet
  facet normal -0.544639 0.83867 0
    outer loop
      vertex 2.64503 -3.64058 6
      vertex 2.25 -3.89711 9
      vertex 2.64503 -3.64058 9
    endloop
  endfacet
  facet normal -0.544639 0.83867 0
    outer loop
      vertex 2.25 -3.89711 9
      vertex 2.64503 -3.64058 6
      vertex 2.25 -3.89711 6
    endloop
  endfacet
  facet normal 0.258819 0.965926 -0
    outer loop
      vertex -0.935602 -4.40166 6
      vertex -1.39058 -4.27975 9
      vertex -0.935602 -4.40166 9
    endloop
  endfacet
  facet normal 0.258819 0.965926 0
    outer loop
      vertex -1.39058 -4.27975 9
      vertex -0.935602 -4.40166 6
      vertex -1.39058 -4.27975 6
    endloop
  endfacet
  facet normal 0.453991 0.891006 -0
    outer loop
      vertex -1.83031 -4.11095 6
      vertex -2.25 -3.89711 9
      vertex -1.83031 -4.11095 9
    endloop
  endfacet
  facet normal 0.453991 0.891006 0
    outer loop
      vertex -2.25 -3.89711 9
      vertex -1.83031 -4.11095 6
      vertex -2.25 -3.89711 6
    endloop
  endfacet
  facet normal 0.62932 0.777146 -0
    outer loop
      vertex -2.64503 -3.64058 6
      vertex -3.01109 -3.34415 9
      vertex -2.64503 -3.64058 9
    endloop
  endfacet
  facet normal 0.62932 0.777146 0
    outer loop
      vertex -3.01109 -3.34415 9
      vertex -2.64503 -3.64058 6
      vertex -3.01109 -3.34415 6
    endloop
  endfacet
  facet normal 0.933581 0.358367 0
    outer loop
      vertex -4.11095 -1.83031 9
      vertex -4.27975 -1.39058 6
      vertex -4.27975 -1.39058 9
    endloop
  endfacet
  facet normal 0.933581 0.358367 0
    outer loop
      vertex -4.27975 -1.39058 6
      vertex -4.11095 -1.83031 9
      vertex -4.11095 -1.83031 6
    endloop
  endfacet
  facet normal 0.838671 0.544638 0
    outer loop
      vertex -3.64058 -2.64503 9
      vertex -3.89711 -2.25 6
      vertex -3.89711 -2.25 9
    endloop
  endfacet
  facet normal 0.838671 0.544638 0
    outer loop
      vertex -3.89711 -2.25 6
      vertex -3.64058 -2.64503 9
      vertex -3.64058 -2.64503 6
    endloop
  endfacet
  facet normal -0.891006 0.453992 0
    outer loop
      vertex 3.89711 -2.25 6
      vertex 4.11095 -1.83031 9
      vertex 4.11095 -1.83031 6
    endloop
  endfacet
  facet normal -0.891006 0.453992 0
    outer loop
      vertex 4.11095 -1.83031 9
      vertex 3.89711 -2.25 6
      vertex 3.89711 -2.25 9
    endloop
  endfacet
  facet normal -0.629321 -0.777145 0
    outer loop
      vertex 1.76336 2.42705 0
      vertex 2.00739 2.22943 6
      vertex 1.76336 2.42705 6
    endloop
  endfacet
  facet normal -0.629321 -0.777145 -0
    outer loop
      vertex 2.00739 2.22943 6
      vertex 1.76336 2.42705 0
      vertex 2.00739 2.22943 0
    endloop
  endfacet
  facet normal 0.258818 -0.965926 0
    outer loop
      vertex -0.927051 2.85317 0
      vertex -0.623734 2.93444 6
      vertex -0.927051 2.85317 6
    endloop
  endfacet
  facet normal 0.258818 -0.965926 0
    outer loop
      vertex -0.623734 2.93444 6
      vertex -0.927051 2.85317 0
      vertex -0.623734 2.93444 0
    endloop
  endfacet
  facet normal 0.891007 -0.45399 0
    outer loop
      vertex -2.74064 1.22021 6
      vertex -2.59808 1.5 0
      vertex -2.59808 1.5 6
    endloop
  endfacet
  facet normal 0.891007 -0.45399 0
    outer loop
      vertex -2.59808 1.5 0
      vertex -2.74064 1.22021 6
      vertex -2.74064 1.22021 0
    endloop
  endfacet
  facet normal -0.891007 -0.45399 0
    outer loop
      vertex 2.74064 1.22021 0
      vertex 2.59808 1.5 6
      vertex 2.59808 1.5 0
    endloop
  endfacet
  facet normal -0.891007 -0.45399 0
    outer loop
      vertex 2.59808 1.5 6
      vertex 2.74064 1.22021 0
      vertex 2.74064 1.22021 6
    endloop
  endfacet
  facet normal -0.838671 -0.544638 0
    outer loop
      vertex 2.59808 1.5 0
      vertex 2.42705 1.76336 6
      vertex 2.42705 1.76336 0
    endloop
  endfacet
  facet normal -0.838671 -0.544638 0
    outer loop
      vertex 2.42705 1.76336 6
      vertex 2.59808 1.5 0
      vertex 2.59808 1.5 6
    endloop
  endfacet
  facet normal -0.358369 -0.93358 0
    outer loop
      vertex 0.927051 2.85317 0
      vertex 1.22021 2.74064 6
      vertex 0.927051 2.85317 6
    endloop
  endfacet
  facet normal -0.358369 -0.93358 -0
    outer loop
      vertex 1.22021 2.74064 6
      vertex 0.927051 2.85317 0
      vertex 1.22021 2.74064 0
    endloop
  endfacet
  facet normal -0.258818 -0.965926 0
    outer loop
      vertex 0.623734 2.93444 0
      vertex 0.927051 2.85317 6
      vertex 0.623734 2.93444 6
    endloop
  endfacet
  facet normal -0.258818 -0.965926 -0
    outer loop
      vertex 0.927051 2.85317 6
      vertex 0.623734 2.93444 0
      vertex 0.927051 2.85317 0
    endloop
  endfacet
  facet normal 0.707107 -0.707107 0
    outer loop
      vertex -2.22943 2.00739 6
      vertex -2.00739 2.22943 0
      vertex -2.00739 2.22943 6
    endloop
  endfacet
  facet normal 0.707107 -0.707107 0
    outer loop
      vertex -2.00739 2.22943 0
      vertex -2.22943 2.00739 6
      vertex -2.22943 2.00739 0
    endloop
  endfacet
  facet normal 0.156434 -0.987688 0
    outer loop
      vertex -0.623734 2.93444 0
      vertex -0.313585 2.98357 6
      vertex -0.623734 2.93444 6
    endloop
  endfacet
  facet normal 0.156434 -0.987688 0
    outer loop
      vertex -0.313585 2.98357 6
      vertex -0.623734 2.93444 0
      vertex -0.313585 2.98357 0
    endloop
  endfacet
  facet normal -0.998629 0.0523371 0
    outer loop
      vertex 2.98357 -0.313585 0
      vertex 3 0 6
      vertex 3 0 0
    endloop
  endfacet
  facet normal -0.998629 0.0523371 0
    outer loop
      vertex 3 0 6
      vertex 2.98357 -0.313585 0
      vertex 2.98357 -0.313585 6
    endloop
  endfacet
  facet normal -0.777145 0.629321 0
    outer loop
      vertex 2.22943 -2.00739 0
      vertex 2.42705 -1.76336 6
      vertex 2.42705 -1.76336 0
    endloop
  endfacet
  facet normal -0.777145 0.629321 0
    outer loop
      vertex 2.42705 -1.76336 6
      vertex 2.22943 -2.00739 0
      vertex 2.22943 -2.00739 6
    endloop
  endfacet
  facet normal 0.156434 0.987688 -0
    outer loop
      vertex -0.313585 -2.98357 0
      vertex -0.623734 -2.93444 6
      vertex -0.313585 -2.98357 6
    endloop
  endfacet
  facet normal 0.156434 0.987688 0
    outer loop
      vertex -0.623734 -2.93444 6
      vertex -0.313585 -2.98357 0
      vertex -0.623734 -2.93444 0
    endloop
  endfacet
  facet normal 0.707107 0.707107 0
    outer loop
      vertex -2.00739 -2.22943 6
      vertex -2.22943 -2.00739 0
      vertex -2.22943 -2.00739 6
    endloop
  endfacet
  facet normal 0.707107 0.707107 0
    outer loop
      vertex -2.22943 -2.00739 0
      vertex -2.00739 -2.22943 6
      vertex -2.00739 -2.22943 0
    endloop
  endfacet
  facet normal 0.987688 0.156434 0
    outer loop
      vertex -2.93444 -0.623734 6
      vertex -2.98357 -0.313585 0
      vertex -2.98357 -0.313585 6
    endloop
  endfacet
  facet normal 0.987688 0.156434 0
    outer loop
      vertex -2.98357 -0.313585 0
      vertex -2.93444 -0.623734 6
      vertex -2.93444 -0.623734 0
    endloop
  endfacet
  facet normal -0.965926 -0.258818 0
    outer loop
      vertex 2.93444 0.623734 0
      vertex 2.85317 0.927051 6
      vertex 2.85317 0.927051 0
    endloop
  endfacet
  facet normal -0.965926 -0.258818 0
    outer loop
      vertex 2.85317 0.927051 6
      vertex 2.93444 0.623734 0
      vertex 2.93444 0.623734 6
    endloop
  endfacet
  facet normal -0.93358 -0.358369 0
    outer loop
      vertex 2.85317 0.927051 0
      vertex 2.74064 1.22021 6
      vertex 2.74064 1.22021 0
    endloop
  endfacet
  facet normal -0.93358 -0.358369 0
    outer loop
      vertex 2.74064 1.22021 6
      vertex 2.85317 0.927051 0
      vertex 2.85317 0.927051 6
    endloop
  endfacet
  facet normal -0.777145 -0.629321 0
    outer loop
      vertex 2.42705 1.76336 0
      vertex 2.22943 2.00739 6
      vertex 2.22943 2.00739 0
    endloop
  endfacet
  facet normal -0.777145 -0.629321 0
    outer loop
      vertex 2.22943 2.00739 6
      vertex 2.42705 1.76336 0
      vertex 2.42705 1.76336 6
    endloop
  endfacet
  facet normal -0.707107 -0.707107 0
    outer loop
      vertex 2.22943 2.00739 0
      vertex 2.00739 2.22943 6
      vertex 2.00739 2.22943 0
    endloop
  endfacet
  facet normal -0.707107 -0.707107 0
    outer loop
      vertex 2.00739 2.22943 6
      vertex 2.22943 2.00739 0
      vertex 2.22943 2.00739 6
    endloop
  endfacet
  facet normal -0.54464 -0.83867 0
    outer loop
      vertex 1.5 2.59808 0
      vertex 1.76336 2.42705 6
      vertex 1.5 2.59808 6
    endloop
  endfacet
  facet normal -0.54464 -0.83867 -0
    outer loop
      vertex 1.76336 2.42705 6
      vertex 1.5 2.59808 0
      vertex 1.76336 2.42705 0
    endloop
  endfacet
  facet normal -0.0523371 -0.998629 0
    outer loop
      vertex 0 3 0
      vertex 0.313585 2.98357 6
      vertex 0 3 6
    endloop
  endfacet
  facet normal -0.0523371 -0.998629 -0
    outer loop
      vertex 0.313585 2.98357 6
      vertex 0 3 0
      vertex 0.313585 2.98357 0
    endloop
  endfacet
  facet normal -0.453989 -0.891007 0
    outer loop
      vertex 1.22021 2.74064 0
      vertex 1.5 2.59808 6
      vertex 1.22021 2.74064 6
    endloop
  endfacet
  facet normal -0.453989 -0.891007 -0
    outer loop
      vertex 1.5 2.59808 6
      vertex 1.22021 2.74064 0
      vertex 1.5 2.59808 0
    endloop
  endfacet
  facet normal 0.998629 -0.0523371 0
    outer loop
      vertex -3 0 6
      vertex -2.98357 0.313585 0
      vertex -2.98357 0.313585 6
    endloop
  endfacet
  facet normal 0.998629 -0.0523371 0
    outer loop
      vertex -2.98357 0.313585 0
      vertex -3 0 6
      vertex -3 0 0
    endloop
  endfacet
  facet normal 0.93358 -0.358369 0
    outer loop
      vertex -2.85317 0.927051 6
      vertex -2.74064 1.22021 0
      vertex -2.74064 1.22021 6
    endloop
  endfacet
  facet normal 0.93358 -0.358369 0
    outer loop
      vertex -2.74064 1.22021 0
      vertex -2.85317 0.927051 6
      vertex -2.85317 0.927051 0
    endloop
  endfacet
  facet normal 0.965926 -0.258818 0
    outer loop
      vertex -2.93444 0.623734 6
      vertex -2.85317 0.927051 0
      vertex -2.85317 0.927051 6
    endloop
  endfacet
  facet normal 0.965926 -0.258818 0
    outer loop
      vertex -2.85317 0.927051 0
      vertex -2.93444 0.623734 6
      vertex -2.93444 0.623734 0
    endloop
  endfacet
  facet normal 0.838671 -0.544638 0
    outer loop
      vertex -2.59808 1.5 6
      vertex -2.42705 1.76336 0
      vertex -2.42705 1.76336 6
    endloop
  endfacet
  facet normal 0.838671 -0.544638 0
    outer loop
      vertex -2.42705 1.76336 0
      vertex -2.59808 1.5 6
      vertex -2.59808 1.5 0
    endloop
  endfacet
  facet normal 0.777145 -0.629321 0
    outer loop
      vertex -2.42705 1.76336 6
      vertex -2.22943 2.00739 0
      vertex -2.22943 2.00739 6
    endloop
  endfacet
  facet normal 0.777145 -0.629321 0
    outer loop
      vertex -2.22943 2.00739 0
      vertex -2.42705 1.76336 6
      vertex -2.42705 1.76336 0
    endloop
  endfacet
  facet normal 0.0523371 -0.998629 0
    outer loop
      vertex -0.313585 2.98357 0
      vertex 0 3 6
      vertex -0.313585 2.98357 6
    endloop
  endfacet
  facet normal 0.0523371 -0.998629 0
    outer loop
      vertex 0 3 6
      vertex -0.313585 2.98357 0
      vertex 0 3 0
    endloop
  endfacet
  facet normal 0.45399 -0.891007 0
    outer loop
      vertex -1.5 2.59808 0
      vertex -1.22021 2.74064 6
      vertex -1.5 2.59808 6
    endloop
  endfacet
  facet normal 0.45399 -0.891007 0
    outer loop
      vertex -1.22021 2.74064 6
      vertex -1.5 2.59808 0
      vertex -1.22021 2.74064 0
    endloop
  endfacet
  facet normal 0.544638 -0.838671 0
    outer loop
      vertex -1.76336 2.42705 0
      vertex -1.5 2.59808 6
      vertex -1.76336 2.42705 6
    endloop
  endfacet
  facet normal 0.544638 -0.838671 0
    outer loop
      vertex -1.5 2.59808 6
      vertex -1.76336 2.42705 0
      vertex -1.5 2.59808 0
    endloop
  endfacet
  facet normal 0.358369 -0.93358 0
    outer loop
      vertex -1.22021 2.74064 0
      vertex -0.927051 2.85317 6
      vertex -1.22021 2.74064 6
    endloop
  endfacet
  facet normal 0.358369 -0.93358 0
    outer loop
      vertex -0.927051 2.85317 6
      vertex -1.22021 2.74064 0
      vertex -0.927051 2.85317 0
    endloop
  endfacet
  facet normal 0.629321 -0.777145 0
    outer loop
      vertex -2.00739 2.22943 0
      vertex -1.76336 2.42705 6
      vertex -2.00739 2.22943 6
    endloop
  endfacet
  facet normal 0.629321 -0.777145 0
    outer loop
      vertex -1.76336 2.42705 6
      vertex -2.00739 2.22943 0
      vertex -1.76336 2.42705 0
    endloop
  endfacet
  facet normal -0.998629 -0.0523371 0
    outer loop
      vertex 3 0 0
      vertex 2.98357 0.313585 6
      vertex 2.98357 0.313585 0
    endloop
  endfacet
  facet normal -0.998629 -0.0523371 0
    outer loop
      vertex 2.98357 0.313585 6
      vertex 3 0 0
      vertex 3 0 6
    endloop
  endfacet
  facet normal -0.0523371 0.998629 0
    outer loop
      vertex 0.313585 -2.98357 0
      vertex 0 -3 6
      vertex 0.313585 -2.98357 6
    endloop
  endfacet
  facet normal -0.0523371 0.998629 0
    outer loop
      vertex 0 -3 6
      vertex 0.313585 -2.98357 0
      vertex 0 -3 0
    endloop
  endfacet
  facet normal -0.156434 0.987688 0
    outer loop
      vertex 0.623734 -2.93444 0
      vertex 0.313585 -2.98357 6
      vertex 0.623734 -2.93444 6
    endloop
  endfacet
  facet normal -0.156434 0.987688 0
    outer loop
      vertex 0.313585 -2.98357 6
      vertex 0.623734 -2.93444 0
      vertex 0.313585 -2.98357 0
    endloop
  endfacet
  facet normal -0.258818 0.965926 0
    outer loop
      vertex 0.927051 -2.85317 0
      vertex 0.623734 -2.93444 6
      vertex 0.927051 -2.85317 6
    endloop
  endfacet
  facet normal -0.258818 0.965926 0
    outer loop
      vertex 0.623734 -2.93444 6
      vertex 0.927051 -2.85317 0
      vertex 0.623734 -2.93444 0
    endloop
  endfacet
  facet normal -0.629321 0.777145 0
    outer loop
      vertex 2.00739 -2.22943 0
      vertex 1.76336 -2.42705 6
      vertex 2.00739 -2.22943 6
    endloop
  endfacet
  facet normal -0.629321 0.777145 0
    outer loop
      vertex 1.76336 -2.42705 6
      vertex 2.00739 -2.22943 0
      vertex 1.76336 -2.42705 0
    endloop
  endfacet
  facet normal -0.453989 0.891007 0
    outer loop
      vertex 1.5 -2.59808 0
      vertex 1.22021 -2.74064 6
      vertex 1.5 -2.59808 6
    endloop
  endfacet
  facet normal -0.453989 0.891007 0
    outer loop
      vertex 1.22021 -2.74064 6
      vertex 1.5 -2.59808 0
      vertex 1.22021 -2.74064 0
    endloop
  endfacet
  facet normal -0.891007 0.45399 0
    outer loop
      vertex 2.59808 -1.5 0
      vertex 2.74064 -1.22021 6
      vertex 2.74064 -1.22021 0
    endloop
  endfacet
  facet normal -0.891007 0.45399 0
    outer loop
      vertex 2.74064 -1.22021 6
      vertex 2.59808 -1.5 0
      vertex 2.59808 -1.5 6
    endloop
  endfacet
  facet normal 0.0523371 0.998629 -0
    outer loop
      vertex 0 -3 0
      vertex -0.313585 -2.98357 6
      vertex 0 -3 6
    endloop
  endfacet
  facet normal 0.0523371 0.998629 0
    outer loop
      vertex -0.313585 -2.98357 6
      vertex 0 -3 0
      vertex -0.313585 -2.98357 0
    endloop
  endfacet
  facet normal 0.358369 0.93358 -0
    outer loop
      vertex -0.927051 -2.85317 0
      vertex -1.22021 -2.74064 6
      vertex -0.927051 -2.85317 6
    endloop
  endfacet
  facet normal 0.358369 0.93358 0
    outer loop
      vertex -1.22021 -2.74064 6
      vertex -0.927051 -2.85317 0
      vertex -1.22021 -2.74064 0
    endloop
  endfacet
  facet normal 0.54464 0.83867 -0
    outer loop
      vertex -1.5 -2.59808 0
      vertex -1.76336 -2.42705 6
      vertex -1.5 -2.59808 6
    endloop
  endfacet
  facet normal 0.54464 0.83867 0
    outer loop
      vertex -1.76336 -2.42705 6
      vertex -1.5 -2.59808 0
      vertex -1.76336 -2.42705 0
    endloop
  endfacet
  facet normal 0.965926 0.258818 0
    outer loop
      vertex -2.85317 -0.927051 6
      vertex -2.93444 -0.623734 0
      vertex -2.93444 -0.623734 6
    endloop
  endfacet
  facet normal 0.965926 0.258818 0
    outer loop
      vertex -2.93444 -0.623734 0
      vertex -2.85317 -0.927051 6
      vertex -2.85317 -0.927051 0
    endloop
  endfacet
  facet normal 0.998629 0.0523371 0
    outer loop
      vertex -2.98357 -0.313585 6
      vertex -3 0 0
      vertex -3 0 6
    endloop
  endfacet
  facet normal 0.998629 0.0523371 0
    outer loop
      vertex -3 0 0
      vertex -2.98357 -0.313585 6
      vertex -2.98357 -0.313585 0
    endloop
  endfacet
  facet normal 0.838671 0.544638 0
    outer loop
      vertex -2.42705 -1.76336 6
      vertex -2.59808 -1.5 0
      vertex -2.59808 -1.5 6
    endloop
  endfacet
  facet normal 0.838671 0.544638 0
    outer loop
      vertex -2.59808 -1.5 0
      vertex -2.42705 -1.76336 6
      vertex -2.42705 -1.76336 0
    endloop
  endfacet
  facet normal 0.891007 0.45399 0
    outer loop
      vertex -2.59808 -1.5 6
      vertex -2.74064 -1.22021 0
      vertex -2.74064 -1.22021 6
    endloop
  endfacet
  facet normal 0.891007 0.45399 0
    outer loop
      vertex -2.74064 -1.22021 0
      vertex -2.59808 -1.5 6
      vertex -2.59808 -1.5 0
    endloop
  endfacet
  facet normal 0.93358 0.358369 0
    outer loop
      vertex -2.74064 -1.22021 6
      vertex -2.85317 -0.927051 0
      vertex -2.85317 -0.927051 6
    endloop
  endfacet
  facet normal 0.93358 0.358369 0
    outer loop
      vertex -2.85317 -0.927051 0
      vertex -2.74064 -1.22021 6
      vertex -2.74064 -1.22021 0
    endloop
  endfacet
  facet normal 0.777145 0.629321 0
    outer loop
      vertex -2.22943 -2.00739 6
      vertex -2.42705 -1.76336 0
      vertex -2.42705 -1.76336 6
    endloop
  endfacet
  facet normal 0.777145 0.629321 0
    outer loop
      vertex -2.42705 -1.76336 0
      vertex -2.22943 -2.00739 6
      vertex -2.22943 -2.00739 0
    endloop
  endfacet
  facet normal -0.987688 -0.156434 0
    outer loop
      vertex 2.98357 0.313585 0
      vertex 2.93444 0.623734 6
      vertex 2.93444 0.623734 0
    endloop
  endfacet
  facet normal -0.987688 -0.156434 0
    outer loop
      vertex 2.93444 0.623734 6
      vertex 2.98357 0.313585 0
      vertex 2.98357 0.313585 6
    endloop
  endfacet
  facet normal -0.156434 -0.987688 0
    outer loop
      vertex 0.313585 2.98357 0
      vertex 0.623734 2.93444 6
      vertex 0.313585 2.98357 6
    endloop
  endfacet
  facet normal -0.156434 -0.987688 -0
    outer loop
      vertex 0.623734 2.93444 6
      vertex 0.313585 2.98357 0
      vertex 0.623734 2.93444 0
    endloop
  endfacet
  facet normal 0.987688 -0.156434 0
    outer loop
      vertex -2.98357 0.313585 6
      vertex -2.93444 0.623734 0
      vertex -2.93444 0.623734 6
    endloop
  endfacet
  facet normal 0.987688 -0.156434 0
    outer loop
      vertex -2.93444 0.623734 0
      vertex -2.98357 0.313585 6
      vertex -2.98357 0.313585 0
    endloop
  endfacet
  facet normal -0.987688 0.156434 0
    outer loop
      vertex 2.93444 -0.623734 0
      vertex 2.98357 -0.313585 6
      vertex 2.98357 -0.313585 0
    endloop
  endfacet
  facet normal -0.987688 0.156434 0
    outer loop
      vertex 2.98357 -0.313585 6
      vertex 2.93444 -0.623734 0
      vertex 2.93444 -0.623734 6
    endloop
  endfacet
  facet normal -0.965926 0.258818 0
    outer loop
      vertex 2.85317 -0.927051 0
      vertex 2.93444 -0.623734 6
      vertex 2.93444 -0.623734 0
    endloop
  endfacet
  facet normal -0.965926 0.258818 0
    outer loop
      vertex 2.93444 -0.623734 6
      vertex 2.85317 -0.927051 0
      vertex 2.85317 -0.927051 6
    endloop
  endfacet
  facet normal -0.358369 0.93358 0
    outer loop
      vertex 1.22021 -2.74064 0
      vertex 0.927051 -2.85317 6
      vertex 1.22021 -2.74064 6
    endloop
  endfacet
  facet normal -0.358369 0.93358 0
    outer loop
      vertex 0.927051 -2.85317 6
      vertex 1.22021 -2.74064 0
      vertex 0.927051 -2.85317 0
    endloop
  endfacet
  facet normal -0.707107 0.707107 0
    outer loop
      vertex 2.00739 -2.22943 0
      vertex 2.22943 -2.00739 6
      vertex 2.22943 -2.00739 0
    endloop
  endfacet
  facet normal -0.707107 0.707107 0
    outer loop
      vertex 2.22943 -2.00739 6
      vertex 2.00739 -2.22943 0
      vertex 2.00739 -2.22943 6
    endloop
  endfacet
  facet normal -0.54464 0.83867 0
    outer loop
      vertex 1.76336 -2.42705 0
      vertex 1.5 -2.59808 6
      vertex 1.76336 -2.42705 6
    endloop
  endfacet
  facet normal -0.54464 0.83867 0
    outer loop
      vertex 1.5 -2.59808 6
      vertex 1.76336 -2.42705 0
      vertex 1.5 -2.59808 0
    endloop
  endfacet
  facet normal -0.93358 0.358369 0
    outer loop
      vertex 2.74064 -1.22021 0
      vertex 2.85317 -0.927051 6
      vertex 2.85317 -0.927051 0
    endloop
  endfacet
  facet normal -0.93358 0.358369 0
    outer loop
      vertex 2.85317 -0.927051 6
      vertex 2.74064 -1.22021 0
      vertex 2.74064 -1.22021 6
    endloop
  endfacet
  facet normal -0.838671 0.544638 0
    outer loop
      vertex 2.42705 -1.76336 0
      vertex 2.59808 -1.5 6
      vertex 2.59808 -1.5 0
    endloop
  endfacet
  facet normal -0.838671 0.544638 0
    outer loop
      vertex 2.59808 -1.5 6
      vertex 2.42705 -1.76336 0
      vertex 2.42705 -1.76336 6
    endloop
  endfacet
  facet normal 0.258818 0.965926 -0
    outer loop
      vertex -0.623734 -2.93444 0
      vertex -0.927051 -2.85317 6
      vertex -0.623734 -2.93444 6
    endloop
  endfacet
  facet normal 0.258818 0.965926 0
    outer loop
      vertex -0.927051 -2.85317 6
      vertex -0.623734 -2.93444 0
      vertex -0.927051 -2.85317 0
    endloop
  endfacet
  facet normal 0.453989 0.891007 -0
    outer loop
      vertex -1.22021 -2.74064 0
      vertex -1.5 -2.59808 6
      vertex -1.22021 -2.74064 6
    endloop
  endfacet
  facet normal 0.453989 0.891007 0
    outer loop
      vertex -1.5 -2.59808 6
      vertex -1.22021 -2.74064 0
      vertex -1.5 -2.59808 0
    endloop
  endfacet
  facet normal 0.629321 0.777145 -0
    outer loop
      vertex -1.76336 -2.42705 0
      vertex -2.00739 -2.22943 6
      vertex -1.76336 -2.42705 6
    endloop
  endfacet
  facet normal 0.629321 0.777145 0
    outer loop
      vertex -2.00739 -2.22943 6
      vertex -1.76336 -2.42705 0
      vertex -2.00739 -2.22943 0
    endloop
  endfacet
endsolid OpenSCAD_Model
